<svg id="Layer_1" data-name="Layer 1" xmlns="http://www.w3.org/2000/svg" xmlns:xlink="http://www.w3.org/1999/xlink" viewBox="0 0 26.67 20"><defs><style>.cls-1,.cls-6{fill:none;}.cls-2{clip-path:url(#clip-path);}.cls-3{fill:#74acdf;}.cls-4{fill:#fff;}.cls-5,.cls-8{fill:#f6b40e;}.cls-6,.cls-8{stroke:#85340a;}.cls-6{stroke-width:1.06px;}.cls-7{fill:#85340a;}.cls-8{stroke-width:1.4px;}.cls-9{fill:#843511;}</style><clipPath id="clip-path"><rect class="cls-1" width="26.67" height="20"/></clipPath></defs><title>argentina</title><g class="cls-2"><path class="cls-3" d="M0,0H26.67V20H0Z"/><path class="cls-4" d="M0,6.67H26.67v6.66H0Z"/><path class="cls-5" d="M13.21,10.05l1.14,2.48s0,.05.05,0,0-.06,0-.06L13.46,10Zm.22.86c0,.38.22.59.19.92a1.14,1.14,0,0,0,.2.66c0,.13-.05.21,0,.23s.12-.08.09-.27-.16-.24-.13-.65-.17-.51-.12-.88"/><path class="cls-6" d="M13.43,10.91c0,.38.22.59.19.92a1.14,1.14,0,0,0,.2.66c0,.13-.05.21,0,.23s.12-.08.09-.27-.16-.24-.13-.65-.17-.51-.12-.88m-.44-.87,1.14,2.48s0,.05.05,0,0-.06,0-.06L13.46,10Z"/><path class="cls-7" d="M13.51,11c0,.36.22.52.18.85.09-.26-.12-.47-.11-.85Zm-.24-1,.78,1.7L13.4,10"/><path class="cls-8" d="M13.33,11.11A1.11,1.11,0,1,0,12.22,10,1.12,1.12,0,0,0,13.33,11.11Z"/><path class="cls-9" d="M13.71,9.76a.24.24,0,0,0-.19.1.34.34,0,0,0,.41,0,.21.21,0,0,0-.1-.06Zm0,0c.07,0,.14,0,.15.07a.23.23,0,0,1-.31,0s0,0,.07-.06A.15.15,0,0,1,13.71,9.78Z"/><path class="cls-7" d="M13.17,10.15l0,0,0,0v0a0,0,0,0,0,0,0,0,0,0,0,0,0,0h.07l0,0,.09,0h0a.17.17,0,0,0,.1,0l0,0h.07l0,0s0,0,0,0a.08.08,0,0,0,0,0l0,0h0a.07.07,0,0,1,0,0,.05.05,0,0,1-.05.05h0s0,0,0,0a.12.12,0,0,1,0,.05.07.07,0,0,1-.06,0s-.05,0-.06,0a.12.12,0,0,1,0-.05v0h0a0,0,0,0,1,0-.05.05.05,0,0,1,0,0Zm.08.23c-.09,0-.13.08-.2.13l.14-.09c.06,0,.11,0,.14,0s.09,0,.15,0a.8.8,0,0,0,.14.09c-.08,0-.12-.13-.2-.13l-.09,0a.11.11,0,0,0-.08,0Z"/><path class="cls-7" d="M13.22,10.48l-.15,0c.16,0,.19,0,.26,0s.1,0,.26,0a.5.5,0,0,0-.26,0Z"/><path class="cls-7" d="M13.08,10.51h0c.18,0,.1.12.28.12s.11-.1.29-.12c-.19,0-.13.09-.29.09S13.23,10.51,13.08,10.51Zm.41.28a.16.16,0,0,0-.27-.11.21.21,0,0,0,0,.11.15.15,0,0,1,.06-.09.14.14,0,0,1,.09,0,.17.17,0,0,1,.1,0A.15.15,0,0,1,13.49,10.79Z"/><path class="cls-7" d="M12.64,9.76a.45.45,0,0,1,.59-.07.34.34,0,0,1,.06.15.5.5,0,0,1-.09.31h0a.59.59,0,0,0,.07-.39.32.32,0,0,0,0-.09.41.41,0,0,0-.63.08Z"/><path class="cls-7" d="M13,9.71a.24.24,0,0,1,.19.07s.08,0,.08,0a0,0,0,0,1,0,0l-.11-.07a.21.21,0,0,0-.15,0c-.15,0-.24.12-.26.11A.31.31,0,0,1,13,9.71Z"/><path class="cls-7" d="M13,9.92A.07.07,0,0,0,13,9.85.07.07,0,0,0,13,9.77a.07.07,0,0,0-.07.08A.07.07,0,0,0,13,9.92Z"/><path class="cls-7" d="M12.75,9.9a.33.33,0,0,0,.37,0c.08,0,.08-.07.07-.07l-.1,0C13,10,12.92,10,12.75,9.9Z"/></g></svg>