<svg width="43" height="43" viewBox="0 0 43 43" fill="none" xmlns="http://www.w3.org/2000/svg">
<circle r="21.5" transform="matrix(-1 0 0 1 21.5 21.5)" fill="#97C93D"/>
<path d="M23.895 17.3372C24.1226 17.1096 24.3375 17.1096 24.5398 17.3372L28.9395 21.7369C29.1671 21.9392 29.1671 22.1415 28.9395 22.3437L24.5398 26.7434C24.3375 26.971 24.1226 26.971 23.895 26.7434L23.6295 26.4779C23.402 26.2757 23.402 26.0607 23.6295 25.8332L26.8155 22.6851H12.5544C12.251 22.6851 12.0993 22.5334 12.0993 22.23V21.8507C12.0993 21.5472 12.251 21.3955 12.5544 21.3955H26.8155L23.6295 18.2475C23.402 18.0199 23.402 17.805 23.6295 17.6027L23.895 17.3372Z" fill="white"/>
</svg>
