<svg width="43" height="43" viewBox="0 0 43 43" fill="none" xmlns="http://www.w3.org/2000/svg">
<circle cx="21.5" cy="21.5" r="21.5" fill="#97C93D"/>
<path d="M19.1051 17.3372C18.8775 17.1096 18.6626 17.1096 18.4603 17.3372L14.0606 21.7369C13.833 21.9392 13.833 22.1415 14.0606 22.3437L18.4603 26.7434C18.6626 26.971 18.8775 26.971 19.1051 26.7434L19.3706 26.4779C19.5982 26.2757 19.5982 26.0607 19.3706 25.8332L16.1846 22.6851H30.4457C30.7491 22.6851 30.9008 22.5334 30.9008 22.23V21.8507C30.9008 21.5472 30.7491 21.3955 30.4457 21.3955H16.1846L19.3706 18.2475C19.5982 18.0199 19.5982 17.805 19.3706 17.6027L19.1051 17.3372Z" fill="white"/>
</svg>
