<svg width="250" height="20" viewBox="0 0 250 20" fill="none" xmlns="http://www.w3.org/2000/svg">
<g clip-path="url(#clip0)">
<g clip-path="url(#clip1)">
<path d="M6.25537 0H20.4077V20H6.25537V0Z" fill="white"/>
<path d="M-0.818848 0H6.25537V20H-0.818848V0ZM20.4077 0H27.4819V20H20.4116L20.4077 0ZM8.37646 9.66406L7.82177 9.85156L10.3804 12.0977C10.5757 12.6719 10.314 12.8398 10.146 13.1445L12.9194 12.793L12.853 15.5859L13.4311 15.5703L13.3022 12.7969L16.0835 13.1289C15.9116 12.7656 15.7593 12.5742 15.9155 11.9961L18.4702 9.86719L18.0249 9.70312C17.6577 9.42188 18.1811 8.34766 18.2593 7.66797C18.2593 7.66797 16.771 8.17969 16.6733 7.91016L16.2905 7.17969L14.9351 8.67188C14.7866 8.70703 14.7241 8.64844 14.689 8.52344L15.314 5.40625L14.3218 5.96484C14.2397 6.00391 14.1577 5.97266 14.103 5.875L13.146 3.96094L12.1616 5.94922C12.0874 6.01953 12.0132 6.02734 11.9507 5.98047L11.0054 5.44922L11.5757 8.53906C11.5288 8.66406 11.4194 8.69531 11.2944 8.62891L9.99365 7.15625C9.82568 7.42969 9.7124 7.87109 9.48584 7.97266C9.26318 8.06641 8.50927 7.78516 8.00537 7.67578C8.17724 8.29688 8.7163 9.32812 8.37646 9.66797V9.66406Z" fill="#FF0000"/>
</g>
<path fill-rule="evenodd" clip-rule="evenodd" d="M44.6667 0H71.3334V20H44.6667V0Z" fill="#229E45"/>
<path fill-rule="evenodd" clip-rule="evenodd" d="M58.0583 18.1668L70.6208 10.0127L57.9833 1.8335L45.3792 10.0293L58.0583 18.1668Z" fill="#F8E509"/>
<path fill-rule="evenodd" clip-rule="evenodd" d="M63.5334 10C63.5334 12.9292 61.1543 15.3042 58.2168 15.3042C57.167 15.3025 56.1414 14.9897 55.2694 14.4052C54.3975 13.8207 53.7184 12.9909 53.318 12.0205C52.9177 11.0501 52.814 9.98287 53.0201 8.95359C53.2262 7.92431 53.7328 6.97925 54.4759 6.23786C55.2191 5.49648 56.1653 4.99206 57.1951 4.78839C58.2249 4.58471 59.2919 4.69091 60.2613 5.09357C61.2307 5.49623 62.059 6.17726 62.6414 7.05058C63.2238 7.92389 63.5342 8.95028 63.5334 10Z" fill="#2B49A3"/>
<path fill-rule="evenodd" clip-rule="evenodd" d="M56.471 13.1789L56.3043 13.0831L56.1377 13.1664L56.1752 12.9789L56.0418 12.8373L56.2293 12.8164L56.321 12.6498L56.4002 12.8248L56.5835 12.8581L56.446 12.9831L56.471 13.1789ZM60.0293 14.0789L59.8668 13.9831L59.7002 14.0664L59.7335 13.8789L59.6043 13.7414L59.7918 13.7206L59.8793 13.5498L59.9627 13.7248L60.146 13.7581L60.0043 13.8873L60.0293 14.0789ZM58.496 12.6373L58.3543 12.5539L58.2085 12.6289L58.2418 12.4664L58.1252 12.3456L58.2918 12.3289L58.3668 12.1789L58.4335 12.3331L58.596 12.3623L58.471 12.4748L58.496 12.6373ZM62.096 12.1206L61.9543 12.0373L61.8085 12.1123L61.8418 11.9498L61.7293 11.8331L61.8918 11.8164L61.9668 11.6706L62.0335 11.8206L62.1918 11.8498L62.071 11.9581L62.096 12.1206ZM58.4335 11.0414L58.2668 10.9498L58.1002 11.0331L58.1335 10.8414L58.0043 10.7039L58.1918 10.6831L58.2793 10.5123L58.3627 10.6873L58.546 10.7206L58.4043 10.8539L58.4335 11.0414ZM54.046 9.39561L53.8793 9.30394L53.7127 9.38727L53.7543 9.19561L53.6168 9.05811L53.8085 9.03727L53.8918 8.86644L53.9752 9.04144L54.1585 9.07477L54.021 9.20394L54.046 9.39561ZM54.5752 11.5873L54.4085 11.4914L54.2418 11.5748L54.2793 11.3873L54.146 11.2498L54.3335 11.2248L54.421 11.0581L54.5043 11.2331L54.6877 11.2664L54.5502 11.3956L54.5752 11.5873ZM60.0502 8.59144L59.9002 8.50811L59.7502 8.58311L59.7835 8.41644L59.6668 8.29144L59.8335 8.27061L59.9127 8.12061L59.9835 8.27894L60.1502 8.30811L60.0252 8.42061L60.0502 8.59144ZM59.746 10.0164L59.6335 9.94977L59.5127 10.0081L59.5377 9.87477L59.446 9.77894L59.5793 9.76227L59.6418 9.64561L59.696 9.77061L59.821 9.79144L59.7293 9.88311L59.746 10.0164ZM53.8043 11.9831L53.6918 11.9206L53.5793 11.9748L53.6043 11.8498L53.5168 11.7581L53.6418 11.7414L53.7002 11.6289L53.7543 11.7456L53.8793 11.7706L53.7835 11.8539L53.8043 11.9831ZM62.1252 12.4914L62.0335 12.4456L61.9418 12.4873L61.9627 12.3914L61.8918 12.3248L61.9918 12.3123L62.0418 12.2289L62.0835 12.3123L62.1877 12.3331L62.1085 12.3956" fill="#FFFFEF"/>
<path fill-rule="evenodd" clip-rule="evenodd" d="M53.8043 11.9836L53.6918 11.9211L53.5793 11.9752L53.6043 11.8502L53.5168 11.7586L53.6418 11.7419L53.7002 11.6294L53.7543 11.7461L53.8793 11.7711L53.7835 11.8544" fill="#FFFFEF"/>
<path fill-rule="evenodd" clip-rule="evenodd" d="M53.8043 11.9831L53.6918 11.9206L53.5793 11.9748L53.6043 11.8498L53.5168 11.7581L53.6418 11.7414L53.7002 11.6289L53.7543 11.7456L53.8793 11.7706L53.7835 11.8539L53.8043 11.9831ZM55.546 11.9789L55.4377 11.9206L55.3252 11.9748L55.3502 11.8498L55.2627 11.7581L55.3877 11.7414L55.446 11.6289L55.5002 11.7456L55.6252 11.7664L55.5293 11.8539L55.546 11.9789ZM55.3293 12.5623L55.221 12.4998L55.1085 12.5581L55.1335 12.4331L55.046 12.3373L55.171 12.3206L55.2293 12.2081L55.2835 12.3248L55.4085 12.3498L55.3127 12.4331L55.3293 12.5623ZM58.9544 11.5081L58.846 11.4414L58.7294 11.4998L58.7544 11.3748L58.671 11.2789L58.796 11.2664L58.8544 11.1539L58.9044 11.2706L59.0294 11.2914L58.9377 11.3789L58.9544 11.5081ZM57.8918 11.5039L57.7793 11.4414L57.6668 11.4998L57.6918 11.3748L57.6085 11.2789L57.7335 11.2664L57.7918 11.1498L57.8419 11.2706L57.9669 11.2914L57.8752 11.3789L57.8918 11.5039ZM55.0085 11.1373L54.9377 11.0956L54.8668 11.1289L54.8835 11.0498L54.8293 10.9914L54.9085 10.9831L54.9418 10.9123L54.9752 10.9873L55.0543 10.9998L54.996 11.0539L55.0085 11.1373ZM61.9877 12.9456L61.8794 12.8831L61.7669 12.9414L61.7919 12.8164L61.7044 12.7206L61.8294 12.7039L61.8877 12.5914L61.9419 12.7081L62.0669 12.7331L61.971 12.8164L61.9877 12.9456ZM61.1044 13.0664L61.0127 13.0081L60.9169 13.0581L60.9377 12.9498L60.8669 12.8748L60.971 12.8623L61.021 12.7664L61.0627 12.8664L61.1669 12.8831L61.0877 12.9581L61.1044 13.0664ZM61.521 13.0539L61.4377 13.0039L61.3502 13.0456L61.3669 12.9498L61.3002 12.8789L61.396 12.8664L61.4419 12.7831L61.4835 12.8664L61.5794 12.8873L61.5085 12.9539L61.521 13.0539ZM62.721 12.0039L62.6377 11.9623L62.5544 12.0039L62.5752 11.9081L62.5085 11.8373L62.6044 11.8248L62.646 11.7414L62.6877 11.8289L62.7752 11.8456L62.7085 11.9123L62.721 12.0039ZM61.0919 13.6539L60.9877 13.5956L60.8752 13.6456L60.9002 13.5289L60.8169 13.4456L60.9419 13.4331L60.996 13.3289L61.046 13.4373L61.171 13.4581L61.0752 13.5373L61.0919 13.6539ZM61.1002 14.1289L61.0002 14.0706L60.9002 14.1248L60.9252 14.0081L60.846 13.9248L60.9585 13.9081L61.0085 13.8039L61.0544 13.9123L61.1669 13.9331L61.0835 14.0164L61.1002 14.1289ZM60.2919 13.0539L60.2127 13.0039L60.1294 13.0456L60.146 12.9539L60.0835 12.8831L60.1752 12.8748L60.2169 12.7914L60.2585 12.8748L60.3502 12.8914L60.2835 12.9581L60.2919 13.0539ZM59.5419 13.0539L59.4585 13.0039L59.3752 13.0456L59.396 12.9539L59.3294 12.8831L59.4252 12.8748L59.4669 12.7914L59.5085 12.8748L59.596 12.8914L59.5294 12.9581L59.5419 13.0539ZM58.2627 11.9331L58.1793 11.8873L58.096 11.9289L58.1168 11.8331L58.0502 11.7664L58.1418 11.7539L58.1835 11.6706L58.2252 11.7539L58.3169 11.7748L58.2502 11.8373L58.2627 11.9331ZM58.4044 14.2123L58.3377 14.1748L58.2627 14.2123L58.2794 14.1289L58.2252 14.0706L58.3043 14.0623L58.3419 13.9914L58.3752 14.0664L58.4543 14.0789L58.396 14.1331L58.4044 14.2123ZM56.471 10.5248L56.3043 10.4289L56.1377 10.5123L56.1752 10.3248L56.0418 10.1873L56.2293 10.1623L56.321 9.99561L56.4002 10.1706L56.5835 10.2039L56.446 10.3331" fill="#FFFFEF"/>
<path fill-rule="evenodd" clip-rule="evenodd" d="M63.1833 11.9084C63.2866 11.6406 63.3674 11.3646 63.425 11.0834C60.6 8.60426 57.4542 7.33342 53.4792 7.59592C53.335 7.87488 53.2165 8.16636 53.125 8.46676C57.8333 8.01676 61.2917 10.1001 63.1833 11.9084Z" fill="white"/>
<path d="M61.9164 10.5167L62.0122 10.5708C61.9979 10.5991 61.9935 10.6314 61.9997 10.6625C62.0095 10.6927 62.0303 10.718 62.0581 10.7333C62.0872 10.7542 62.1164 10.7667 62.1414 10.7625C62.1664 10.7625 62.1831 10.75 62.1956 10.7333C62.2028 10.7223 62.2058 10.7089 62.2039 10.6958C62.2005 10.6804 62.1933 10.6661 62.1831 10.6542C62.1747 10.6417 62.1539 10.6125 62.1206 10.5792C62.0863 10.5438 62.0606 10.501 62.0456 10.4542C62.0352 10.4187 62.0379 10.3807 62.0532 10.347C62.0684 10.3134 62.0953 10.2863 62.1289 10.2708C62.1592 10.2582 62.1927 10.2553 62.2247 10.2625C62.2639 10.2715 62.3008 10.2885 62.3331 10.3125C62.3914 10.3542 62.4289 10.3958 62.4414 10.4458C62.4472 10.4692 62.4479 10.4936 62.4436 10.5173C62.4393 10.541 62.43 10.5635 62.4164 10.5833L62.3164 10.5208C62.3289 10.4958 62.3331 10.4708 62.3247 10.45C62.3206 10.4292 62.3039 10.4083 62.2747 10.3917C62.2533 10.3745 62.2271 10.3643 62.1997 10.3625C62.1922 10.3622 62.1847 10.364 62.1781 10.3677C62.1715 10.3714 62.166 10.3768 62.1622 10.3833C62.1539 10.3958 62.1539 10.4083 62.1581 10.425C62.1622 10.4417 62.1831 10.475 62.2247 10.5167C62.2664 10.5583 62.2914 10.5958 62.3081 10.6208C62.3229 10.6481 62.3297 10.6791 62.3275 10.7102C62.3252 10.7412 62.3142 10.7709 62.2956 10.7958C62.2761 10.8242 62.2485 10.8459 62.2164 10.8583C62.1851 10.8727 62.1502 10.8771 62.1164 10.8708C62.0789 10.8625 62.0414 10.8458 61.9997 10.8167C61.9372 10.775 61.8997 10.7292 61.8872 10.6792C61.8736 10.6225 61.8826 10.5627 61.9122 10.5125L61.9164 10.5167ZM61.4331 10.2L61.5372 10.2542C61.5243 10.2829 61.5214 10.3152 61.5289 10.3458C61.5395 10.3744 61.5603 10.3981 61.5872 10.4125C61.6206 10.4333 61.6456 10.4417 61.6706 10.4375C61.6956 10.4375 61.7122 10.425 61.7247 10.4042C61.731 10.3943 61.734 10.3826 61.7331 10.3708C61.7331 10.3583 61.7247 10.3417 61.7122 10.3292C61.6909 10.3034 61.6686 10.2784 61.6456 10.2542C61.5997 10.2083 61.5706 10.1708 61.5622 10.1375C61.5554 10.1161 61.5534 10.0934 61.5562 10.0711C61.5591 10.0488 61.5669 10.0273 61.5789 10.0083C61.5947 9.98262 61.618 9.96229 61.6456 9.95C61.6742 9.9368 61.7061 9.93245 61.7372 9.9375C61.7758 9.94399 61.8126 9.95816 61.8456 9.97917C61.9081 10.0208 61.9456 10.0625 61.9581 10.1083C61.9657 10.1318 61.9681 10.1565 61.9652 10.181C61.9623 10.2054 61.9542 10.229 61.9414 10.25L61.8372 10.1917C61.8497 10.1625 61.8539 10.1417 61.8456 10.1208C61.8372 10.1 61.8206 10.0792 61.7914 10.0625C61.7683 10.046 61.7406 10.0372 61.7122 10.0375C61.7054 10.038 61.6988 10.0401 61.6929 10.0437C61.6871 10.0474 61.6823 10.0524 61.6789 10.0583C61.6706 10.0708 61.6706 10.0833 61.6747 10.1C61.6789 10.1167 61.7039 10.15 61.7456 10.1917C61.7872 10.2333 61.8164 10.2667 61.8289 10.2917C61.8456 10.3178 61.8545 10.3482 61.8545 10.3792C61.8545 10.4102 61.8456 10.4405 61.8289 10.4667C61.8109 10.4957 61.7849 10.5189 61.7539 10.5333C61.7226 10.5477 61.6877 10.5521 61.6539 10.5458C61.611 10.5386 61.57 10.523 61.5331 10.5C61.4792 10.4713 61.4377 10.4239 61.4164 10.3667C61.4003 10.311 61.4063 10.2513 61.4331 10.2ZM60.8414 10.0417L61.1456 9.54167L61.5122 9.77083L61.4622 9.85417L61.1956 9.6875L61.1289 9.8L61.3789 9.95416L61.3247 10.0375L61.0747 9.88333L60.9914 10.0208L61.2706 10.1875L61.2206 10.2708L60.8456 10.0417H60.8414ZM59.9789 9.33333L60.0247 9.25L60.2497 9.3625L60.1456 9.57083C60.1122 9.57917 60.0706 9.58333 60.0206 9.57917C59.9725 9.57387 59.9259 9.55975 59.8831 9.5375C59.8326 9.51293 59.7895 9.47558 59.7581 9.42917C59.7294 9.38604 59.7148 9.33509 59.7164 9.28333C59.7185 9.22946 59.7327 9.17677 59.7581 9.12917C59.7831 9.07906 59.8203 9.03607 59.8664 9.00417C59.9104 8.97371 59.9628 8.9577 60.0164 8.95833C60.0581 8.95833 60.0997 8.97083 60.1497 9C60.2164 9.02917 60.2581 9.07083 60.2789 9.11667C60.3006 9.16217 60.305 9.21398 60.2914 9.2625L60.1789 9.22917C60.1858 9.20126 60.1828 9.17183 60.1706 9.14583C60.1581 9.12083 60.1372 9.10417 60.1039 9.0875C60.0845 9.07641 60.0629 9.06956 60.0406 9.06741C60.0184 9.06525 59.9959 9.06784 59.9747 9.075C59.9331 9.0875 59.8956 9.125 59.8664 9.18333C59.8372 9.24167 59.8247 9.29583 59.8372 9.34167C59.843 9.3634 59.8534 9.38362 59.8678 9.40089C59.8822 9.41817 59.9002 9.43208 59.9206 9.44167C59.9414 9.45417 59.9664 9.4625 59.9914 9.4625C60.0162 9.46627 60.0415 9.46627 60.0664 9.4625L60.0997 9.39583L59.9789 9.33333ZM56.2206 8.40417L56.3039 7.82083L56.4789 7.85L56.5247 8.25833L56.6872 7.88333L56.8622 7.90833L56.7789 8.48333L56.6664 8.46667L56.7372 8.0125L56.5539 8.45L56.4414 8.43333L56.3956 7.9625L56.3289 8.42083L56.2206 8.40417ZM55.6331 8.33333L55.6872 7.75L56.1164 7.79167L56.1081 7.89167L55.7956 7.8625L55.7831 7.9875L56.0747 8.01667L56.0622 8.11667L55.7706 8.0875L55.7581 8.24583L56.0831 8.275L56.0747 8.375L55.6331 8.33333Z" fill="#309E3A"/>
<path d="M53.6875 7.9709C53.6875 7.9084 53.7 7.86256 53.7167 7.8209C53.7313 7.79127 53.751 7.76446 53.775 7.74173C53.7964 7.72018 53.8219 7.70317 53.85 7.69173C53.8917 7.67923 53.9333 7.6709 53.975 7.6709C54.0625 7.6709 54.1292 7.70423 54.1833 7.75423C54.2091 7.78608 54.2283 7.82276 54.2398 7.8621C54.2512 7.90145 54.2547 7.94269 54.25 7.9834C54.25 8.07507 54.2208 8.15006 54.1667 8.20423C54.1388 8.22996 54.1059 8.24956 54.07 8.26176C54.0341 8.27396 53.9961 8.27849 53.9583 8.27507C53.9211 8.27544 53.8842 8.26825 53.8498 8.25393C53.8154 8.2396 53.7843 8.21844 53.7583 8.19173C53.7065 8.13036 53.681 8.05098 53.6875 7.9709Z" fill="#309E3A"/>
<path d="M53.8086 7.97107C53.8086 8.03357 53.8211 8.08357 53.8503 8.12107C53.8794 8.1544 53.9169 8.17524 53.9669 8.17524C53.9886 8.17675 54.0103 8.17342 54.0304 8.1655C54.0506 8.15757 54.0688 8.14524 54.0836 8.12941C54.1128 8.09607 54.1253 8.04607 54.1294 7.97524C54.1294 7.90857 54.1211 7.85857 54.0878 7.82524C54.0742 7.80845 54.0571 7.79487 54.0376 7.78551C54.0181 7.77614 53.9969 7.77121 53.9753 7.77107C53.9533 7.77037 53.9315 7.77449 53.9114 7.78312C53.8912 7.79176 53.8732 7.80472 53.8586 7.82107C53.8253 7.85441 53.8128 7.90441 53.8086 7.97107Z" fill="#F7FFFF"/>
<path d="M54.375 8.27083L54.3833 7.6875H54.6333C54.6958 7.6875 54.7375 7.69583 54.7667 7.70833C54.7958 7.71667 54.8167 7.7375 54.8333 7.7625C54.85 7.7875 54.8583 7.82083 54.8583 7.85833C54.8587 7.89842 54.8438 7.93713 54.8167 7.96667C54.7859 7.99552 54.7462 8.01314 54.7042 8.01667L54.7667 8.06667C54.7833 8.08333 54.8042 8.11667 54.8292 8.1625L54.9 8.27917H54.7583L54.675 8.14583L54.6167 8.0625C54.6066 8.05104 54.5936 8.04242 54.5792 8.0375C54.5602 8.03197 54.5406 8.02917 54.5208 8.02917H54.4958V8.27083H54.375Z" fill="#309E3A"/>
<path d="M54.5 7.9376H54.5833C54.6417 7.9376 54.6792 7.9376 54.6917 7.92927C54.7042 7.92927 54.7167 7.91676 54.725 7.90843C54.7333 7.9001 54.7375 7.87926 54.7375 7.86676C54.7375 7.84176 54.7333 7.8251 54.7208 7.81676C54.7125 7.80426 54.6958 7.79593 54.6792 7.79176H54.5958L54.5 7.7876V7.93343V7.9376Z" fill="white"/>
<path d="M55.0421 7.7168L55.2588 7.7293C55.3046 7.7293 55.3421 7.73346 55.3671 7.7418C55.3995 7.75356 55.4283 7.77368 55.4504 7.80013C55.4744 7.82926 55.4915 7.86345 55.5004 7.90013C55.5129 7.93763 55.5171 7.98346 55.5129 8.03763C55.5129 8.08016 55.5059 8.12239 55.4921 8.16263C55.4754 8.2043 55.4504 8.23763 55.4213 8.26263C55.397 8.28263 55.3685 8.29688 55.3379 8.3043C55.3129 8.31263 55.2754 8.31263 55.2338 8.31263L55.0129 8.30013L55.0421 7.7168Z" fill="#309E3A"/>
<path d="M55.1549 7.8208L55.134 8.2083H55.2924C55.3132 8.2083 55.3299 8.19997 55.3424 8.18747C55.3549 8.17497 55.3674 8.1583 55.3757 8.1333C55.384 8.1083 55.3924 8.0708 55.3924 8.02497L55.3882 7.9208C55.3822 7.89883 55.3708 7.87875 55.3549 7.86247C55.341 7.84855 55.3238 7.8385 55.3049 7.8333C55.2734 7.82629 55.2413 7.8221 55.209 7.8208H55.1549Z" fill="white"/>
<path d="M57.8999 8.75856L58.0374 8.19189L58.2207 8.23356L58.3541 8.27523C58.3832 8.29189 58.4082 8.31689 58.4207 8.35439C58.4374 8.38773 58.4374 8.42523 58.4291 8.47106C58.4207 8.50439 58.4082 8.53356 58.3874 8.55439C58.3721 8.57269 58.353 8.5874 58.3314 8.59748C58.3098 8.60756 58.2862 8.61277 58.2624 8.61273C58.2332 8.61273 58.1916 8.60439 58.1374 8.59189L58.0666 8.57106L58.0166 8.78773L57.8999 8.75856Z" fill="#309E3A"/>
<path d="M58.1249 8.31689L58.0916 8.47523L58.1541 8.4919C58.1957 8.50023 58.2291 8.50856 58.2457 8.5044C58.2619 8.50215 58.277 8.49493 58.289 8.48373C58.3009 8.47254 58.3091 8.45793 58.3124 8.4419C58.3124 8.42106 58.3124 8.40439 58.3041 8.38773C58.2949 8.37079 58.2802 8.35754 58.2624 8.35023L58.1832 8.32939L58.1291 8.31689H58.1249Z" fill="white"/>
<path d="M58.4417 8.92061L58.6375 8.37061L58.8666 8.45394C58.9291 8.47477 58.9666 8.49561 58.9916 8.51227C59.0125 8.53311 59.0291 8.55394 59.0333 8.58727C59.0375 8.62061 59.0416 8.64977 59.0333 8.68311C59.0166 8.72477 58.9916 8.75394 58.9583 8.77477C58.925 8.79144 58.8833 8.79561 58.8333 8.78727C58.85 8.80811 58.8666 8.82894 58.875 8.85394L58.9083 8.96644L58.9333 9.09561L58.8041 9.04977L58.7625 8.89977C58.7549 8.86585 58.7452 8.83245 58.7333 8.79977C58.7278 8.78681 58.7192 8.77537 58.7083 8.76644C58.7 8.75394 58.6833 8.74561 58.6541 8.73727L58.6333 8.72894L58.55 8.96227L58.4417 8.92061Z" fill="#309E3A"/>
<path d="M58.667 8.64141L58.7462 8.67057C58.8003 8.69141 58.8337 8.69974 58.8503 8.69974C58.8628 8.69974 58.8753 8.69974 58.8878 8.68724C58.9003 8.67891 58.9087 8.66641 58.9128 8.64974C58.9212 8.63307 58.9212 8.61641 58.9128 8.59974C58.9067 8.58359 58.8948 8.57025 58.8795 8.56224L58.7962 8.53307L58.7128 8.50391L58.6628 8.64141H58.667Z" fill="white"/>
<path d="M59.125 8.90029C59.1393 8.85151 59.1634 8.80614 59.1959 8.76696C59.2169 8.74182 59.2423 8.72065 59.2708 8.70446C59.2967 8.68987 59.3249 8.67999 59.3542 8.67529C59.3958 8.67529 59.4375 8.67529 59.4833 8.69196C59.5206 8.70118 59.5555 8.7182 59.5856 8.7419C59.6158 8.76561 59.6406 8.79545 59.6583 8.82946C59.6917 8.89613 59.6917 8.9753 59.6667 9.06696C59.6461 9.14571 59.5951 9.21312 59.525 9.25446C59.4625 9.29196 59.3875 9.29613 59.3083 9.27113C59.2712 9.26167 59.2365 9.24455 59.2063 9.22087C59.1762 9.19719 59.1513 9.16748 59.1334 9.13363C59.1167 9.0972 59.1073 9.05784 59.1059 9.01779C59.1045 8.97775 59.111 8.93782 59.125 8.90029Z" fill="#309E3A"/>
<path d="M59.2419 8.93334C59.2252 8.99584 59.2211 9.05001 59.2419 9.09167C59.2627 9.13334 59.2919 9.15834 59.3377 9.17501C59.3794 9.18751 59.4211 9.18334 59.4627 9.15834C59.5044 9.13751 59.5294 9.09167 59.5502 9.02501C59.571 8.96251 59.571 8.91251 59.5502 8.87084C59.542 8.85107 59.5295 8.83336 59.5137 8.81896C59.4978 8.80455 59.479 8.79382 59.4586 8.78751C59.4381 8.78043 59.4163 8.77788 59.3947 8.78004C59.3731 8.7822 59.3522 8.78901 59.3336 8.80001C59.2919 8.82501 59.2627 8.86667 59.2419 8.93334Z" fill="white"/>
<path d="M60.2629 9.71247L60.5296 9.1958L60.7504 9.3083C60.7921 9.32827 60.8301 9.35503 60.8629 9.38747C60.8838 9.4083 60.8963 9.4333 60.8963 9.46663C60.8963 9.49997 60.8963 9.52913 60.8796 9.5583C60.8636 9.59577 60.8337 9.62561 60.7963 9.64163C60.7546 9.64997 60.7129 9.64997 60.6671 9.6333C60.6838 9.6583 60.6921 9.6833 60.7004 9.70413C60.7088 9.72913 60.7129 9.76663 60.7171 9.8208L60.7254 9.95413L60.6004 9.89163L60.5838 9.73747C60.5818 9.70252 60.5776 9.66773 60.5713 9.6333C60.5684 9.61771 60.5612 9.60326 60.5504 9.59163L60.5004 9.56247L60.4796 9.54997L60.3671 9.76663L60.2629 9.71247Z" fill="#309E3A"/>
<path d="M60.521 9.46634L60.6002 9.50801C60.6502 9.53301 60.6835 9.54967 60.696 9.54967C60.7085 9.54967 60.7252 9.54968 60.7377 9.54134C60.7502 9.53718 60.7585 9.52467 60.7668 9.50801C60.7752 9.49134 60.7793 9.47467 60.7752 9.45801C60.77 9.44142 60.7598 9.42685 60.746 9.41634C60.7216 9.40137 60.6966 9.38747 60.671 9.37467L60.5877 9.33301L60.521 9.46634Z" fill="white"/>
<path d="M62.4208 10.7789C62.4477 10.736 62.4832 10.6992 62.5249 10.6705C62.553 10.6526 62.584 10.6399 62.6166 10.633C62.6468 10.6269 62.678 10.6269 62.7083 10.633C62.7499 10.6414 62.7874 10.658 62.8249 10.683C62.8573 10.7032 62.8852 10.73 62.9067 10.7615C62.9283 10.7931 62.943 10.8288 62.9499 10.8664C62.9624 10.9372 62.9416 11.0164 62.8916 11.0955C62.8498 11.1644 62.7823 11.2139 62.7041 11.233C62.6668 11.2411 62.6282 11.2412 62.5909 11.2333C62.5535 11.2254 62.5183 11.2097 62.4874 11.1872C62.455 11.167 62.4271 11.1403 62.4056 11.1087C62.3841 11.0771 62.3694 11.0414 62.3624 11.0039C62.3499 10.9289 62.3708 10.8539 62.4208 10.7789Z" fill="#309E3A"/>
<path d="M62.5248 10.8454C62.4832 10.8996 62.4707 10.9496 62.479 10.9954C62.4821 11.0165 62.4896 11.0367 62.5011 11.0547C62.5126 11.0726 62.5278 11.088 62.5457 11.0996C62.5873 11.1287 62.629 11.1371 62.6707 11.1246C62.7123 11.1121 62.754 11.0829 62.7915 11.0246C62.829 10.9662 62.8457 10.9162 62.8373 10.8746C62.8332 10.8329 62.8082 10.7954 62.7707 10.7662C62.7332 10.7371 62.6873 10.7329 62.6457 10.7454C62.604 10.7537 62.5623 10.7871 62.5207 10.8454H62.5248Z" fill="white"/>
<path d="M57.2419 8.52113L57.3378 8.11279L57.6378 8.18363L57.6253 8.25029L57.4044 8.20029L57.3836 8.29196L57.5878 8.33779L57.5711 8.40863L57.3669 8.35863L57.3419 8.47113L57.5711 8.52529L57.5544 8.59196L57.2419 8.52113Z" fill="#309E3A"/>
<g clip-path="url(#clip2)">
<path fill-rule="evenodd" clip-rule="evenodd" d="M89.3333 0H127.333V1.53906H89.3333V0ZM89.3333 3.07812H127.333V4.61719H89.3333V3.07812ZM89.3333 6.15234H127.333V7.69531H89.3333V6.15234ZM89.3333 9.23047H127.333V10.7695H89.3333V9.23047ZM89.3333 12.3086H127.333V13.8477H89.3333V12.3086ZM89.3333 15.3828H127.333V16.9219H89.3333V15.3828ZM89.3333 18.4609H127.333V20H89.3333V18.4609Z" fill="#BD3D44"/>
<path fill-rule="evenodd" clip-rule="evenodd" d="M89.3333 1.53906H127.333V3.07812H89.3333V1.53906ZM89.3333 4.61719H127.333V6.15234H89.3333V4.61719ZM89.3333 7.69141H127.333V9.23047H89.3333V7.69141ZM89.3333 10.7695H127.333V12.3086H89.3333V10.7695ZM89.3333 13.8477H127.333V15.3867H89.3333V13.8477ZM89.3333 16.9219H127.333V18.4609H89.3333V16.9219Z" fill="white"/>
<path fill-rule="evenodd" clip-rule="evenodd" d="M89.3333 0H104.532V10.7695H89.3333V0Z" fill="#192F5D"/>
<path fill-rule="evenodd" clip-rule="evenodd" d="M90.5989 0.460938L90.7395 0.886719H91.1848L90.8254 1.14844L90.9622 1.57812L90.5989 1.3125L90.2395 1.57422L90.3762 1.14844L90.0129 0.886719H90.4661L90.5989 0.460938ZM93.134 0.460938L93.2708 0.886719H93.72L93.3567 1.14844L93.4934 1.57812L93.134 1.3125L92.7708 1.57422L92.9075 1.14844L92.5481 0.886719H92.9934L93.134 0.460938ZM95.6653 0.460938L95.8059 0.886719H96.2473L95.8879 1.14844L96.0247 1.57812L95.6614 1.3125L95.302 1.57422L95.4387 1.14844L95.0754 0.886719H95.5247L95.6653 0.460938ZM98.2004 0.460938L98.3372 0.886719H98.7864L98.4231 1.14844L98.5637 1.57812L98.2004 1.3125L97.8372 1.57422L97.9778 1.14844L97.6145 0.886719H98.0598L98.2004 0.460938ZM100.732 0.460938L100.872 0.886719H101.318L100.958 1.14844L101.095 1.57812L100.732 1.3125L100.372 1.57422L100.509 1.14844L100.15 0.886719H100.595L100.732 0.460938ZM103.267 0.460938L103.404 0.886719H103.853L103.49 1.14844L103.63 1.57812L103.267 1.3125L102.904 1.57422L103.044 1.14844L102.681 0.886719H103.13L103.267 0.460938ZM91.8684 1.53906L92.0051 1.96484H92.4543L92.0911 2.22656L92.2239 2.65234L91.8723 2.39062L91.509 2.65234L91.6379 2.22656L91.2864 1.96484H91.7317L91.8684 1.53906ZM94.3997 1.53906L94.5403 1.96484H94.9856L94.6223 2.22656L94.7629 2.65234L94.3997 2.39062L94.0364 2.65234L94.177 2.22656L93.8137 1.96484H94.2629L94.3997 1.53906ZM96.9348 1.53906L97.0715 1.96484H97.5208L97.1575 2.22656L97.2942 2.65234L96.9348 2.39062L96.5715 2.65234L96.7083 2.22656L96.3489 1.96484H96.7942L96.9348 1.53906ZM99.4661 1.53906L99.6067 1.96484H100.052L99.6887 2.22656L99.8293 2.65234L99.4661 2.39062L99.1067 2.65234L99.2434 2.22656L98.8801 1.96484H99.3333L99.4661 1.53906ZM102.001 1.53906L102.138 1.96484H102.587L102.224 2.22656L102.361 2.65234L102.001 2.39062L101.638 2.65234L101.775 2.22656L101.415 1.96484H101.861L102.001 1.53906ZM90.5989 2.61328L90.7395 3.04687H91.1848L90.8254 3.30859L90.9622 3.73437L90.5989 3.46875L90.2395 3.73437L90.3762 3.30469L90.0129 3.04297H90.4661L90.5989 2.61328ZM93.134 2.61328L93.2708 3.04297H93.72L93.3567 3.30469L93.4934 3.73047L93.134 3.46484L92.7708 3.73047L92.9075 3.30078L92.5481 3.03906H92.9934L93.134 2.61328ZM95.6653 2.61328L95.8059 3.04297H96.2473L95.8879 3.30469L96.0247 3.73047L95.6614 3.46484L95.302 3.73047L95.4387 3.30078L95.0754 3.03906H95.5247L95.6653 2.61328ZM98.2004 2.61328L98.3372 3.04297H98.7864L98.4231 3.30469L98.5637 3.73047L98.2004 3.46484L97.8372 3.73047L97.9778 3.30078L97.6145 3.03906H98.0598L98.2004 2.61328ZM100.732 2.61328L100.872 3.04297H101.318L100.958 3.30469L101.095 3.73047L100.732 3.46484L100.372 3.73047L100.509 3.30078L100.15 3.03906H100.595L100.732 2.61328ZM103.267 2.61328L103.404 3.04297H103.853L103.49 3.30469L103.63 3.73047L103.267 3.46484L102.904 3.73047L103.044 3.30078L102.681 3.03906H103.13L103.267 2.61328ZM91.8684 3.6914L92.0051 4.11719H92.4543L92.0911 4.3789L92.2278 4.80859L91.8684 4.54297L91.5051 4.80469L91.6418 4.3789L91.2825 4.11719H91.7278L91.8684 3.6914ZM94.3997 3.6914L94.5403 4.11719H94.9856L94.6223 4.3789L94.7629 4.80859L94.3997 4.54297L94.0364 4.80469L94.177 4.3789L93.8137 4.11719H94.2629L94.3997 3.6914ZM96.9348 3.6914L97.0715 4.11719H97.5208L97.1575 4.3789L97.2942 4.80859L96.9348 4.54297L96.5715 4.80469L96.7083 4.3789L96.3489 4.11719H96.7942L96.9348 3.6914ZM99.4661 3.6914L99.6067 4.11719H100.052L99.6926 4.3789L99.8293 4.80859L99.4661 4.54297L99.1067 4.80469L99.2434 4.3789L98.8801 4.11719H99.3333L99.4661 3.6914ZM102.001 3.6914L102.138 4.11719H102.587L102.224 4.3789L102.361 4.80859L102.001 4.54297L101.638 4.80469L101.775 4.3789L101.415 4.11719H101.861L102.001 3.6914ZM90.5989 4.76953L90.7395 5.19531H91.1848L90.8254 5.45703L90.9622 5.88672L90.5989 5.62109L90.2395 5.88281L90.3762 5.45703L90.0129 5.19531H90.4661L90.5989 4.76953ZM93.134 4.76953L93.2708 5.19531H93.72L93.3567 5.45703L93.4934 5.88281L93.134 5.62109L92.7708 5.88281L92.9075 5.45703L92.5481 5.19531H92.9934L93.134 4.76953ZM95.6653 4.76953L95.8059 5.19531H96.2473L95.8879 5.45703L96.0247 5.88672L95.6614 5.62109L95.302 5.88281L95.4387 5.45703L95.0754 5.19531H95.5247L95.6653 4.76953ZM98.2004 4.76953L98.3372 5.19531H98.7864L98.4231 5.45703L98.5637 5.88672L98.2004 5.62109L97.8372 5.88281L97.9778 5.45703L97.6145 5.19531H98.0598L98.2004 4.76953ZM100.732 4.76953L100.872 5.19531H101.318L100.958 5.45703L101.095 5.88672L100.732 5.62109L100.372 5.88281L100.509 5.45703L100.15 5.19531H100.595L100.732 4.76953ZM103.267 4.76953L103.404 5.19531H103.853L103.49 5.45703L103.63 5.88672L103.267 5.62109L102.904 5.88281L103.044 5.45703L102.681 5.19531H103.13L103.267 4.76953ZM91.8684 5.84765L92.0051 6.27343H92.4543L92.0911 6.53515L92.2278 6.96093L91.8684 6.69531L91.5051 6.96093L91.6418 6.53125L91.2825 6.26953H91.7278L91.8684 5.84765ZM94.3997 5.84765L94.5403 6.27343H94.9856L94.6223 6.53515L94.7629 6.96093L94.3997 6.69531L94.0364 6.96093L94.177 6.53125L93.8137 6.26953H94.2629L94.3997 5.84765ZM96.9348 5.84765L97.0715 6.27343H97.5208L97.1575 6.53515L97.2942 6.96093L96.9348 6.69531L96.5715 6.96093L96.7083 6.53125L96.3489 6.26953H96.7942L96.9348 5.84765ZM99.4661 5.84765L99.6067 6.27343H100.052L99.6926 6.53515L99.8293 6.96093L99.4661 6.69531L99.1067 6.96093L99.2434 6.53125L98.8801 6.26953H99.3333L99.4661 5.84765ZM102.001 5.84765L102.138 6.27343H102.587L102.224 6.53515L102.361 6.96093L102.001 6.69531L101.638 6.96093L101.775 6.53125L101.415 6.26953H101.861L102.001 5.84765ZM90.5989 6.92187L90.7395 7.35156H91.1848L90.8254 7.61328L90.9622 8.03515L90.5989 7.77343L90.2395 8.03515L90.3762 7.60937L90.0129 7.34765H90.4661L90.5989 6.92187ZM93.134 6.92187L93.2708 7.35156H93.72L93.3567 7.61328L93.4973 8.03515L93.134 7.77343L92.7708 8.03515L92.9114 7.60937L92.5481 7.34765H92.9934L93.134 6.92187ZM95.6653 6.92187L95.8059 7.35156H96.2473L95.8879 7.61328L96.0247 8.03515L95.6614 7.77343L95.302 8.03515L95.4387 7.60937L95.0754 7.34765H95.5247L95.6653 6.92187ZM98.2004 6.92187L98.3372 7.35156H98.7864L98.4231 7.61328L98.5637 8.03515L98.2004 7.77343L97.8372 8.03515L97.9778 7.60937L97.6145 7.34765H98.0598L98.2004 6.92187ZM100.732 6.92187L100.872 7.35156H101.318L100.958 7.61328L101.095 8.03515L100.732 7.77343L100.372 8.03515L100.509 7.60937L100.15 7.34765H100.595L100.732 6.92187ZM103.267 6.92187L103.404 7.35156H103.853L103.49 7.61328L103.63 8.03515L103.267 7.77343L102.904 8.03515L103.044 7.60937L102.681 7.34765H103.13L103.267 6.92187ZM91.8684 8L92.0051 8.42578H92.4543L92.0911 8.6875L92.2278 9.11718L91.8684 8.85156L91.5051 9.11328L91.6418 8.6875L91.2825 8.42578H91.7278L91.8684 8ZM94.3997 8L94.5403 8.42578H94.9856L94.6223 8.6875L94.7629 9.11718L94.3997 8.85156L94.0364 9.11328L94.177 8.6875L93.8137 8.42578H94.2629L94.3997 8ZM96.9348 8L97.0715 8.42578H97.5208L97.1575 8.6875L97.2942 9.11718L96.9348 8.85156L96.5715 9.11328L96.7083 8.6875L96.3489 8.42578H96.7942L96.9348 8ZM99.4661 8L99.6067 8.42578H100.052L99.6926 8.6875L99.8293 9.11718L99.4661 8.85156L99.1067 9.11328L99.2434 8.6875L98.8801 8.42578H99.3333L99.4661 8ZM102.001 8L102.138 8.42578H102.587L102.224 8.6875L102.361 9.11718L102.001 8.85156L101.638 9.11328L101.775 8.6875L101.415 8.42578H101.861L102.001 8ZM90.5989 9.07812L90.7395 9.5039H91.1848L90.8254 9.76562L90.9622 10.1914L90.5989 9.92968L90.2395 10.1914L90.3762 9.76171L90.0129 9.5H90.4661L90.5989 9.07812ZM93.134 9.07812L93.2708 9.5039H93.72L93.3567 9.76562L93.4973 10.1914L93.134 9.92968L92.7708 10.1914L92.9114 9.76171L92.5481 9.5H92.9934L93.134 9.07812ZM95.6653 9.07812L95.8059 9.5039H96.2473L95.8958 9.76562L96.0325 10.1914L95.6692 9.92968L95.3098 10.1914L95.4465 9.76171L95.0833 9.5H95.5325L95.6653 9.07812ZM98.2004 9.07812L98.3372 9.5039H98.7864L98.4231 9.76562L98.5637 10.1914L98.2004 9.92968L97.8372 10.1914L97.9778 9.76171L97.6145 9.5H98.0598L98.2004 9.07812ZM100.732 9.07812L100.872 9.5039H101.318L100.958 9.76562L101.095 10.1914L100.732 9.92968L100.372 10.1914L100.509 9.76171L100.15 9.5H100.595L100.732 9.07812ZM103.267 9.07812L103.404 9.5039H103.853L103.49 9.76562L103.63 10.1914L103.267 9.92968L102.904 10.1914L103.044 9.76171L102.681 9.5H103.13L103.267 9.07812Z" fill="white"/>
</g>
<g clip-path="url(#clip3)">
<path d="M134 0H160.667V20H134V0Z" fill="#74ACDF"/>
<path d="M134 6.6665H160.667V13.3332H134V6.6665Z" fill="white"/>
<path d="M147.205 10.0522L148.345 12.5322C148.345 12.5322 148.365 12.5802 148.397 12.5682C148.429 12.5522 148.409 12.5082 148.409 12.5082L147.461 9.94824L147.205 10.0522ZM147.433 10.9122C147.417 11.2882 147.649 11.4962 147.621 11.8322C147.589 12.1722 147.773 12.3602 147.821 12.4922C147.861 12.6242 147.769 12.7002 147.809 12.7202C147.849 12.7402 147.929 12.6362 147.905 12.4482C147.877 12.2642 147.737 12.2082 147.769 11.7962C147.801 11.3842 147.601 11.2882 147.649 10.9162" fill="#F6B40E"/>
<path d="M147.433 10.9122C147.417 11.2882 147.649 11.4962 147.621 11.8322C147.589 12.1722 147.773 12.3602 147.821 12.4922C147.861 12.6242 147.769 12.7002 147.809 12.7202C147.849 12.7402 147.929 12.6362 147.905 12.4482C147.877 12.2642 147.737 12.2082 147.769 11.7962C147.801 11.3842 147.601 11.2882 147.649 10.9162M147.205 10.0522L148.345 12.5322C148.345 12.5322 148.365 12.5802 148.397 12.5682C148.429 12.5522 148.409 12.5082 148.409 12.5082L147.461 9.94824L147.205 10.0522Z" stroke="#85340A" stroke-width="1.056"/>
<path d="M147.505 10.9761C147.525 11.3361 147.729 11.4961 147.689 11.8281C147.777 11.5681 147.565 11.3641 147.577 10.9801L147.505 10.9761ZM147.269 10.0281L148.049 11.7321L147.397 9.97607" fill="#85340A"/>
<path d="M147.334 11.1122C147.948 11.1122 148.446 10.6141 148.446 9.99971C148.446 9.38529 147.948 8.88721 147.334 8.88721C146.719 8.88721 146.221 9.38529 146.221 9.99971C146.221 10.6141 146.719 11.1122 147.334 11.1122Z" fill="#F6B40E" stroke="#85340A" stroke-width="1.4"/>
<path d="M147.712 9.76221C147.637 9.76221 147.562 9.79554 147.521 9.86221C147.604 9.94137 147.796 9.94554 147.925 9.85387C147.898 9.8249 147.865 9.80183 147.828 9.78606C147.792 9.7703 147.752 9.76218 147.712 9.76221ZM147.712 9.77887C147.783 9.77887 147.854 9.81221 147.862 9.84554C147.779 9.94137 147.642 9.92887 147.554 9.86221C147.571 9.83566 147.594 9.81399 147.622 9.79936C147.65 9.78474 147.681 9.77767 147.712 9.77887Z" fill="#843511"/>
<path d="M147.166 10.1541C147.153 10.1554 147.14 10.1601 147.129 10.1678C147.118 10.1755 147.109 10.1858 147.103 10.1979C147.097 10.2099 147.095 10.2233 147.095 10.2367C147.096 10.2501 147.1 10.2632 147.107 10.2746C147.114 10.286 147.124 10.2954 147.136 10.302C147.148 10.3085 147.161 10.312 147.174 10.312C147.188 10.312 147.201 10.3086 147.213 10.3022C147.224 10.2957 147.234 10.2863 147.241 10.2749C147.269 10.292 147.301 10.3006 147.333 10.2999H147.341C147.375 10.3017 147.409 10.293 147.437 10.2749C147.445 10.2855 147.455 10.294 147.467 10.2996C147.479 10.3053 147.492 10.308 147.505 10.3074C147.518 10.3068 147.531 10.303 147.542 10.2963C147.553 10.2896 147.562 10.2802 147.569 10.269C147.576 10.2578 147.58 10.2451 147.58 10.2321C147.581 10.219 147.578 10.206 147.573 10.1942C147.567 10.1824 147.559 10.1722 147.548 10.1644C147.538 10.1567 147.525 10.1517 147.512 10.1499C147.533 10.1624 147.546 10.1791 147.546 10.2041C147.546 10.2291 147.525 10.2541 147.496 10.2541C147.482 10.2541 147.47 10.2488 147.46 10.2394C147.451 10.23 147.446 10.2173 147.446 10.2041C147.436 10.2246 147.42 10.2421 147.401 10.2546C147.382 10.2671 147.36 10.2741 147.337 10.2749C147.315 10.2734 147.294 10.266 147.276 10.2536C147.257 10.2411 147.243 10.224 147.233 10.2041C147.233 10.211 147.232 10.2179 147.229 10.2242C147.226 10.2306 147.222 10.2363 147.217 10.241C147.212 10.2457 147.206 10.2493 147.199 10.2515C147.193 10.2538 147.186 10.2546 147.179 10.2541C147.154 10.2541 147.129 10.2291 147.129 10.2041C147.129 10.1791 147.141 10.1624 147.162 10.1541H147.166ZM147.25 10.3832C147.162 10.3832 147.125 10.4582 147.05 10.5082C147.091 10.4916 147.129 10.4582 147.187 10.4249C147.246 10.3916 147.3 10.4332 147.333 10.4332C147.366 10.4332 147.416 10.3916 147.479 10.4249C147.537 10.4582 147.575 10.4916 147.616 10.5082C147.537 10.4582 147.504 10.3832 147.416 10.3832C147.387 10.3862 147.359 10.3947 147.333 10.4082C147.308 10.3932 147.279 10.3833 147.25 10.3791V10.3832Z" fill="#85340A"/>
<path d="M147.217 10.4835C147.184 10.4835 147.142 10.4918 147.075 10.5085C147.229 10.4752 147.263 10.5293 147.334 10.5293C147.4 10.5293 147.434 10.4752 147.588 10.5085C147.421 10.4585 147.384 10.4918 147.334 10.4918C147.3 10.4918 147.275 10.4793 147.217 10.4835Z" fill="#85340A"/>
<path d="M147.083 10.5085H147.05C147.229 10.5294 147.146 10.6335 147.333 10.6335C147.521 10.6335 147.437 10.5294 147.616 10.5085C147.429 10.4919 147.487 10.6044 147.333 10.6044C147.187 10.6044 147.233 10.5085 147.083 10.5085ZM147.487 10.7877C147.487 10.7468 147.471 10.7076 147.442 10.6787C147.413 10.6498 147.374 10.6335 147.333 10.6335C147.292 10.6335 147.253 10.6498 147.224 10.6787C147.195 10.7076 147.179 10.7468 147.179 10.7877C147.187 10.7529 147.207 10.7219 147.235 10.6997C147.263 10.6775 147.297 10.6654 147.333 10.6654C147.369 10.6654 147.404 10.6775 147.432 10.6997C147.46 10.7219 147.479 10.7529 147.487 10.7877Z" fill="#85340A"/>
<path d="M146.642 9.76253C146.838 9.5917 147.088 9.56254 147.225 9.6917C147.257 9.73457 147.279 9.7846 147.288 9.83753C147.304 9.93337 147.275 10.0375 147.2 10.1459L147.234 10.1625C147.299 10.0431 147.322 9.9052 147.3 9.77087C147.295 9.73824 147.286 9.70617 147.275 9.67503C147.088 9.52087 146.829 9.50837 146.642 9.75837V9.76253Z" fill="#85340A"/>
<path d="M146.95 9.7085C147.062 9.7085 147.087 9.73766 147.137 9.77933C147.187 9.82099 147.216 9.81266 147.221 9.82099C147.233 9.82933 147.221 9.85433 147.208 9.84599C147.187 9.83766 147.154 9.82099 147.104 9.77933C147.054 9.73766 147 9.73766 146.95 9.73766C146.796 9.73766 146.712 9.86266 146.691 9.85433C146.679 9.84599 146.779 9.7085 146.95 9.7085Z" fill="#85340A"/>
<path d="M146.954 9.92494C146.998 9.92494 147.033 9.88949 147.033 9.84577C147.033 9.80205 146.998 9.7666 146.954 9.7666C146.91 9.7666 146.875 9.80205 146.875 9.84577C146.875 9.88949 146.91 9.92494 146.954 9.92494Z" fill="#85340A"/>
<path d="M146.746 9.89606C146.892 10.0086 147.038 10.0002 147.121 9.95023C147.204 9.89606 147.204 9.87939 147.188 9.87939C147.171 9.87939 147.154 9.89606 147.088 9.93356C147.017 9.9669 146.917 9.9669 146.746 9.89606Z" fill="#85340A"/>
</g>
<g clip-path="url(#clip4)">
<path fill-rule="evenodd" clip-rule="evenodd" d="M178.667 0H205.333V20H178.667V0Z" fill="#FFE800"/>
<path fill-rule="evenodd" clip-rule="evenodd" d="M178.667 10H205.333V20H178.667V10Z" fill="#00148E"/>
<path fill-rule="evenodd" clip-rule="evenodd" d="M178.667 15H205.333V20H178.667V15Z" fill="#DA0010"/>
</g>
<g clip-path="url(#clip5)">
<path fill-rule="evenodd" clip-rule="evenodd" d="M223.333 0H250V20H223.333V0Z" fill="#FFE800"/>
<path fill-rule="evenodd" clip-rule="evenodd" d="M223.333 10H250V20H223.333V10Z" fill="#00148E"/>
<path fill-rule="evenodd" clip-rule="evenodd" d="M223.333 15H250V20H223.333V15Z" fill="#DA0010"/>
<path fill-rule="evenodd" clip-rule="evenodd" d="M234.567 12.117L231.542 15.3045L231.492 15.2378L234.509 12.0503L234.559 12.117H234.567ZM236.667 12.6378L232.717 16.8045L232.65 16.7378L236.596 12.5711L236.667 12.6378Z" fill="black"/>
<path fill-rule="evenodd" clip-rule="evenodd" d="M232.729 16.7559L232.36 17.125L231.939 17.4426L232.256 17.0218L232.626 16.6526L232.729 16.7559Z" fill="#808080" stroke="black" stroke-width="0.485119"/>
<path fill-rule="evenodd" clip-rule="evenodd" d="M231.713 15.1265L231.343 15.4956L230.923 15.8132L231.24 15.3924L231.609 15.0232L231.713 15.1265Z" fill="#808080" stroke="black" stroke-width="0.485119"/>
<path fill-rule="evenodd" clip-rule="evenodd" d="M231.997 4.78271C231.997 4.78271 231.665 13.7587 232.993 13.7587C234.32 13.7587 234.986 12.8147 234.986 12.8147L234.971 7.88138L231.997 4.78271Z" fill="#FFDF00" stroke="black" stroke-width="0.536656"/>
<path fill-rule="evenodd" clip-rule="evenodd" d="M232.809 5.62012C232.809 6.09212 232.661 12.8148 233.325 12.8148C233.989 12.8148 234.986 12.3428 234.986 12.3428L234.971 7.88145L232.809 5.62012Z" fill="#0000C4" stroke="black" stroke-width="0.536656"/>
<path fill-rule="evenodd" clip-rule="evenodd" d="M233.241 6.07373C233.241 6.54573 233.325 11.8711 233.991 11.8711H234.986L234.971 7.88173L233.241 6.07373Z" fill="#E10000" stroke="black" stroke-width="0.536656"/>
<path fill-rule="evenodd" clip-rule="evenodd" d="M231.925 4.83327L234.941 8.02077L234.995 7.9541L231.979 4.7666L231.925 4.83327Z" fill="black"/>
<path fill-rule="evenodd" clip-rule="evenodd" d="M231.013 6.62256C231.013 6.62256 230.157 15.3181 232.724 15.3181C234.862 15.3181 234.862 13.9463 235.29 13.9463L234.862 10.743L231.01 6.62256H231.013Z" fill="#FFDF00" stroke="black" stroke-width="0.599667"/>
<path d="M233.133 8.06805C233.151 8.06668 233.8 6.66185 235.423 5.77264" stroke="black" stroke-width="0.866152"/>
<path fill-rule="evenodd" clip-rule="evenodd" d="M232.867 6.74357C233.093 6.84915 233.236 6.97065 233.366 7.11232C233.107 7.05807 232.974 7.03615 232.748 6.93057C232.521 6.82498 232.349 6.66348 232.211 6.53282C232.38 6.58407 232.639 6.6374 232.867 6.74357Z" fill="#005B00" stroke="black" stroke-width="0.293819"/>
<path fill-rule="evenodd" clip-rule="evenodd" d="M233.435 7.60392C233.451 7.63226 233.437 7.67217 233.402 7.69176C233.367 7.71134 233.324 7.7038 233.307 7.67476C233.29 7.64571 233.305 7.60721 233.341 7.58763C233.376 7.56805 233.418 7.57559 233.435 7.60392Z" fill="#FF0000" stroke="black" stroke-width="0.201525"/>
<path fill-rule="evenodd" clip-rule="evenodd" d="M234.146 5.84438C234.048 6.09325 233.939 6.25725 233.815 6.41025C233.871 6.13338 233.895 5.99125 233.993 5.74238C234.091 5.4935 234.234 5.29375 234.349 5.13475C234.299 5.31675 234.244 5.59413 234.146 5.84438Z" fill="#005B00" stroke="black" stroke-width="0.277001"/>
<path fill-rule="evenodd" clip-rule="evenodd" d="M233.815 5.83162C233.792 6.0805 233.742 6.27325 233.677 6.46875C233.66 6.22687 233.647 6.106 233.67 5.85712C233.693 5.60825 233.762 5.366 233.819 5.172C233.82 5.33962 233.837 5.58137 233.815 5.83162Z" fill="#005B00" stroke="black" stroke-width="0.239169"/>
<path fill-rule="evenodd" clip-rule="evenodd" d="M234.031 6.11638C233.903 6.26721 233.795 6.33263 233.681 6.37513C233.796 6.16596 233.852 6.05471 233.98 5.90388C234.108 5.75305 234.245 5.68221 234.356 5.62721C234.274 5.75451 234.16 5.96471 234.031 6.11638Z" fill="#005B00" stroke="black" stroke-width="0.25978"/>
<path fill-rule="evenodd" clip-rule="evenodd" d="M232.938 6.32677C233.089 6.50777 233.164 6.6821 233.221 6.87477C233.023 6.74044 232.919 6.67777 232.768 6.49677C232.617 6.31577 232.532 6.0891 232.466 5.90643C232.588 6.01127 232.786 6.14477 232.938 6.32677Z" fill="#005B00" stroke="black" stroke-width="0.297259"/>
<path fill-rule="evenodd" clip-rule="evenodd" d="M232.635 7.72176C232.823 7.8726 232.923 8.0281 233.002 8.20376C232.762 8.10426 232.636 8.0596 232.448 7.90876C232.259 7.75793 232.144 7.55393 232.054 7.38926C232.204 7.47151 232.445 7.5701 232.635 7.72176Z" fill="#005B00" stroke="black" stroke-width="0.315609"/>
<path fill-rule="evenodd" clip-rule="evenodd" d="M233.518 7.63912C233.367 7.88045 233.204 8.04262 233.017 8.19562C233.107 7.93095 233.146 7.79545 233.297 7.55412C233.448 7.31279 233.663 7.11445 233.837 6.95645C233.759 7.13137 233.669 7.39645 233.518 7.63912Z" fill="#005B00" stroke="black" stroke-width="0.324222"/>
<path fill-rule="evenodd" clip-rule="evenodd" d="M233.676 7.6296C233.434 7.79551 233.224 7.88185 233 7.94985C233.207 7.73726 233.307 7.62551 233.548 7.4596C233.79 7.29368 234.059 7.19452 234.275 7.11652C234.124 7.24935 233.918 7.46277 233.676 7.6296Z" fill="#005B00" stroke="black" stroke-width="0.311581"/>
<path fill-rule="evenodd" clip-rule="evenodd" d="M235.302 5.89551C235.197 6.01617 235.102 6.08767 235 6.15001C235.087 6.00601 235.129 5.93117 235.234 5.81051C235.34 5.68984 235.462 5.60484 235.56 5.53751C235.495 5.62976 235.409 5.77417 235.302 5.89551Z" fill="#005B00" stroke="black" stroke-width="0.165004"/>
<path fill-rule="evenodd" clip-rule="evenodd" d="M235.074 5.53929C235.013 5.6675 234.949 5.76384 234.875 5.86017C234.912 5.73196 234.928 5.6675 234.989 5.53929C235.049 5.41109 235.134 5.29067 235.203 5.19434C235.171 5.28217 235.134 5.41038 235.074 5.53929Z" fill="#005B00" stroke="black" stroke-width="0.13707"/>
<path fill-rule="evenodd" clip-rule="evenodd" d="M235.427 5.76962C235.321 5.82995 235.242 5.84845 235.162 5.85412C235.268 5.76112 235.321 5.71095 235.427 5.65062C235.532 5.59028 235.631 5.57328 235.711 5.56061C235.638 5.61537 235.533 5.70895 235.427 5.76962Z" fill="#005B00" stroke="black" stroke-width="0.150248"/>
<path fill-rule="evenodd" clip-rule="evenodd" d="M233.969 6.44553C233.781 6.55865 233.626 6.62449 233.464 6.68115C233.637 6.54469 233.721 6.47365 233.91 6.36053C234.098 6.2474 234.295 6.16949 234.453 6.10782C234.331 6.1949 234.159 6.33178 233.969 6.44553Z" fill="#005B00" stroke="black" stroke-width="0.188648"/>
<path fill-rule="evenodd" clip-rule="evenodd" d="M234.52 6.61432C234.271 6.76515 234.059 6.83632 233.836 6.88731C234.054 6.68515 234.161 6.57815 234.41 6.42732C234.659 6.27648 234.929 6.19715 235.147 6.13515C234.988 6.25957 234.77 6.46265 234.52 6.61432Z" fill="#005B00" stroke="black" stroke-width="0.314016"/>
<path d="M232.829 9.05571C232.845 9.04654 232.693 7.72321 233.705 6.34671" stroke="black" stroke-width="0.852572"/>
<path fill-rule="evenodd" clip-rule="evenodd" d="M234.38 6.26652C234.397 6.29485 234.383 6.33477 234.347 6.35435C234.312 6.37394 234.27 6.36639 234.253 6.33735C234.236 6.30831 234.251 6.26981 234.286 6.25023C234.321 6.23065 234.364 6.23819 234.38 6.26652Z" fill="#FF0000" stroke="black" stroke-width="0.201525"/>
<path fill-rule="evenodd" clip-rule="evenodd" d="M234.831 6.00382C234.847 6.03216 234.833 6.07208 234.798 6.09166C234.762 6.11124 234.72 6.1037 234.703 6.07466C234.686 6.04562 234.701 6.00712 234.736 5.98753C234.772 5.96795 234.814 5.97549 234.831 6.00382Z" fill="#FF0000" stroke="black" stroke-width="0.201525"/>
<path fill-rule="evenodd" clip-rule="evenodd" d="M233.575 6.88619C233.586 6.90786 233.565 6.94211 233.526 6.96169C233.486 6.98127 233.445 6.97923 233.433 6.95702C233.421 6.93481 233.444 6.90165 233.483 6.88206C233.522 6.86248 233.563 6.86452 233.575 6.88619Z" fill="#FF0000" stroke="black" stroke-width="0.181701"/>
<path fill-rule="evenodd" clip-rule="evenodd" d="M233.708 6.82808C233.72 6.84975 233.698 6.884 233.659 6.90358C233.619 6.92317 233.578 6.92113 233.566 6.89892C233.554 6.87671 233.577 6.84354 233.616 6.82396C233.655 6.80437 233.696 6.80642 233.708 6.82808Z" fill="#FF0000" stroke="black" stroke-width="0.181701"/>
<path fill-rule="evenodd" clip-rule="evenodd" d="M233.629 6.95308C233.64 6.97475 233.618 7.009 233.579 7.02858C233.54 7.04817 233.499 7.04613 233.487 7.02392C233.475 7.00171 233.497 6.96854 233.536 6.94896C233.576 6.92937 233.617 6.93142 233.629 6.95308Z" fill="#FF0000" stroke="black" stroke-width="0.181701"/>
<path fill-rule="evenodd" clip-rule="evenodd" d="M233.862 6.97084C233.879 7.00418 233.862 7.04584 233.821 7.06668C233.779 7.08751 233.737 7.07501 233.721 7.03751C233.704 7.00001 233.721 6.96251 233.762 6.94168C233.804 6.92084 233.846 6.93334 233.858 6.97084H233.862Z" fill="#FF0000" stroke="black" stroke-width="0.3"/>
<path fill-rule="evenodd" clip-rule="evenodd" d="M233.958 6.87088C233.971 6.90421 233.958 6.94588 233.917 6.96671C233.875 6.98754 233.833 6.97504 233.812 6.94171C233.792 6.90838 233.812 6.86254 233.854 6.84171C233.896 6.82087 233.937 6.83754 233.954 6.87088H233.958Z" fill="#FF0000" stroke="black" stroke-width="0.3"/>
<path fill-rule="evenodd" clip-rule="evenodd" d="M233.979 6.91653C233.996 6.94987 233.979 6.9957 233.938 7.01237C233.896 7.02903 233.854 7.0207 233.838 6.98737C233.821 6.95403 233.838 6.91237 233.879 6.89153C233.921 6.8707 233.963 6.8832 233.979 6.91653Z" fill="#FF0000" stroke="black" stroke-width="0.3"/>
<path fill-rule="evenodd" clip-rule="evenodd" d="M231.868 7.53955C231.868 7.9968 231.012 13.0317 233.154 14.4035C234.009 14.8607 235.292 13.9462 235.292 14.4035L234.865 10.7429L231.868 7.53955Z" fill="#0000C4" stroke="black" stroke-width="0.599667"/>
<path fill-rule="evenodd" clip-rule="evenodd" d="M232.724 8.4541C232.724 8.91135 232.296 12.5719 233.581 13.489C234.437 14.4035 236.578 14.1555 236.578 14.1555L234.865 10.7429L232.724 8.4541Z" fill="#E10000" stroke="black" stroke-width="0.599667"/>
<path fill-rule="evenodd" clip-rule="evenodd" d="M230.992 6.5835L234.942 10.7502L235.013 10.6835L231.063 6.521L230.996 6.58766L230.992 6.5835Z" fill="black"/>
<path fill-rule="evenodd" clip-rule="evenodd" d="M230.384 6.08948L230.634 6.13373L230.708 6.20748C230.698 6.20673 230.782 6.28123 230.679 6.38448C230.575 6.48773 230.428 6.33965 230.428 6.33965C230.428 6.33965 230.473 6.5904 230.621 6.73831C230.769 6.88623 230.945 6.85631 230.945 6.85631C230.945 6.85631 230.777 6.71856 230.901 6.60556C231.025 6.49156 231.078 6.57606 231.078 6.57606L231.225 6.72356L231.329 6.61973L230.739 6.02931L230.695 5.77856L230.314 5.71556L230.384 6.08848L230.384 6.08948Z" fill="#CECECC" stroke="black" stroke-width="0.167332"/>
<path fill-rule="evenodd" clip-rule="evenodd" d="M230.965 4.33843L231.269 4.80876L231.653 4.91243L231.402 5.07468L231.859 5.05993L232.066 5.20785L232.141 5.08918L231.933 4.94085L231.771 4.48293L231.726 4.79335L231.49 4.45301L230.965 4.33735L230.965 4.33843Z" fill="#CECECC" stroke="black" stroke-width="0.180171"/>
<path fill-rule="evenodd" clip-rule="evenodd" d="M232.2 4.62061C232.2 4.64561 232.167 4.66686 232.128 4.66686C232.09 4.66686 232.055 4.64561 232.055 4.62061C232.055 4.59561 232.088 4.57311 232.128 4.57311C232.168 4.57311 232.2 4.59436 232.2 4.62061ZM232.097 4.71936C232.097 5.16686 232.445 7.06686 232.473 7.11311C232.475 7.16936 232.393 7.19311 232.355 7.12436C232.245 6.90686 232.008 5.12436 232 4.70811C231.995 4.53686 232.062 4.52311 232.138 4.52686C232.2 4.52936 232.277 4.57311 232.277 4.62561C232.277 4.68811 232.18 4.73436 232.097 4.71936Z" fill="#E10000" stroke="black" stroke-width="0.34641"/>
<path fill-rule="evenodd" clip-rule="evenodd" d="M232.334 5.06472C232.321 5.08972 232.279 5.10264 232.242 5.09305C232.206 5.08347 232.183 5.05347 232.196 5.02847C232.208 5.00347 232.251 4.9893 232.289 4.9993C232.327 5.0093 232.347 5.03847 232.334 5.06472ZM232.186 5.13764C232.301 6.03638 231.915 7.4243 231.918 7.47888C231.892 7.5343 231.802 7.53888 231.801 7.4593C231.782 7.40763 232.226 6.15388 232.1 5.10222C232.181 4.92972 232.251 4.93264 232.322 4.95555C232.379 4.97347 232.43 5.03639 232.404 5.08889C232.373 5.15139 232.258 5.17347 232.186 5.13764Z" fill="#0000C4" stroke="black" stroke-width="0.363036"/>
<path fill-rule="evenodd" clip-rule="evenodd" d="M231.113 6.31231C231.113 6.35398 231.071 6.39564 231.021 6.39564C230.971 6.39564 230.929 6.35398 230.929 6.31231C230.929 6.27064 230.971 6.23731 231.021 6.23731C231.071 6.23731 231.109 6.27064 231.109 6.31231H231.113ZM230.979 6.47898C230.979 7.22481 231.417 10.3915 231.45 10.4706C231.45 10.5623 231.354 10.604 231.304 10.4873C231.167 10.1248 230.871 7.15398 230.859 6.46231C230.854 6.17481 230.938 6.15398 231.034 6.15814C231.113 6.16231 231.204 6.23731 231.204 6.32481C231.204 6.42481 231.084 6.50398 230.979 6.47898Z" fill="#E10000" stroke="black" stroke-width="0.7"/>
<path fill-rule="evenodd" clip-rule="evenodd" d="M231.337 6.69708C231.32 6.73708 231.266 6.75858 231.22 6.7442C231.174 6.72983 231.146 6.6827 231.163 6.6427C231.18 6.6027 231.235 6.5792 231.283 6.5942C231.331 6.6092 231.355 6.65508 231.337 6.69708ZM231.147 6.81633C231.266 8.2412 230.732 10.4547 230.734 10.5413C230.7 10.63 230.585 10.6393 230.586 10.513C230.563 10.4313 231.167 8.42958 231.039 6.76208C231.147 6.4862 231.236 6.4892 231.326 6.52395C231.398 6.55108 231.461 6.64983 231.426 6.73383C231.384 6.83383 231.237 6.87158 231.147 6.81633Z" fill="#0000C4" stroke="black" stroke-width="0.511374"/>
<path fill-rule="evenodd" clip-rule="evenodd" d="M238.767 12.117L241.787 15.3045L241.842 15.2378L238.821 12.0503L238.767 12.117ZM236.667 12.6378L240.617 16.8045L240.683 16.7378L236.737 12.5711L236.667 12.6378Z" fill="black"/>
<path fill-rule="evenodd" clip-rule="evenodd" d="M240.604 16.7559L240.973 17.125L241.394 17.4426L241.077 17.0218L240.707 16.6526L240.604 16.7559Z" fill="#808080" stroke="black" stroke-width="0.485119"/>
<path fill-rule="evenodd" clip-rule="evenodd" d="M241.621 15.1265L241.99 15.4956L242.411 15.8132L242.094 15.3924L241.724 15.0232L241.621 15.1265Z" fill="#808080" stroke="black" stroke-width="0.485119"/>
<path fill-rule="evenodd" clip-rule="evenodd" d="M241.336 4.7832C241.336 4.7832 241.668 13.7592 240.34 13.7592C239.013 13.7592 238.347 12.8152 238.347 12.8152L238.362 7.88187L241.336 4.7832Z" fill="#FFDF00" stroke="black" stroke-width="0.536656"/>
<path fill-rule="evenodd" clip-rule="evenodd" d="M240.524 5.62061C240.524 6.09261 240.672 12.8153 240.008 12.8153C239.345 12.8153 238.347 12.3433 238.347 12.3433L238.362 7.88194L240.524 5.62061Z" fill="#0000C4" stroke="black" stroke-width="0.536656"/>
<path fill-rule="evenodd" clip-rule="evenodd" d="M240.093 6.07373C240.093 6.54573 240.008 11.8711 239.343 11.8711H238.347L238.362 7.88173L240.093 6.07373Z" fill="#E10000" stroke="black" stroke-width="0.536656"/>
<path fill-rule="evenodd" clip-rule="evenodd" d="M241.408 4.83327L238.392 8.02077L238.337 7.9541L241.354 4.7666L241.408 4.83327Z" fill="black"/>
<path fill-rule="evenodd" clip-rule="evenodd" d="M239.027 7.29527C239.027 7.29527 239.873 8.38027 240.281 9.21881C240.689 10.0591 241.165 11.3395 241.165 11.3395C241.165 11.3395 240.893 10.0789 240.379 9.06831C239.707 7.79693 239.027 7.3676 239.027 7.29527Z" fill="#005B00" stroke="black" stroke-width="0.250402"/>
<path fill-rule="evenodd" clip-rule="evenodd" d="M238.998 6.433C238.998 6.433 239.942 7.77488 240.372 8.77009C240.803 9.76717 241.282 11.2618 241.282 11.2618C241.282 11.2618 241.049 9.82384 240.504 8.62071C239.785 7.10259 238.992 6.5128 238.998 6.433Z" fill="#005B00" stroke="black" stroke-width="0.289336"/>
<path fill-rule="evenodd" clip-rule="evenodd" d="M239.812 5.10624C239.812 5.10624 240.48 7.09333 240.683 8.32208C240.886 9.55191 241.009 11.2444 241.009 11.2444C241.009 11.2444 241.138 9.82391 240.865 8.31599C240.488 6.38541 239.785 5.16783 239.812 5.10624Z" fill="#005B00" stroke="black" stroke-width="0.328642"/>
<path fill-rule="evenodd" clip-rule="evenodd" d="M239.213 5.01569C239.213 5.01569 240.138 6.7804 240.498 7.97961C240.857 9.18052 241.195 10.9131 241.195 10.9131C241.195 10.9131 241.146 9.33919 240.681 7.8794C240.057 6.02494 239.193 5.09531 239.213 5.01569Z" fill="#005B00" stroke="black" stroke-width="0.333022"/>
<path fill-rule="evenodd" clip-rule="evenodd" d="M240.323 5.57701C240.323 5.57701 240.783 7.47701 240.899 8.61055C241.013 9.74484 241.046 11.2753 241.046 11.2753C241.046 11.2753 241.206 10.0367 241.045 8.64105C240.817 6.84867 240.298 5.62634 240.323 5.57701Z" fill="#005B00" stroke="black" stroke-width="0.29533"/>
<path fill-rule="evenodd" clip-rule="evenodd" d="M239.107 5.62939C239.107 5.62939 240.002 7.14106 240.364 8.19773C240.725 9.25606 241.08 10.8027 241.08 10.8027C241.08 10.8027 240.994 9.36939 240.529 8.08606C239.908 6.45939 239.091 5.70439 239.107 5.62939Z" fill="#005B00" stroke="black" stroke-width="0.303741"/>
<path fill-rule="evenodd" clip-rule="evenodd" d="M238.94 6.68199C238.94 6.68199 239.883 7.88036 240.314 8.79815C240.744 9.71782 241.223 11.1142 241.223 11.1142C241.223 11.1142 240.991 9.74615 240.445 8.63928C239.727 7.2459 238.934 6.75994 238.94 6.68199Z" fill="#005B00" stroke="black" stroke-width="0.286139"/>
<path fill-rule="evenodd" clip-rule="evenodd" d="M239.062 6.13177C239.062 6.13177 239.931 7.54157 240.308 8.56136C240.686 9.58294 241.087 11.0984 241.087 11.0984C241.087 11.0984 240.927 9.66228 240.445 8.42707C239.808 6.86553 239.053 6.20965 239.062 6.13177Z" fill="#005B00" stroke="black" stroke-width="0.285525"/>
<path fill-rule="evenodd" clip-rule="evenodd" d="M240.002 5.13654C240.002 5.13654 240.561 7.082 240.699 8.2702C240.836 9.45937 240.872 11.085 240.872 11.085C240.872 11.085 241.071 9.73704 240.879 8.27725C240.604 6.40629 239.972 5.19341 240.002 5.13654Z" fill="#005B00" stroke="black" stroke-width="0.31946"/>
<path fill-rule="evenodd" clip-rule="evenodd" d="M239.236 4.65147C239.236 4.65147 240.051 6.48409 240.346 7.70789C240.64 8.9333 240.89 10.6867 240.89 10.6867C240.89 10.6867 240.912 9.11463 240.527 7.62276C240.006 5.72489 239.213 4.72918 239.236 4.65147Z" fill="#005B00" stroke="black" stroke-width="0.328432"/>
<path fill-rule="evenodd" clip-rule="evenodd" d="M240.534 5.71617C240.534 5.71617 240.885 7.54058 240.935 8.62129C240.985 9.70266 240.93 11.1557 240.93 11.1557C240.93 11.1557 241.16 9.98883 241.08 8.65737C240.955 6.94633 240.506 5.76175 240.534 5.71617Z" fill="#005B00" stroke="black" stroke-width="0.283968"/>
<path fill-rule="evenodd" clip-rule="evenodd" d="M239.132 5.40727C239.132 5.40727 239.947 6.98685 240.242 8.0681C240.536 9.15093 240.786 10.7184 240.786 10.7184C240.786 10.7184 240.808 9.28693 240.423 7.97152C239.902 6.30143 239.109 5.48035 239.132 5.40727Z" fill="#005B00" stroke="black" stroke-width="0.310375"/>
<path fill-rule="evenodd" clip-rule="evenodd" d="M242.321 6.62256C242.321 6.62256 243.176 15.3181 240.61 15.3181C238.471 15.3181 238.471 13.9463 238.043 13.9463L238.471 10.743L242.323 6.62256H242.321Z" fill="#FFDF00" stroke="black" stroke-width="0.599667"/>
<path fill-rule="evenodd" clip-rule="evenodd" d="M241.465 7.53955C241.465 7.9968 242.321 13.0317 240.179 14.4035C239.324 14.8607 238.041 13.9462 238.041 14.4035L238.468 10.7429L241.465 7.53955Z" fill="#0000C4" stroke="black" stroke-width="0.599667"/>
<path fill-rule="evenodd" clip-rule="evenodd" d="M240.61 8.4541C240.61 8.91135 241.037 12.5719 239.752 13.489C238.896 14.4035 236.755 14.1555 236.755 14.1555L238.469 10.7429L240.61 8.4541Z" fill="#E10000" stroke="black" stroke-width="0.599667"/>
<path fill-rule="evenodd" clip-rule="evenodd" d="M242.341 6.5835L238.391 10.7502L238.321 10.6835L242.271 6.521L242.341 6.58766V6.5835Z" fill="black"/>
<path fill-rule="evenodd" clip-rule="evenodd" d="M242.949 6.08948L242.698 6.13373L242.624 6.20748C242.634 6.20673 242.551 6.28123 242.654 6.38448C242.757 6.48773 242.904 6.33965 242.904 6.33965C242.904 6.33965 242.86 6.5904 242.712 6.73831C242.564 6.88623 242.387 6.85631 242.387 6.85631C242.387 6.85631 242.555 6.71856 242.432 6.60556C242.308 6.49156 242.255 6.57606 242.255 6.57606L242.107 6.72356L242.003 6.61973L242.594 6.02931L242.638 5.77856L243.018 5.71556L242.949 6.08848L242.949 6.08948Z" fill="#CECECC" stroke="black" stroke-width="0.167332"/>
<path fill-rule="evenodd" clip-rule="evenodd" d="M242.367 4.33843L242.064 4.80876L241.68 4.91243L241.93 5.07468L241.473 5.05993L241.266 5.20785L241.192 5.08918L241.4 4.94085L241.561 4.48293L241.606 4.79335L241.842 4.45301L242.367 4.33735L242.367 4.33843Z" fill="#CECECC" stroke="black" stroke-width="0.180171"/>
<path fill-rule="evenodd" clip-rule="evenodd" d="M241.137 4.6211C241.137 4.6461 241.17 4.66735 241.209 4.66735C241.247 4.66735 241.282 4.6461 241.282 4.6211C241.282 4.5961 241.249 4.5736 241.209 4.5736C241.169 4.5736 241.137 4.59485 241.137 4.6211ZM241.24 4.71985C241.24 5.16735 240.892 7.06735 240.864 7.1136C240.862 7.16985 240.944 7.1936 240.982 7.12485C241.092 6.90735 241.329 5.12485 241.337 4.7086C241.342 4.53735 241.275 4.5236 241.199 4.52735C241.137 4.52985 241.06 4.5736 241.06 4.6261C241.06 4.6886 241.157 4.73485 241.24 4.71985Z" fill="#E10000" stroke="black" stroke-width="0.34641"/>
<path fill-rule="evenodd" clip-rule="evenodd" d="M241 5.06472C241.012 5.08972 241.054 5.10264 241.091 5.09305C241.127 5.08347 241.15 5.05347 241.137 5.02847C241.125 5.00347 241.082 4.9893 241.044 4.9993C241.006 5.0093 240.987 5.03847 241 5.06472ZM241.147 5.13764C241.032 6.03639 241.418 7.4243 241.415 7.47888C241.441 7.5343 241.531 7.53889 241.532 7.4593C241.551 7.40764 241.107 6.15389 241.233 5.10222C241.153 4.92972 241.082 4.93264 241.011 4.95555C240.954 4.97347 240.903 5.03639 240.929 5.08889C240.961 5.15139 241.076 5.17347 241.147 5.13764Z" fill="#0000C4" stroke="black" stroke-width="0.363036"/>
<path fill-rule="evenodd" clip-rule="evenodd" d="M242.225 6.31231C242.225 6.35398 242.266 6.39564 242.312 6.39564C242.362 6.39564 242.404 6.35398 242.404 6.31231C242.404 6.27064 242.362 6.23731 242.312 6.23731C242.262 6.23731 242.225 6.27064 242.225 6.31231ZM242.35 6.47898C242.25 7.81547 242.094 9.14719 241.883 10.4706C241.883 10.5623 241.979 10.604 242.029 10.4873C242.166 10.1248 242.462 7.15398 242.475 6.46231C242.479 6.17481 242.396 6.15398 242.3 6.15814C242.221 6.16231 242.129 6.23731 242.129 6.32481C242.129 6.42481 242.25 6.50398 242.354 6.47898H242.35Z" fill="#E10000" stroke="black" stroke-width="0.7"/>
<path fill-rule="evenodd" clip-rule="evenodd" d="M241.995 6.69757C242.012 6.73757 242.066 6.75907 242.112 6.74469C242.158 6.73032 242.186 6.68319 242.169 6.64319C242.153 6.60319 242.098 6.57969 242.05 6.59469C242.002 6.60969 241.978 6.65557 241.995 6.69757ZM242.185 6.81682C242.067 8.24169 242.6 10.4552 242.598 10.5418C242.633 10.6304 242.747 10.6398 242.747 10.5134C242.769 10.4318 242.166 8.43007 242.294 6.76257C242.186 6.48669 242.096 6.48969 242.007 6.52444C241.935 6.55157 241.872 6.65032 241.907 6.73432C241.948 6.83432 242.095 6.87207 242.185 6.81682Z" fill="#0000C4" stroke="black" stroke-width="0.511374"/>
<path fill-rule="evenodd" clip-rule="evenodd" d="M235.294 17.6064C235.49 17.7263 235.711 17.7894 235.936 17.7894C236.161 17.7894 236.382 17.7263 236.578 17.6064V13.9458H235.722C236.15 15.3175 236.15 16.6919 235.292 17.6064H235.294Z" fill="#E10000" stroke="black" stroke-width="0.599667"/>
<path fill-rule="evenodd" clip-rule="evenodd" d="M235.972 14.0268C235.972 16.6081 235.353 17.1827 235.353 17.7018C235.611 17.7018 235.783 17.4598 235.972 17.1273C236.23 16.6081 236.255 13.986 236.23 14.0268H235.972Z" fill="#0000C4" stroke="black" stroke-width="0.494975"/>
<path fill-rule="evenodd" clip-rule="evenodd" d="M235.456 14.0268C235.443 15.5347 234.803 16.9318 234.924 17.2409C235.061 17.518 235.456 16.608 235.972 17.1243C236.23 16.608 236.255 13.9859 236.23 14.0238H235.456V14.0268Z" fill="#0000C4" stroke="black" stroke-width="0.494975"/>
<path fill-rule="evenodd" clip-rule="evenodd" d="M235.514 13.807C235.514 15.5032 234.92 15.6163 234.92 16.0686C235.178 16.0686 235.512 15.8214 235.514 15.8444C235.772 15.5032 235.797 13.7801 235.772 13.807H235.514Z" fill="#FFDF00" stroke="black" stroke-width="0.401248"/>
<path fill-rule="evenodd" clip-rule="evenodd" d="M234.998 13.807C234.984 14.7979 234.359 15.6412 234.48 15.8444C234.618 16.0245 234.998 15.5032 235.514 15.8444C235.772 15.5032 235.797 13.7801 235.772 13.807H234.998Z" fill="#FFDF00" stroke="black" stroke-width="0.401248"/>
<path fill-rule="evenodd" clip-rule="evenodd" d="M238.039 17.6064C237.844 17.7263 237.622 17.7894 237.397 17.7894C237.172 17.7894 236.951 17.7263 236.756 17.6064V13.9458H237.611C237.183 15.3175 237.183 16.6919 238.041 17.6064H238.039Z" fill="#E10000" stroke="black" stroke-width="0.599667"/>
<path fill-rule="evenodd" clip-rule="evenodd" d="M237.361 14.0268C237.361 16.6081 237.981 17.1827 237.981 17.7018C237.723 17.7018 237.551 17.4598 237.361 17.1273C237.103 16.6081 237.078 13.986 237.103 14.0268H237.361Z" fill="#0000C4" stroke="black" stroke-width="0.494975"/>
<path fill-rule="evenodd" clip-rule="evenodd" d="M237.878 14.0268C237.891 15.5347 238.531 16.9318 238.41 17.2409C238.273 17.518 237.878 16.608 237.362 17.1243C237.103 16.608 237.079 13.9859 237.103 14.0238H237.878V14.0268Z" fill="#0000C4" stroke="black" stroke-width="0.494975"/>
<path fill-rule="evenodd" clip-rule="evenodd" d="M237.82 13.807C237.82 15.5032 238.413 15.6163 238.413 16.0686C238.155 16.0686 237.821 15.8214 237.82 15.8444C237.561 15.5032 237.537 13.7801 237.561 13.807H237.82Z" fill="#FFDF00" stroke="black" stroke-width="0.401248"/>
<path fill-rule="evenodd" clip-rule="evenodd" d="M238.336 13.807C238.349 14.7979 238.974 15.6412 238.853 15.8444C238.715 16.0245 238.336 15.5032 237.819 15.8444C237.561 15.5032 237.536 13.7801 237.561 13.807H238.336Z" fill="#FFDF00" stroke="black" stroke-width="0.401248"/>
<path fill-rule="evenodd" clip-rule="evenodd" d="M233.401 14.2316L232.953 14.5561L233.401 14.8806L233.625 14.7184L233.737 14.8806L233.849 15.2051L233.962 14.8806L234.074 14.7184H240.083V14.3939H234.073L233.961 14.2307C233.961 14.0684 233.985 13.9062 234.074 13.9062H234.522C234.522 13.7439 234.298 13.4194 233.849 13.4194C233.401 13.4194 233.177 13.7439 233.177 13.9062H233.625C233.714 13.9062 233.737 14.0684 233.737 14.2316L233.625 14.3939L233.401 14.2307L233.401 14.2316Z" fill="#908F8A" stroke="black" stroke-width="0.731164"/>
<path fill-rule="evenodd" clip-rule="evenodd" d="M234.717 15.0181H238.645V15.2173H234.718L234.717 15.0181ZM234.717 14.8179H238.645V15.0181H234.718L234.717 14.8179ZM234.717 14.6188H238.645V14.819H234.718L234.717 14.6188ZM234.717 14.4196H238.645V14.6188H234.718L234.717 14.4196ZM234.717 14.2205H238.645V14.4196H234.718L234.717 14.2205ZM234.717 14.0203H238.645V14.2205H234.718L234.717 14.0203ZM234.717 13.8223H238.645V14.0203H234.718L234.717 13.8223Z" fill="#B74D00" stroke="black" stroke-width="0.494918"/>
<path fill-rule="evenodd" clip-rule="evenodd" d="M234.905 13.8105L236.34 15.2055H236.545L235.111 13.8117H234.906L234.905 13.8105Z" fill="#908F8A" stroke="black" stroke-width="0.857365"/>
<path fill-rule="evenodd" clip-rule="evenodd" d="M234.905 15.2476L236.34 13.8526H236.545L235.111 15.2464H234.906L234.905 15.2476Z" fill="#908F8A" stroke="black" stroke-width="0.857365"/>
<path fill-rule="evenodd" clip-rule="evenodd" d="M234.944 13.8105V15.2055H235.15V13.8105H234.944Z" fill="#908F8A" stroke="black" stroke-width="0.852359"/>
<path fill-rule="evenodd" clip-rule="evenodd" d="M236.75 13.8105L238.185 15.2055H238.391L236.956 13.8117H236.751L236.75 13.8105Z" fill="#908F8A" stroke="black" stroke-width="0.857365"/>
<path fill-rule="evenodd" clip-rule="evenodd" d="M236.75 15.2476L238.185 13.8526H238.391L236.956 15.2464H236.751L236.75 15.2476Z" fill="#908F8A" stroke="black" stroke-width="0.857365"/>
<path fill-rule="evenodd" clip-rule="evenodd" d="M238.228 13.8105V15.2055H238.434V13.8105H238.228Z" fill="#908F8A" stroke="black" stroke-width="0.852359"/>
<path fill-rule="evenodd" clip-rule="evenodd" d="M236.794 13.8105V15.2055H237.001V13.8105H236.794Z" fill="#908F8A" stroke="black" stroke-width="0.852359"/>
<path fill-rule="evenodd" clip-rule="evenodd" d="M236.377 13.8105V15.2055H236.584V13.8105H236.377Z" fill="#908F8A" stroke="black" stroke-width="0.852359"/>
<path fill-rule="evenodd" clip-rule="evenodd" d="M239.574 9.82842C239.574 12.1018 238.23 13.9463 236.577 13.9463C234.924 13.9463 233.581 12.1018 233.581 9.82842C233.581 7.55509 234.922 5.70801 236.577 5.70801C238.233 5.70801 239.574 7.55251 239.574 9.82584V9.82842ZM239.146 9.82842C239.146 11.8486 237.996 13.489 236.577 13.489C235.159 13.489 234.009 11.8486 234.009 9.82842C234.009 7.80567 235.159 6.16526 236.577 6.16526C237.996 6.16526 239.146 7.80567 239.146 9.82842Z" fill="#FFDF00" stroke="black" stroke-width="0.599667"/>
<path fill-rule="evenodd" clip-rule="evenodd" d="M237.745 6.03351C237.385 5.82426 236.991 5.70801 236.577 5.70801C236.164 5.70801 235.77 5.82426 235.41 6.03093L235.579 6.45459C235.883 6.26734 236.228 6.16877 236.579 6.16877C236.929 6.16877 237.274 6.26734 237.578 6.45459L237.745 6.03093V6.03351Z" fill="#FFDF00" stroke="black" stroke-width="0.599667"/>
<path fill-rule="evenodd" clip-rule="evenodd" d="M237.753 13.5129C237.393 13.7221 236.999 13.8384 236.585 13.8384C236.172 13.8384 235.778 13.7221 235.418 13.5155L235.587 13.0918C235.891 13.2791 236.236 13.3776 236.587 13.3776C236.937 13.3776 237.282 13.2791 237.586 13.0918L237.753 13.5155V13.5129Z" fill="#FFDF00" stroke="black" stroke-width="0.599667"/>
<path fill-rule="evenodd" clip-rule="evenodd" d="M239.15 9.82926C239.15 11.8501 237.996 13.4876 236.579 13.4876C235.163 13.4876 234.013 11.8501 234.013 9.82926C234.013 7.80843 235.163 6.1626 236.579 6.1626C237.996 6.1626 239.15 7.80426 239.15 9.82926Z" fill="#A7CFFF"/>
<path fill-rule="evenodd" clip-rule="evenodd" d="M239.147 9.82818C239.173 10.5153 239.036 10.8512 238.859 11.5668C238.813 11.6443 238.593 11.3988 238.463 11.2774C238.332 11.156 238.274 11.3859 238.11 11.1999C237.948 11.0088 237.844 11.2516 237.723 11.0914C237.602 10.9313 236.484 10.9106 236.484 10.8951C236.595 10.8383 237.165 10.9003 237.073 10.6083C236.969 10.3035 236.324 10.598 236.237 10.2105C236.177 9.82301 234.942 9.80751 234.852 9.71451C234.889 9.85918 235.814 9.92118 235.792 10.2958C235.771 10.4508 234.881 10.4947 234.794 10.6238C234.722 10.7866 235.495 10.5799 235.522 10.7788C235.522 10.8615 235.408 10.7788 235.007 10.908C234.804 10.9726 235.379 11.1741 235.162 11.2852C234.944 11.3963 234.478 11.4453 234.497 11.4918C234.57 11.7243 235.577 11.9982 235.478 12.0369C235.121 12.2074 234.932 12.3185 234.76 12.4167C234.258 11.6618 233.994 10.7547 234.009 9.82818C234.775 9.53368 234.613 9.47168 236.029 9.47168C237.445 9.47168 237.914 9.5311 239.147 9.82818Z" fill="#AFFF7B" stroke="black" stroke-width="0.599667"/>
<path fill-rule="evenodd" clip-rule="evenodd" d="M239.147 9.82823C238.953 9.82823 238.75 9.91607 238.542 9.91607C238.332 9.91607 238.12 9.82565 237.902 9.82565C237.685 9.82565 237.436 9.94448 237.213 9.94448C236.989 9.94448 236.793 9.82823 236.568 9.82823C236.343 9.82823 236.119 9.91607 235.896 9.91607C235.674 9.91607 235.454 9.82565 235.239 9.82565C235.024 9.82565 234.811 9.91607 234.606 9.91607C234.4 9.91607 234.2 9.82565 234.009 9.82565C234.009 9.3219 234.081 8.8414 234.212 8.40224C234.864 8.4539 234.478 7.99665 234.864 7.99665C234.977 7.99012 235.09 8.00931 235.195 8.05296C235.301 8.09661 235.396 8.16371 235.476 8.24982C235.534 8.24982 235.824 7.95532 236.15 7.99665C236.474 8.03799 236.355 8.7019 236.788 8.73549C237.005 8.91115 237.134 9.02223 237.433 9.09457C237.861 9.1359 239.086 9.02998 239.093 9.0894C239.129 9.33387 239.147 9.58087 239.147 9.82823Z" fill="white" stroke="black" stroke-width="0.599667"/>
<path fill-rule="evenodd" clip-rule="evenodd" d="M236.966 11.9593C236.966 11.8453 237.079 11.7693 237.079 11.5873C237.079 11.4053 236.979 11.4013 236.975 11.2313C236.974 11.1613 237.061 11.0913 237.099 11.0833C237.138 11.0753 237.17 11.2313 237.17 11.2653C237.17 11.2993 237.131 11.1813 237.099 11.1793C237.066 11.1773 236.996 11.1913 236.996 11.2253C236.996 11.2933 237.119 11.3773 237.11 11.6053C237.101 11.8293 237.004 11.8973 237.004 11.9653C237.004 12.0333 237.046 12.2213 237.046 12.2213C237.046 12.2213 236.965 12.0713 236.965 11.9573L236.966 11.9593Z" fill="black" stroke="black" stroke-width="0.309839"/>
<path fill-rule="evenodd" clip-rule="evenodd" d="M237.325 11.9423C237.325 11.8283 237.213 11.7523 237.213 11.5703C237.213 11.3883 237.313 11.3843 237.316 11.2143C237.325 11.1343 237.218 11.0823 237.18 11.0763C237.141 11.0703 237.096 11.2363 237.096 11.2683C237.096 11.3003 237.141 11.1643 237.174 11.1623C237.206 11.1603 237.295 11.1743 237.295 11.2083C237.295 11.2763 237.172 11.3603 237.181 11.5883C237.19 11.8123 237.287 11.8803 237.287 11.9483C237.287 12.0163 237.245 12.2043 237.245 12.2043C237.245 12.2043 237.326 12.0543 237.326 11.9403L237.325 11.9423Z" fill="black" stroke="black" stroke-width="0.309839"/>
<path fill-rule="evenodd" clip-rule="evenodd" d="M237.208 11.0373C237.208 11.0914 237.179 11.1373 237.145 11.1373C237.112 11.1373 237.087 11.0914 237.087 11.0331C237.087 10.9748 237.112 10.9331 237.145 10.9331C237.179 10.9331 237.208 10.9789 237.208 11.0373ZM237.916 11.4123H237.933V12.2248H237.912L237.916 11.4123ZM238.087 11.3456H238.108V12.1664H238.087V11.3456Z" fill="black"/>
<path fill-rule="evenodd" clip-rule="evenodd" d="M238.025 11.7166V11.6958L238.191 11.725V11.7458L238.025 11.7166Z" fill="black"/>
<path fill-rule="evenodd" clip-rule="evenodd" d="M235.643 11.9524C235.643 11.9524 236.271 12.2469 236.409 12.4225C236.544 12.5982 236.491 12.5982 236.491 12.5982L237.886 12.6576C237.886 12.5698 238.132 12.5698 238.188 12.3631C238.243 12.159 238.243 12.0996 238.243 12.0996L237.806 12.2469L237.83 11.9834H237.448L237.393 12.2469L236.571 12.2184L236.627 11.5132L236.462 11.5416L236.438 12.2133C236.409 12.2133 235.67 12.0092 235.641 11.9524H235.643Z" fill="#B74D00" stroke="black" stroke-width="0.599667"/>
<path fill-rule="evenodd" clip-rule="evenodd" d="M234.378 7.74613C234.378 7.74613 235.29 7.45679 236.604 7.47746C237.919 7.49813 238.83 7.80813 238.811 7.80813C238.791 7.80813 238.559 7.33279 238.559 7.33279C238.559 7.33279 237.631 7.06154 236.585 7.04088C235.541 7.02021 234.63 7.24754 234.652 7.26821L234.378 7.74613Z" fill="#FEDE00" stroke="#FEDE00" stroke-width="0.599667"/>
<path fill-rule="evenodd" clip-rule="evenodd" d="M236.083 7.07477L236.65 7.06644L236.658 7.39561L236.092 7.40811L236.083 7.07477ZM234.783 7.25394L234.583 7.58311L235.258 7.49977L235.204 7.17894L234.783 7.26227V7.25394ZM235.354 7.12894L235.921 7.08311L235.946 7.40811L235.383 7.45811L235.354 7.12894ZM237.392 7.09977L236.829 7.05811L236.808 7.39144L237.371 7.42477L237.392 7.09977ZM238.608 7.30811L238.812 7.70811L238.204 7.55811L238.271 7.23727L238.604 7.30394L238.608 7.30811ZM238.117 7.18311L237.558 7.11227L237.517 7.43727L238.079 7.51227L238.117 7.18311Z" fill="#38A9F9"/>
<path fill-rule="evenodd" clip-rule="evenodd" d="M236.605 7.93201L236.544 7.58326L236.36 7.88034L236.428 7.53159L236.155 7.73051L236.339 7.43859L236.015 7.51093L236.293 7.31459L235.967 7.25001L236.293 7.18284L236.015 6.98651L236.339 7.05885L236.153 6.76693L236.428 6.96585L236.36 6.6171L236.544 6.91418L236.605 6.56543L236.667 6.91418L236.849 6.6171L236.783 6.96585L237.056 6.76693L236.87 7.05885L237.197 6.98651L236.919 7.18284L237.245 7.25001L236.919 7.31459L237.197 7.51093L236.87 7.43859L237.056 7.73051L236.783 7.53159L236.851 7.88034L236.667 7.58326L236.605 7.93201Z" fill="#FFDF00" stroke="black" stroke-width="0.599667"/>
<path fill-rule="evenodd" clip-rule="evenodd" d="M237.087 7.03128C237.087 7.22503 236.93 7.38128 236.736 7.38128C236.541 7.38128 236.384 7.22503 236.384 7.03128C236.384 6.83753 236.541 6.6792 236.736 6.6792C236.93 6.6792 237.087 6.83753 237.087 7.03337V7.03128Z" fill="#FFDF00" stroke="black" stroke-width="0.533854"/>
<path fill-rule="evenodd" clip-rule="evenodd" d="M236.696 7.10856C236.696 7.12939 236.642 7.15023 236.579 7.15023C236.517 7.15023 236.462 7.12939 236.462 7.10856C236.462 7.08773 236.512 7.06689 236.579 7.06689C236.646 7.06689 236.696 7.08356 236.696 7.10856ZM236.946 7.10856C236.946 7.12939 236.908 7.15023 236.862 7.15023C236.817 7.15023 236.771 7.12939 236.771 7.10856C236.771 7.08356 236.812 7.06689 236.858 7.06689C236.904 7.06689 236.946 7.08356 236.946 7.10856Z" fill="black"/>
<path d="M236.683 7.25188L236.708 7.26588C236.649 7.23014 236.676 7.24338 236.768 7.33388C236.82 7.30338 236.83 7.27563 236.863 7.23788" stroke="black" stroke-width="0.605659"/>
<path d="M236.451 7.43586L236.471 7.45653C236.425 7.40486 236.447 7.4307 236.548 7.49786C236.645 7.51078 236.744 7.46686 236.802 7.39453" stroke="black" stroke-width="0.599667"/>
<path fill-rule="evenodd" clip-rule="evenodd" d="M235.058 8.1167C235.058 8.1167 235.1 8.45003 234.845 8.8667C234.595 9.2792 234.633 9.13337 234.633 9.13337C234.633 9.13337 234.75 9.36253 234.729 9.36253C234.708 9.36253 234.533 9.1542 234.533 9.1542L234.325 9.38337C234.325 9.38337 234.516 9.0292 234.495 9.0292C234.475 9.0292 234.437 8.9042 234.437 8.9042L234.591 8.8417C234.591 8.8417 234.825 8.40837 234.825 8.4292C234.825 8.45003 234.129 8.9042 234.129 8.9042L235.058 8.12087V8.1167ZM235.212 8.2417C235.191 8.2417 235.308 8.57503 235.408 8.7417C235.504 8.90837 235.504 9.11253 235.504 9.11253L235.833 9.2792L235.408 8.63753L235.679 8.73753L235.212 8.2417ZM235.212 9.11253C235.212 9.11253 235.445 9.36253 235.462 9.44587C235.479 9.5292 235.483 9.71253 235.483 9.71253L235.387 9.5042L235.25 9.6917C235.25 9.6917 235.35 9.40003 235.329 9.3792C235.308 9.35837 235.175 9.48337 235.175 9.48337C235.175 9.48337 235.233 9.3167 235.233 9.30003C235.233 9.28337 235.233 9.17503 235.212 9.11253ZM234.05 9.6917C234.129 9.6292 234.283 9.58753 234.283 9.58753C234.283 9.58753 234.187 9.7542 234.166 9.7542C234.145 9.7542 234.091 9.7542 234.05 9.6917ZM236.72 8.78337C236.72 8.78337 237.225 9.0917 237.225 9.11253C237.225 9.13337 236.895 8.9667 236.895 8.9667L236.72 8.78337ZM235.812 8.13753C235.854 8.15837 236.55 8.73753 236.529 8.73753C236.508 8.73753 236.22 8.57087 236.22 8.59587V8.73753L236.062 8.40837L236.025 8.53337L235.816 8.13753H235.812ZM235.987 9.07087L236.179 9.46253L236.375 9.42087C236.375 9.42087 236.008 9.07087 235.987 9.07087ZM236.587 8.82087L236.608 9.19587C236.608 9.19587 236.72 9.30003 236.72 9.2792C236.72 9.25837 236.608 8.8417 236.587 8.82087Z" fill="#B7E1FF"/>
<path fill-rule="evenodd" clip-rule="evenodd" d="M230.941 3.72926C230.941 3.72926 231.816 3.24593 232.812 2.8876C233.545 2.6184 234.301 2.41754 235.071 2.2876C235.362 2.2876 235.871 3.02926 235.954 3.02926C236.037 3.02926 236.375 2.82093 236.8 2.82093C237.225 2.82093 237.471 3.15426 237.558 3.15426H238.316C238.4 3.15426 238.062 2.32926 238.316 2.37093C238.441 2.39176 239.516 2.55843 240.516 2.87926C241.516 3.20426 242.933 3.77926 242.933 3.77926C242.933 3.77926 240.621 4.08343 240 3.99593C239.916 4.0376 240 4.5376 239.875 4.31676C239.683 4.2751 238.971 4.1626 238.846 4.1626C238.721 4.1626 238.483 4.30426 238.146 4.3876C237.812 4.47093 237.387 4.59593 237.387 4.59593L237.937 5.45843L237.262 5.79176C237.262 5.79176 236.841 4.8001 236.671 4.8001C236.5 4.8001 236.421 5.5001 236.208 5.45843C236 5.41676 235.916 4.8001 235.746 4.63343C235.579 4.47093 234.687 4.40843 234.35 4.32926C234.016 4.24593 233.471 4.18343 233.175 4.1001C232.883 4.01676 232.583 4.30843 232.458 4.30843C232.333 4.30843 232.625 4.05843 232.5 4.01676C232.375 3.9751 232.291 4.14176 232.208 4.14176C232.125 4.14176 231.237 3.9751 231.154 3.93343C231.071 3.89176 231.362 3.72926 231.279 3.72926H230.941Z" fill="#984000"/>
<path fill-rule="evenodd" clip-rule="evenodd" d="M237.227 3.31677C237.227 3.54644 237.038 3.73277 236.806 3.73277C236.574 3.73277 236.386 3.54644 236.386 3.31677C236.386 3.08711 236.574 2.90186 236.806 2.90186C237.038 2.90186 237.227 3.08819 237.227 3.31677Z" fill="#808080" stroke="#772600" stroke-width="0.884911"/>
<path fill-rule="evenodd" clip-rule="evenodd" d="M235.095 3.39589C235.17 3.30789 235.263 3.17455 235.508 3.17455C235.564 3.15189 235.564 3.01855 235.694 3.01855C235.826 3.01855 235.788 3.15189 235.882 3.19722C235.976 3.24122 236.744 3.15189 236.744 3.15189C236.744 3.15189 236.818 3.21856 236.818 3.30789C236.818 3.39722 236.762 3.46256 236.744 3.46256C236.726 3.46256 235.976 3.39589 235.919 3.41856C235.863 3.44122 235.826 3.46256 235.694 3.46256C235.564 3.46256 235.526 3.30789 235.432 3.30789C235.339 3.30789 235.245 3.28522 235.095 3.39722V3.39589Z" fill="#984000" stroke="#772600" stroke-width="1.55788"/>
<path d="M236.069 5.34801C236.058 5.34801 236.033 5.27601 235.995 5.21468C235.968 5.13468 235.934 5.18001 235.9 5.05868C235.905 4.93334 235.908 4.91201 235.9 4.79201C235.824 4.72801 235.791 4.70934 235.732 4.59201C235.637 4.49868 235.746 4.33868 235.764 4.22134C235.681 4.20001 235.64 4.37468 235.513 4.43734C235.421 4.51068 235.502 4.28534 235.457 4.15468C235.427 3.96934 235.336 4.24801 235.302 4.32668C235.24 4.37601 235.221 4.44001 235.133 4.34801C235.133 4.28001 235.188 4.08801 235.165 4.05068C235.077 4.10268 234.962 4.25734 234.871 4.28134C234.779 4.25868 234.89 4.08401 234.89 3.95468C234.856 3.94134 234.725 4.29868 234.671 4.30134C234.617 4.30401 234.64 3.95468 234.614 3.96268C234.575 4.02934 234.495 4.16801 234.44 4.21601C234.333 4.19868 234.456 3.98268 234.472 3.90268C234.49 3.80668 234.371 4.08668 234.308 4.10401C234.262 4.15201 234.171 4.18401 234.14 4.19334C234.176 4.11068 234.353 3.94401 234.342 3.89601C234.238 3.90001 234.079 4.06268 233.99 4.08268C233.932 4.08268 233.851 4.10534 233.84 4.10401C233.845 3.99734 234.059 3.90934 234.092 3.84401C233.988 3.86401 233.786 3.97334 233.728 4.06001C233.658 4.07734 233.57 4.10001 233.503 4.06001C233.513 3.96001 233.671 3.76668 233.705 3.70268C233.61 3.75201 233.563 3.79068 233.461 3.81334C233.442 3.83601 233.388 3.88401 233.405 3.83601C233.435 3.74268 233.48 3.70268 233.518 3.63601C233.433 3.65468 233.402 3.71201 233.312 3.76934C233.254 3.77201 233.09 3.96801 233.035 3.97068C232.942 4.05785 232.833 4.11851 232.717 4.14801C232.631 4.16668 232.589 4.18801 232.548 4.23734C232.591 4.14801 232.656 4.06401 232.717 4.01601C232.754 3.93508 232.813 3.87192 232.885 3.83734C232.907 3.80668 232.965 3.79868 232.903 3.79334C232.85 3.84934 232.76 3.91334 232.717 3.94934C232.659 3.99201 232.593 4.03468 232.566 4.01601C232.596 3.92001 232.65 3.89601 232.697 3.81601C232.796 3.74134 232.697 3.78934 232.622 3.81601C232.574 3.86668 232.487 3.90534 232.416 3.94934C232.337 3.97334 232.285 4.02934 232.191 4.06001C232.191 4.09201 232.218 4.00268 232.229 3.97068C232.306 3.87201 232.326 3.84401 232.416 3.81601C232.439 3.77734 232.466 3.79334 232.398 3.79334C232.346 3.84668 232.277 3.87601 232.21 3.92668C232.144 3.94401 232.057 3.94934 231.967 3.94934C231.85 3.96534 231.86 3.97601 231.967 3.90401C232.027 3.83734 232.076 3.85468 232.08 3.77068C232.009 3.83201 231.922 3.87734 231.836 3.92668C231.764 3.92934 231.745 3.94934 231.667 3.94934C231.704 3.90401 231.727 3.84668 231.779 3.81601C231.858 3.71334 231.73 3.79601 231.704 3.81601H231.423C231.373 3.89068 231.421 3.81601 231.461 3.77068C231.509 3.74134 231.56 3.70268 231.554 3.68268C231.498 3.74001 231.434 3.76668 231.386 3.81601C231.334 3.83468 231.273 3.84268 231.273 3.86001C231.315 3.78934 231.381 3.74534 231.424 3.68268C231.487 3.66668 231.541 3.64268 231.554 3.61601H231.292H231.479C231.575 3.61601 231.656 3.60534 231.742 3.59334C231.891 3.56401 231.729 3.54934 231.648 3.54934C231.633 3.51468 231.695 3.49601 231.76 3.48268C231.817 3.45068 231.887 3.42268 231.948 3.39334C232.002 3.37399 232.052 3.34425 232.098 3.30534C232.042 3.30801 232.042 3.32401 231.985 3.32668C232.07 3.32001 232.129 3.30534 232.229 3.30534C232.312 3.27313 232.393 3.2362 232.472 3.19468C232.506 3.14668 232.52 3.14934 232.435 3.14934C232.511 3.12134 232.618 3.10668 232.678 3.08268C232.756 3.06343 232.831 3.03391 232.903 2.99468C232.958 2.95068 232.99 2.89868 233.053 2.86134C233.126 2.92001 233.127 2.92801 233.259 2.92801C233.365 2.92668 233.43 2.89601 233.484 2.83868C233.565 2.81201 233.579 2.76668 233.672 2.75068C233.758 2.76682 233.846 2.77395 233.934 2.77201C234.024 2.74401 234.11 2.69201 234.177 2.63868C234.234 2.60534 234.303 2.55734 234.365 2.52801C234.432 2.56934 234.486 2.60268 234.571 2.61734C234.657 2.60134 234.703 2.55068 234.776 2.52801C234.822 2.47112 234.881 2.43242 234.945 2.41734C235.054 2.35334 235.046 2.43734 235.095 2.50534C235.151 2.57468 235.223 2.54134 235.301 2.57201C235.345 2.65201 235.376 2.70534 235.432 2.74934C235.476 2.81334 235.528 2.82934 235.62 2.83868C235.654 2.89201 235.627 2.92934 235.694 2.94934C235.721 2.98401 235.768 2.99734 235.807 3.01601M237.381 3.34934H237.68C237.788 3.35068 237.825 3.38934 237.924 3.39334H238.186C238.282 3.38934 238.333 3.36268 238.429 3.34934C238.592 3.34668 238.537 3.33201 238.505 3.21601C238.475 3.12934 238.471 3.08801 238.429 3.03868C238.414 2.93201 238.378 2.89468 238.373 2.77201C238.356 2.67868 238.325 2.61601 238.355 2.50534C238.398 2.58134 238.415 2.61201 238.524 2.61734C238.636 2.61734 238.68 2.61334 238.749 2.66134C238.801 2.72668 238.87 2.70534 238.974 2.70534C239.059 2.72401 239.074 2.77601 239.141 2.81601C239.221 2.86934 239.273 2.88268 239.384 2.88268C239.474 2.90268 239.553 2.91734 239.609 2.94934C239.658 3.01734 239.733 3.03468 239.834 3.03868C239.891 3.03868 239.936 3.03201 239.984 3.01601C240.071 3.02134 240.158 3.01601 240.265 3.01601C240.335 3.11201 240.351 3.14801 240.471 3.14934C240.554 3.21868 240.624 3.22934 240.696 3.26001H240.977C241.079 3.26934 241.11 3.31868 241.202 3.34934C241.282 3.39174 241.363 3.42869 241.445 3.46001C241.526 3.47729 241.608 3.48489 241.69 3.48268C241.758 3.52534 241.843 3.52801 241.895 3.57068C241.973 3.59068 242.079 3.61468 242.138 3.63734C242.237 3.65334 242.276 3.69068 242.363 3.70401C242.439 3.73068 242.339 3.75201 242.288 3.77068C242.178 3.76668 242.17 3.71734 242.063 3.70401C242.007 3.66534 241.921 3.67068 241.838 3.63734H241.82C241.894 3.69068 241.966 3.72401 241.933 3.81601C241.837 3.81601 241.759 3.80134 241.67 3.79334C241.576 3.77201 241.533 3.74934 241.427 3.74934C241.533 3.71868 241.56 3.75201 241.633 3.79334C241.66 3.90001 241.602 3.86001 241.502 3.86001C241.416 3.82401 241.364 3.78001 241.259 3.77068H241.034C241.145 3.77601 241.169 3.82534 241.24 3.88268C241.245 3.91734 241.238 3.91468 241.183 3.92668C241.125 3.86668 241.049 3.84668 240.958 3.81601C240.869 3.81201 240.776 3.80268 240.696 3.77068C240.641 3.76668 240.65 3.68934 240.772 3.81601C240.845 3.86668 240.871 3.90934 240.865 3.94934C240.768 3.92001 240.721 3.87468 240.659 3.83734C240.575 3.80275 240.486 3.78781 240.397 3.79334C240.3 3.76268 240.407 3.74534 240.471 3.86001C240.611 3.97734 240.453 3.92668 240.397 3.90401C240.313 3.87601 240.225 3.83468 240.153 3.81601C240.097 3.79601 240.047 3.77734 239.984 3.77068C240.082 3.78134 240.115 3.82268 240.153 3.90401C240.252 3.98401 240.148 3.94534 240.059 3.92668C240.003 3.86801 239.93 3.83734 239.891 3.77068C239.797 3.71601 239.794 3.65068 239.854 3.79334C239.868 3.83868 239.865 3.93734 239.872 3.94934C239.803 3.86001 239.818 3.83734 239.741 3.83734C239.688 3.79468 239.612 3.76134 239.572 3.70401C239.5 3.69601 239.496 3.66534 239.423 3.63734C239.482 3.72134 239.562 3.80401 239.609 3.88268C239.695 3.93868 239.719 3.98934 239.778 4.03734C239.802 4.08668 239.868 4.12668 239.797 4.06001C239.716 3.96668 239.657 3.94401 239.535 3.88268C239.465 3.81601 239.441 3.78934 239.366 3.72668C239.265 3.68801 239.305 3.66668 239.366 3.79334C239.437 3.87068 239.491 3.95601 239.553 4.01601C239.602 4.08471 239.659 4.14447 239.722 4.19334C239.739 4.22268 239.789 4.22801 239.722 4.23734C239.666 4.17601 239.582 4.13734 239.516 4.08134C239.423 4.05068 239.379 3.99334 239.31 3.92668C239.265 3.84801 239.193 3.78801 239.141 3.72668C239.033 3.67601 239.163 3.77468 239.198 3.83734C239.221 3.91868 239.252 3.98401 239.272 4.06001C239.303 4.13334 239.177 4.04268 239.141 4.01601C239.067 3.95918 238.984 3.92105 238.897 3.90401C238.823 3.88632 238.748 3.87165 238.672 3.86001C238.588 3.83334 238.718 3.92401 238.767 4.01601C238.861 4.12134 238.673 4.03468 238.617 4.01601C238.524 3.99731 238.43 3.98972 238.336 3.99334C238.216 4.00134 238.302 4.02001 238.336 4.08134C238.373 4.11601 238.399 4.18801 238.392 4.21468C238.313 4.20134 238.246 4.17468 238.148 4.17068C238.069 4.20134 237.976 4.19334 237.886 4.19334C237.883 4.24934 237.903 4.20134 237.942 4.26001C238.007 4.29068 238.05 4.32801 238.037 4.37068H237.493C237.434 4.38934 237.506 4.38001 237.55 4.46001C237.525 4.53201 237.493 4.50401 237.418 4.50401C237.367 4.48001 237.265 4.46934 237.212 4.43734C237.159 4.43734 237.164 4.42134 237.119 4.41468C237.276 4.54801 237.197 4.51468 237.287 4.61468C237.302 4.62134 237.338 4.63734 237.305 4.63734L237.381 3.34934Z" stroke="#772600" stroke-width="1.02879"/>
<path d="M237.164 4.78151V4.79218C237.164 4.76151 237.164 4.77884 237.184 4.83751C237.19 4.88551 237.175 4.88018 237.155 4.91484C237.152 4.96418 237.146 5.00018 237.146 5.05884C237.14 5.10684 237.117 5.15218 237.099 5.19218C237.081 5.23351 237.004 5.25751 237.006 5.31484C236.961 5.32951 236.96 5.29484 236.959 5.23617C236.932 5.20018 236.923 5.15084 236.902 5.10284C236.891 5.05751 236.864 5.02284 236.846 4.96951C236.819 4.92018 236.795 4.90551 236.772 4.84818C236.762 4.82151 236.764 4.78684 236.744 4.77084C236.713 4.72418 236.693 4.71751 236.64 4.71484C236.6 4.72551 236.584 4.74684 236.547 4.75884C236.518 4.77084 236.461 4.76684 236.425 4.78151C236.416 4.79884 236.443 4.80818 236.453 4.84818C236.429 4.87218 236.42 4.91351 236.406 4.94818C236.384 4.98151 236.369 4.99751 236.359 5.04818C236.375 5.07884 236.361 5.12018 236.341 5.14818C236.334 5.19884 236.313 5.22684 236.303 5.26951C236.273 5.29484 236.262 5.31751 236.237 5.35884C236.216 5.39484 236.197 5.39217 236.144 5.39217C236.102 5.37884 236.097 5.35217 236.06 5.33617C236.056 5.32284 236.053 5.31884 236.041 5.31484" stroke="#782600" stroke-width="0.91121"/>
<path fill-rule="evenodd" clip-rule="evenodd" d="M236.15 5.22917C236.15 5.22917 236.133 5.4375 236 5.575C235.866 5.7125 235.591 5.87083 235.591 5.87083C235.591 5.87083 235.962 5.69583 236 5.73333C236.041 5.775 235.762 6.07917 235.762 6.07917C235.762 6.07917 236.125 5.75833 236.17 5.75833C236.216 5.75833 236.32 6.07083 236.362 6.0625C236.4 6.05417 236.279 5.66667 236.295 5.60417C236.312 5.54583 236.295 5.21667 236.295 5.21667L236.154 5.22917H236.15ZM237.004 5.20417C237.004 5.20417 236.987 5.425 236.854 5.57083C236.72 5.71667 236.445 5.8875 236.445 5.8875C236.445 5.8875 236.816 5.7 236.854 5.74167C236.895 5.78333 236.616 6.10833 236.616 6.10833C236.616 6.10833 236.979 5.76667 237.025 5.76667C237.07 5.76667 237.175 6.1 237.216 6.09167C237.254 6.08333 237.133 5.66667 237.15 5.60417C237.166 5.5375 237.15 5.1875 237.15 5.1875L237.004 5.20417ZM235.808 3.20417C235.808 3.24167 235.766 3.275 235.72 3.275C235.675 3.275 235.629 3.24167 235.629 3.2C235.629 3.15833 235.67 3.125 235.72 3.125C235.77 3.125 235.808 3.15833 235.808 3.2V3.20417Z" fill="#812E00"/>
</g>
</g>
<defs>
<clipPath id="clip0">
<rect width="250" height="20" fill="white"/>
</clipPath>
<clipPath id="clip1">
<rect width="26.6667" height="20" fill="white"/>
</clipPath>
<clipPath id="clip2">
<rect x="89.3333" width="26.6667" height="20" fill="white"/>
</clipPath>
<clipPath id="clip3">
<rect x="134" width="26.6667" height="20" fill="white"/>
</clipPath>
<clipPath id="clip4">
<rect x="178.667" width="26.6667" height="20" fill="white"/>
</clipPath>
<clipPath id="clip5">
<rect x="223.333" width="26.6667" height="20" fill="white"/>
</clipPath>
</defs>
</svg>
