<svg id="Layer_1" data-name="Layer 1" xmlns="http://www.w3.org/2000/svg" viewBox="0 0 26.67 20"><defs><style>.cls-1{fill:#229e45;}.cls-1,.cls-2,.cls-3,.cls-4,.cls-5{fill-rule:evenodd;}.cls-2{fill:#f8e509;}.cls-3{fill:#2b49a3;}.cls-4{fill:#ffffef;}.cls-5,.cls-8{fill:#fff;}.cls-6{fill:#309e3a;}.cls-7{fill:#f7ffff;}</style></defs><title>brasil</title><path class="cls-1" d="M0,0H26.67V20H0Z"/><path class="cls-2" d="M13.39,18.17,26,10,13.32,1.83.71,10Z"/><path class="cls-3" d="M18.87,10a5.32,5.32,0,0,1-8.27,4.41,5.3,5.3,0,0,1-.79-8.17,5.32,5.32,0,0,1,5.78-1.15,5.37,5.37,0,0,1,2.38,2A5.26,5.26,0,0,1,18.87,10Z"/><path class="cls-4" d="M11.8,13.18l-.16-.1-.17.09,0-.19-.13-.14.18,0,.09-.17.08.17.19,0-.14.12Zm3.56.9L15.2,14l-.17.09,0-.19-.13-.14.19,0,.08-.17.09.17.18,0-.14.13Zm-1.53-1.44-.14-.09-.15.08,0-.16-.12-.12.17,0,.07-.15.07.15.16,0-.13.11Zm3.6-.52L17.29,12l-.15.07,0-.16-.12-.12h.17l.07-.15.07.15.16,0L17.4,12ZM13.77,11,13.6,11l-.17.08,0-.19-.13-.14.19,0,.08-.17.09.18.18,0-.14.13ZM9.38,9.4l-.17-.1-.16.09,0-.19L9,9.06l.19,0,.09-.17L9.31,9l.18,0-.14.13Zm.53,2.19-.17-.1-.16.08,0-.18-.13-.14.19,0,.08-.16.09.17.18,0-.14.13Zm5.47-3-.15-.08-.15.07,0-.16L15,8.29l.17,0,.08-.15.07.16.16,0-.12.11ZM15.08,10,15,10l-.12.06,0-.14-.09-.09.13,0L15,9.65l0,.12.12,0-.09.09ZM9.14,12,9,11.92,8.91,12l0-.12-.09-.09.13,0,0-.11.06.12.12,0-.09.08Zm8.32.51-.09,0-.09,0,0-.1-.07-.07h.1l.05-.08,0,.08.1,0-.08.07"/><path class="cls-4" d="M9.14,12,9,11.92,8.91,12l0-.13-.09-.09.13,0,0-.11.06.12.12,0-.09.08"/><path class="cls-4" d="M9.14,12,9,11.92,8.91,12l0-.12-.09-.09.13,0,0-.11.06.12.12,0-.09.08Zm1.74,0-.11-.06-.11.05,0-.12-.08-.09.12,0,.06-.11.05.12.13,0-.1.08Zm-.22.58-.11-.06-.11.06,0-.13-.09-.09.12,0,.06-.11.06.11.12,0-.09.08Zm3.63-1.05-.11-.07-.12.06,0-.13L14,11.28h.13l.06-.12.05.12.12,0-.09.09Zm-1.06,0-.12-.06L13,11.5l0-.13-.09-.09h.13l.06-.12,0,.12.12,0-.09.09Zm-2.89-.36-.07,0-.07,0,0-.08L10.16,11h.08l0-.07,0,.08h.08l-.06.05Zm7,1.81-.11-.07-.11.06,0-.12-.09-.1.12,0,.06-.11.06.12.12,0-.1.09Zm-.88.12L16.35,13l-.1.05,0-.11-.07-.08h.1l.05-.09,0,.1h.1l-.08.08Zm.41,0L16.77,13l-.09.05,0-.1-.07-.07h.1l.05-.09,0,.09.09,0-.07.06ZM18.05,12,18,12l-.08,0,0-.09-.07-.07.1,0,0-.08,0,.09.09,0-.07.06Zm-1.62,1.65-.11-.05-.11.05,0-.12-.08-.08.13,0,0-.1.05.11.12,0-.09.08Zm0,.48-.1-.06-.1,0,0-.11-.08-.09h.11l.05-.11.05.11.11,0-.08.09Zm-.8-1.08L15.55,13l-.09.05,0-.1-.06-.07h.09l0-.08,0,.08.09,0-.06.07Zm-.75,0L14.79,13l-.08.05,0-.1-.07-.07h.1l0-.08,0,.08.09,0-.07.07ZM13.6,11.93l-.09,0-.08,0,0-.1-.07-.06.1,0,0-.08,0,.08.09,0-.07.07Zm.14,2.28-.07,0-.07,0v-.08l0-.06h.08l0-.07,0,.08h.08l-.06.05ZM11.8,10.52l-.16-.09-.17.08,0-.19-.13-.13.18,0,.09-.16.08.17.19,0-.14.13"/><path class="cls-5" d="M18.52,11.91a6,6,0,0,0,.24-.83,13,13,0,0,0-10-3.48,5.1,5.1,0,0,0-.35.87A12.73,12.73,0,0,1,18.52,11.91Z"/><path class="cls-6" d="M17.25,10.52l.1.05a.15.15,0,0,0,0,.09.11.11,0,0,0,.06.07s.06,0,.08,0a.06.06,0,0,0,.06,0,0,0,0,0,0,0,0l0,0-.07-.07a.33.33,0,0,1-.07-.13.12.12,0,0,1,0-.1.14.14,0,0,1,.07-.08h.1l.11.05a.26.26,0,0,1,.1.14.15.15,0,0,1,0,.07l0,.06-.1-.06a.09.09,0,0,0,0-.07.13.13,0,0,0-.05-.06.11.11,0,0,0-.08,0h0a0,0,0,0,0,0,0,.09.09,0,0,0,0,0,.76.76,0,0,0,.07.09s.06.08.08.1a.15.15,0,0,1,0,.09.16.16,0,0,1,0,.09.24.24,0,0,1-.08.06.17.17,0,0,1-.1,0,.31.31,0,0,1-.12,0,.27.27,0,0,1-.11-.14.25.25,0,0,1,0-.17Zm-.48-.32.1.05a.17.17,0,0,0,0,.1.12.12,0,0,0,.06.06l.08,0a.05.05,0,0,0,.06,0s0,0,0,0l0,0L17,10.25c-.05,0-.08-.08-.08-.11a.17.17,0,0,1,0-.07.14.14,0,0,1,0-.06A.13.13,0,0,1,17,10a.14.14,0,0,1,.09,0,.21.21,0,0,1,.11,0,.22.22,0,0,1,.11.13.17.17,0,0,1,0,.07.09.09,0,0,1,0,.07l-.1-.06s0,0,0-.07a.17.17,0,0,0-.06-.06l-.07,0h0l0,0s0,0,0,0,0,.05.07.09a.48.48,0,0,1,.08.1.15.15,0,0,1,0,.18.13.13,0,0,1-.07.06.18.18,0,0,1-.1,0,.33.33,0,0,1-.12-.05.25.25,0,0,1-.12-.13A.2.2,0,0,1,16.77,10.2Zm-.6-.16.31-.5.37.23-.05.08-.27-.16-.07.11.25.15-.05.09-.25-.16-.09.14.28.17-.05.08L16.18,10Zm-.86-.71,0-.08.22.11-.1.21h-.13l-.13,0a.35.35,0,0,1-.13-.11.24.24,0,0,1,0-.15.42.42,0,0,1,0-.15A.45.45,0,0,1,15.2,9a.26.26,0,0,1,.15,0,.24.24,0,0,1,.13,0,.22.22,0,0,1,.13.12.17.17,0,0,1,0,.14l-.11,0a.08.08,0,0,0,0-.08.09.09,0,0,0-.06-.06l-.07,0h-.06a.23.23,0,0,0-.11.11.25.25,0,0,0,0,.16l0,.06.05,0,.07,0h.08l0-.06ZM11.55,8.4l.09-.58.17,0,0,.41L12,7.88l.18,0-.09.57H12L12.07,8l-.18.44-.12,0,0-.47-.07.46ZM11,8.33l0-.58.43,0v.1l-.31,0V8l.29,0v.1l-.3,0v.16l.33,0v.11Z"/><path class="cls-6" d="M9,8a.33.33,0,0,1,0-.15.16.16,0,0,1,.06-.08l.07,0,.13,0a.3.3,0,0,1,.21.08.54.54,0,0,1,.05.11.25.25,0,0,1,0,.12.29.29,0,0,1-.08.22.21.21,0,0,1-.1.06l-.11,0a.23.23,0,0,1-.11,0,.24.24,0,0,1-.09-.06A.29.29,0,0,1,9,8Z"/><path class="cls-7" d="M9.14,8a.24.24,0,0,0,0,.15.17.17,0,0,0,.12.06h.06l.06,0a.3.3,0,0,0,0-.3.07.07,0,0,0-.05,0l-.06,0H9.24l-.05,0A.26.26,0,0,0,9.14,8Z"/><path class="cls-6" d="M9.71,8.27V7.69H10l.13,0a.18.18,0,0,1,.07,0,.3.3,0,0,1,0,.1.15.15,0,0,1,0,.11A.22.22,0,0,1,10,8l.06.05a.23.23,0,0,1,.06.09l.07.12h-.14L10,8.15,10,8.06a.05.05,0,0,0,0,0H9.83v.24Z"/><path class="cls-8" d="M9.83,7.94H10l0,0a.06.06,0,0,0,0,0s0,0,0,0,0,0,0,0H9.83v.14Z"/><path class="cls-6" d="M10.38,7.72h.32a.16.16,0,0,1,.08.06.19.19,0,0,1,.05.1.3.3,0,0,1,0,.14.5.5,0,0,1,0,.12.27.27,0,0,1-.08.1.12.12,0,0,1-.08,0h-.32Z"/><path class="cls-8" d="M10.49,7.82l0,.39h.16l0,0,0-.06a.27.27,0,0,0,0-.11v-.1s0,0,0-.06l0,0h-.15Z"/><path class="cls-6" d="M13.23,8.76l.14-.57.18,0,.14,0a.11.11,0,0,1,.06.07.17.17,0,0,1,0,.12.2.2,0,0,1,0,.08.1.1,0,0,1-.06,0H13.6l-.13,0-.07,0-.05.22Z"/><path class="cls-8" d="M13.46,8.32l0,.16h.07s.07,0,.09,0l0,0,0,0a.07.07,0,0,0,0,0s0,0,0,0l-.08,0Z"/><path class="cls-6" d="M13.78,8.92,14,8.37l.23.08.12.06a.11.11,0,0,1,0,.08v.09a.24.24,0,0,1-.08.09.16.16,0,0,1-.12,0l0,.06,0,.12,0,.13-.13,0,0-.15,0-.1,0,0s0,0,0,0h0L13.88,9Z"/><path class="cls-8" d="M14,8.64l.08,0,.1,0h0l0,0V8.6l0,0-.08,0-.08,0L14,8.64Z"/><path class="cls-6" d="M14.46,8.9a.33.33,0,0,1,.07-.13l.07-.07.09,0h.13l.1.05.07.09a.34.34,0,0,1-.13.42.24.24,0,0,1-.22,0l-.1,0a.16.16,0,0,1-.07-.09.2.2,0,0,1,0-.11A.25.25,0,0,1,14.46,8.9Z"/><path class="cls-8" d="M14.58,8.93c0,.07,0,.12,0,.16a.2.2,0,0,0,.09.09.21.21,0,0,0,.13,0s.06-.07.08-.13a.22.22,0,0,0,0-.16.09.09,0,0,0,0,0,.09.09,0,0,0-.06,0h-.06l-.06,0A.25.25,0,0,0,14.58,8.93Z"/><path class="cls-6" d="M15.6,9.71l.26-.51.22.11a.5.5,0,0,1,.12.08.1.1,0,0,1,0,.08.15.15,0,0,1,0,.09.11.11,0,0,1-.08.08.2.2,0,0,1-.13,0,.13.13,0,0,1,0,.07.37.37,0,0,1,0,.12V10l-.13-.06V9.74a.43.43,0,0,0,0-.11.08.08,0,0,0,0,0l-.05,0h0l-.11.22Z"/><path class="cls-8" d="M15.85,9.47l.08,0,.1,0h0l0,0a.11.11,0,0,0,0,0l0,0L16,9.37l-.08,0Z"/><path class="cls-6" d="M17.75,10.78l.11-.11.09,0H18l.12,0a.3.3,0,0,1,.08.08.21.21,0,0,1,0,.11.3.3,0,0,1-.06.23.3.3,0,0,1-.18.13h-.12a.21.21,0,0,1-.1,0,.3.3,0,0,1-.08-.08.21.21,0,0,1,0-.11A.26.26,0,0,1,17.75,10.78Z"/><path class="cls-8" d="M17.86,10.85a.18.18,0,0,0-.05.15s0,0,0,.05l.05,0a.11.11,0,0,0,.12,0,.17.17,0,0,0,.12-.1.18.18,0,0,0,.05-.15s0-.07-.07-.1a.11.11,0,0,0-.12,0s-.08,0-.13.1Z"/><path class="cls-6" d="M12.58,8.52l.09-.41.3.07v.07l-.22-.05,0,.09.2.05,0,.07-.2-.05,0,.11.22.06v.06Z"/></svg>