<svg width="18" height="20" viewBox="0 0 18 20" fill="none" xmlns="http://www.w3.org/2000/svg">
<path d="M17.3328 1.8805C17.7781 1.97425 18.0007 2.24378 18.0007 2.68909C18.0007 7.18909 16.407 11.0328 13.2195 14.2203C10.032 17.4078 6.18823 19.0016 1.68823 19.0016C1.24292 19.0016 0.973389 18.7789 0.879639 18.3336L0.0358887 14.6774C-0.0812988 14.2321 0.0827637 13.9157 0.528076 13.7282L4.46558 12.0407C4.84058 11.8766 5.1687 11.9586 5.44995 12.2867L7.17261 14.3961C8.55542 13.7633 9.77417 12.9078 10.8289 11.8297C11.907 10.7516 12.7625 9.53284 13.3953 8.17347L11.2859 6.41565C10.9578 6.15784 10.8757 5.82972 11.0398 5.43128L12.7273 1.49378C12.9148 1.0719 13.2312 0.919561 13.6765 1.03675L17.3328 1.8805Z" fill="#A0C426"/>
</svg>
