<svg width="16" height="11" viewBox="0 0 16 11" fill="none" xmlns="http://www.w3.org/2000/svg">
<path d="M10.5488 0.328125C10.7363 0.117188 10.9238 0.117188 11.1113 0.328125L15.752 4.96875C15.9629 5.15625 15.9629 5.34375 15.752 5.53125L11.1113 10.1719C10.9238 10.3828 10.7363 10.3828 10.5488 10.1719L9.8457 9.50391C9.63477 9.29297 9.63477 9.09375 9.8457 8.90625L12.6934 6.16406H0.564453C0.283203 6.16406 0.142578 6.02344 0.142578 5.74219V4.75781C0.142578 4.47656 0.283203 4.33594 0.564453 4.33594H12.6934L9.8457 1.59375C9.63477 1.40625 9.63477 1.20703 9.8457 0.996094L10.5488 0.328125Z" fill="white"/>
</svg>
