<svg id="Layer_1" data-name="Layer 1" xmlns="http://www.w3.org/2000/svg" xmlns:xlink="http://www.w3.org/1999/xlink" viewBox="0 0 26.67 20"><defs><style>.cls-1,.cls-12,.cls-27,.cls-64,.cls-65,.cls-70,.cls-71{fill:none;}.cls-2{clip-path:url(#clip-path);}.cls-3{fill:#ffe800;}.cls-10,.cls-11,.cls-13,.cls-14,.cls-15,.cls-16,.cls-17,.cls-18,.cls-19,.cls-20,.cls-21,.cls-22,.cls-23,.cls-24,.cls-25,.cls-26,.cls-28,.cls-29,.cls-3,.cls-30,.cls-31,.cls-32,.cls-33,.cls-34,.cls-35,.cls-36,.cls-37,.cls-38,.cls-39,.cls-4,.cls-40,.cls-41,.cls-42,.cls-43,.cls-44,.cls-45,.cls-46,.cls-47,.cls-48,.cls-49,.cls-5,.cls-50,.cls-51,.cls-52,.cls-53,.cls-54,.cls-55,.cls-56,.cls-57,.cls-58,.cls-59,.cls-6,.cls-60,.cls-61,.cls-62,.cls-63,.cls-66,.cls-67,.cls-68,.cls-69,.cls-7,.cls-72,.cls-8,.cls-9{fill-rule:evenodd;}.cls-4{fill:#00148e;}.cls-5{fill:#da0010;}.cls-68,.cls-7{fill:gray;}.cls-10,.cls-11,.cls-12,.cls-13,.cls-14,.cls-15,.cls-16,.cls-17,.cls-18,.cls-19,.cls-20,.cls-21,.cls-22,.cls-23,.cls-24,.cls-25,.cls-26,.cls-27,.cls-28,.cls-29,.cls-30,.cls-31,.cls-32,.cls-33,.cls-34,.cls-35,.cls-36,.cls-37,.cls-38,.cls-39,.cls-40,.cls-41,.cls-42,.cls-43,.cls-44,.cls-45,.cls-46,.cls-47,.cls-48,.cls-49,.cls-50,.cls-51,.cls-52,.cls-53,.cls-54,.cls-55,.cls-57,.cls-58,.cls-59,.cls-60,.cls-63,.cls-64,.cls-65,.cls-7,.cls-8,.cls-9{stroke:#000;}.cls-7{stroke-width:0.49px;}.cls-11,.cls-51,.cls-63,.cls-8{fill:#ffdf00;}.cls-10,.cls-8,.cls-9{stroke-width:0.54px;}.cls-30,.cls-35,.cls-37,.cls-50,.cls-9{fill:#0000c4;}.cls-10,.cls-31,.cls-34,.cls-36{fill:#e10000;}.cls-11,.cls-30,.cls-31,.cls-57,.cls-58,.cls-60,.cls-61,.cls-65{stroke-width:0.6px;}.cls-12{stroke-width:0.87px;}.cls-13,.cls-15,.cls-16,.cls-17,.cls-18,.cls-19,.cls-20,.cls-21,.cls-22,.cls-23,.cls-24,.cls-25,.cls-26,.cls-38,.cls-39,.cls-40,.cls-41,.cls-42,.cls-43,.cls-44,.cls-45,.cls-46,.cls-47,.cls-48,.cls-49{fill:#005b00;}.cls-13{stroke-width:0.29px;}.cls-14,.cls-28,.cls-29{fill:red;}.cls-14{stroke-width:0.2px;}.cls-15{stroke-width:0.28px;}.cls-16{stroke-width:0.24px;}.cls-17{stroke-width:0.26px;}.cls-18{stroke-width:0.3px;}.cls-19{stroke-width:0.32px;}.cls-20{stroke-width:0.32px;}.cls-21{stroke-width:0.31px;}.cls-22{stroke-width:0.17px;}.cls-23{stroke-width:0.14px;}.cls-24{stroke-width:0.15px;}.cls-25{stroke-width:0.19px;}.cls-26{stroke-width:0.31px;}.cls-27{stroke-width:0.85px;}.cls-28{stroke-width:0.18px;}.cls-29{stroke-width:0.3px;}.cls-32,.cls-33{fill:#cececc;}.cls-32{stroke-width:0.17px;}.cls-33{stroke-width:0.18px;}.cls-34{stroke-width:0.35px;}.cls-35{stroke-width:0.36px;}.cls-36{stroke-width:0.7px;}.cls-37{stroke-width:0.51px;}.cls-38{stroke-width:0.25px;}.cls-39{stroke-width:0.29px;}.cls-40{stroke-width:0.33px;}.cls-41{stroke-width:0.33px;}.cls-42{stroke-width:0.3px;}.cls-43{stroke-width:0.3px;}.cls-44{stroke-width:0.29px;}.cls-45{stroke-width:0.29px;}.cls-46{stroke-width:0.32px;}.cls-47{stroke-width:0.33px;}.cls-48{stroke-width:0.28px;}.cls-49{stroke-width:0.31px;}.cls-50{stroke-width:0.49px;}.cls-51{stroke-width:0.4px;}.cls-52,.cls-54,.cls-55{fill:#908f8a;}.cls-52{stroke-width:0.73px;}.cls-53,.cls-60{fill:#b74d00;}.cls-53{stroke-width:0.49px;}.cls-54{stroke-width:0.86px;}.cls-55{stroke-width:0.85px;}.cls-56{fill:#a7cfff;}.cls-57{fill:#afff7b;}.cls-58{fill:#fff;}.cls-59{stroke-width:0.31px;}.cls-61{fill:#fede00;stroke:#fede00;}.cls-62{fill:#38a9f9;}.cls-63{stroke-width:0.53px;}.cls-64{stroke-width:0.61px;}.cls-66{fill:#b7e1ff;}.cls-67,.cls-69{fill:#984000;}.cls-68,.cls-69,.cls-70{stroke:#772600;}.cls-68{stroke-width:0.88px;}.cls-69{stroke-width:1.56px;}.cls-70{stroke-width:1.03px;}.cls-71{stroke:#782600;stroke-width:0.91px;}.cls-72{fill:#812e00;}</style><clipPath id="clip-path"><rect class="cls-1" width="26.67" height="20"/></clipPath></defs><title>ecuador</title><g class="cls-2"><path class="cls-3" d="M0,0H26.67V20H0Z"/><path class="cls-4" d="M0,10H26.67V20H0Z"/><path class="cls-5" d="M0,15H26.67v5H0Z"/><path class="cls-6" d="M11.23,12.12l-3,3.18-.05-.06,3-3.19.05.07Zm2.1.52L9.38,16.8l-.06-.06,3.94-4.17Z"/><path class="cls-7" d="M9.4,16.76,9,17.12l-.42.32L8.92,17l.37-.37Z"/><path class="cls-7" d="M8.38,15.13,8,15.5l-.42.31.32-.42L8.28,15Z"/><path class="cls-8" d="M8.66,4.78s-.33,9,1,9a2.51,2.51,0,0,0,2-.95V7.88Z"/><path class="cls-9" d="M9.48,5.62c0,.47-.15,7.19.51,7.19a5,5,0,0,0,1.66-.47V7.88Z"/><path class="cls-10" d="M9.91,6.07c0,.48.08,5.8.75,5.8h1v-4Z"/><path class="cls-6" d="M8.59,4.83l3,3.19L11.66,8l-3-3.18Z"/><path class="cls-11" d="M7.68,6.62s-.86,8.7,1.71,8.7C11.53,15.32,11.53,14,12,14l-.43-3.21L7.68,6.62Z"/><path class="cls-12" d="M9.8,8.07a5.93,5.93,0,0,1,2.29-2.3"/><path class="cls-13" d="M9.53,6.74a1.55,1.55,0,0,1,.5.37,2,2,0,0,1-.61-.18,2.16,2.16,0,0,1-.54-.4A4.81,4.81,0,0,1,9.53,6.74Z"/><path class="cls-14" d="M10.1,7.6a.07.07,0,0,1,0,.09.08.08,0,0,1-.1,0,.07.07,0,0,1,0-.08A.07.07,0,0,1,10.1,7.6Z"/><path class="cls-15" d="M10.81,5.84a1.71,1.71,0,0,1-.33.57,3.46,3.46,0,0,1,.18-.67A2.65,2.65,0,0,1,11,5.13,5.88,5.88,0,0,1,10.81,5.84Z"/><path class="cls-16" d="M10.48,5.83a2.41,2.41,0,0,1-.14.64,3.11,3.11,0,0,1,0-.61,3.35,3.35,0,0,1,.15-.69C10.49,5.34,10.5,5.58,10.48,5.83Z"/><path class="cls-17" d="M10.7,6.12a.92.92,0,0,1-.35.26,2.19,2.19,0,0,1,.3-.48A1,1,0,0,1,11,5.63,5.68,5.68,0,0,1,10.7,6.12Z"/><path class="cls-18" d="M9.61,6.33a1.47,1.47,0,0,1,.28.54,1.62,1.62,0,0,1-.45-.37,1.87,1.87,0,0,1-.31-.59A2.81,2.81,0,0,1,9.61,6.33Z"/><path class="cls-19" d="M9.3,7.72a1.25,1.25,0,0,1,.37.48,1.8,1.8,0,0,1-.55-.29,1.69,1.69,0,0,1-.4-.52A3.6,3.6,0,0,1,9.3,7.72Z"/><path class="cls-20" d="M10.19,7.64a2.53,2.53,0,0,1-.51.56A2.66,2.66,0,0,1,10,7.55,3.13,3.13,0,0,1,10.5,7,4.22,4.22,0,0,1,10.19,7.64Z"/><path class="cls-21" d="M10.34,7.63A2.26,2.26,0,0,1,9.67,8a2.88,2.88,0,0,1,.55-.49,2.73,2.73,0,0,1,.72-.34A6,6,0,0,1,10.34,7.63Z"/><path class="cls-22" d="M12,5.9a1.28,1.28,0,0,1-.3.25,2,2,0,0,1,.23-.34,1.51,1.51,0,0,1,.33-.27C12.16,5.63,12.08,5.77,12,5.9Z"/><path class="cls-23" d="M11.74,5.54a1.45,1.45,0,0,1-.2.32,2.08,2.08,0,0,1,.12-.32,2.31,2.31,0,0,1,.21-.35A3.25,3.25,0,0,1,11.74,5.54Z"/><path class="cls-24" d="M12.09,5.77a.48.48,0,0,1-.26.08,2,2,0,0,1,.26-.2.79.79,0,0,1,.29-.09A1.82,1.82,0,0,1,12.09,5.77Z"/><path class="cls-25" d="M10.64,6.45a3.13,3.13,0,0,1-.51.23,2.83,2.83,0,0,1,.45-.32,3.59,3.59,0,0,1,.54-.25C11,6.19,10.83,6.33,10.64,6.45Z"/><path class="cls-26" d="M11.19,6.61a2,2,0,0,1-.69.28,3.17,3.17,0,0,1,.58-.46,3,3,0,0,1,.73-.29A5.49,5.49,0,0,1,11.19,6.61Z"/><path class="cls-27" d="M9.5,9.06a4.28,4.28,0,0,1,.87-2.71"/><path class="cls-14" d="M11.05,6.27a.07.07,0,0,1,0,.08.06.06,0,0,1-.09,0,.07.07,0,0,1,0-.09A.08.08,0,0,1,11.05,6.27Z"/><path class="cls-14" d="M11.5,6a.08.08,0,0,1,0,.09.08.08,0,0,1-.1,0s0-.06,0-.08A.09.09,0,0,1,11.5,6Z"/><path class="cls-28" d="M10.24,6.89s0,.05-.05.07-.08,0-.09,0,0-.06.05-.08S10.23,6.86,10.24,6.89Z"/><path class="cls-28" d="M10.38,6.83s0,0-.05.07a.09.09,0,0,1-.1,0s0-.06,0-.08A.09.09,0,0,1,10.38,6.83Z"/><path class="cls-28" d="M10.3,7s0,.06-.05.08-.08,0-.1,0,0,0,0-.07A.09.09,0,0,1,10.3,7Z"/><path class="cls-29" d="M10.53,7a.08.08,0,0,1,0,.1.07.07,0,0,1-.1,0,.07.07,0,0,1,0-.1.07.07,0,0,1,.1,0Z"/><path class="cls-29" d="M10.62,6.87a.08.08,0,0,1,0,.1.07.07,0,0,1-.1,0,.08.08,0,0,1,0-.1.08.08,0,0,1,.1,0Z"/><path class="cls-29" d="M10.65,6.92a.07.07,0,0,1,0,.09s-.09,0-.1,0a.07.07,0,0,1,0-.1A.07.07,0,0,1,10.65,6.92Z"/><path class="cls-30" d="M8.54,7.54C8.54,8,7.68,13,9.82,14.4c.86.46,2.14-.45,2.14,0l-.43-3.66Z"/><path class="cls-31" d="M9.39,8.45c0,.46-.43,4.12.86,5,.85.91,3,.67,3,.67l-1.72-3.42Z"/><path class="cls-6" d="M7.66,6.58l3.95,4.17.07-.07L7.73,6.52l-.07.07Z"/><path class="cls-32" d="M7.05,6.09l.25,0,.08.08a.13.13,0,0,1,0,.17c-.11.11-.25,0-.25,0a.83.83,0,0,0,.19.4.39.39,0,0,0,.32.12s-.17-.14,0-.25.18,0,.18,0l.14.14L8,6.62,7.41,6l0-.25L7,5.72l.07.37Z"/><path class="cls-33" d="M7.63,4.34l.31.47.38.1-.25.16h.46l.2.15.08-.12L8.6,4.94l-.16-.46,0,.31-.23-.34-.53-.11Z"/><path class="cls-34" d="M8.87,4.62s0,0-.07,0-.08,0-.08,0,0,0,.08,0S8.87,4.59,8.87,4.62Zm-.11.1a20.46,20.46,0,0,0,.38,2.39c0,.06-.08.08-.12,0a15.45,15.45,0,0,1-.35-2.41c0-.17.06-.19.14-.18s.13,0,.13.1S8.85,4.73,8.76,4.72Z"/><path class="cls-35" d="M9,5.06s-.05,0-.09,0-.06,0-.05-.06A.09.09,0,0,1,9,5S9,5,9,5.06Zm-.15.08a8.56,8.56,0,0,1-.26,2.34s-.12.06-.12,0a7.63,7.63,0,0,0,.3-2.36c.08-.17.15-.17.22-.14s.11.08.08.13A.19.19,0,0,1,8.85,5.14Z"/><path class="cls-36" d="M7.78,6.31a.09.09,0,0,1-.18,0,.09.09,0,0,1,.18,0Zm-.13.17c0,.74.43,3.91.47,4s-.1.13-.15,0a33.34,33.34,0,0,1-.44-4c0-.29.08-.31.17-.3a.18.18,0,0,1,.17.16A.19.19,0,0,1,7.65,6.48Z"/><path class="cls-37" d="M8,6.7a.08.08,0,0,1-.11,0,.07.07,0,0,1-.06-.1.11.11,0,0,1,.12,0A.08.08,0,0,1,8,6.7Zm-.19.12a16.46,16.46,0,0,1-.41,3.72c0,.09-.15.1-.15,0a14.74,14.74,0,0,0,.46-3.75c.1-.27.19-.27.28-.24a.16.16,0,0,1,.1.21A.21.21,0,0,1,7.81,6.82Z"/><path class="cls-6" d="M15.43,12.12l3,3.18.06-.06-3-3.19Zm-2.1.52,4,4.16.07-.06-4-4.17Z"/><path class="cls-7" d="M17.27,16.76l.37.36.42.32L17.74,17l-.37-.37Z"/><path class="cls-7" d="M18.29,15.13l.37.37.42.31-.32-.42L18.39,15Z"/><path class="cls-8" d="M18,4.78s.34,9-1,9a2.54,2.54,0,0,1-2-.94l0-4.94Z"/><path class="cls-9" d="M17.19,5.62c0,.47.15,7.2-.51,7.2A5.06,5.06,0,0,1,15,12.34l0-4.46Z"/><path class="cls-10" d="M16.76,6.07c0,.48-.08,5.8-.75,5.8H15l0-4Z"/><path class="cls-6" d="M18.08,4.83,15.06,8,15,8l3-3.18Z"/><path class="cls-38" d="M15.69,7.3A13.55,13.55,0,0,1,17,9.22c.41.84.88,2.12.88,2.12a11,11,0,0,0-.78-2.27A6.89,6.89,0,0,0,15.69,7.3Z"/><path class="cls-39" d="M15.67,6.43A16.67,16.67,0,0,1,17,8.77c.43,1,.91,2.49.91,2.49a11.81,11.81,0,0,0-.78-2.64A8.9,8.9,0,0,0,15.67,6.43Z"/><path class="cls-40" d="M16.48,5.11a26.43,26.43,0,0,1,.87,3.21c.2,1.23.33,2.92.33,2.92a12,12,0,0,0-.15-2.92A15.58,15.58,0,0,0,16.48,5.11Z"/><path class="cls-41" d="M15.88,5a21.35,21.35,0,0,1,1.29,3c.35,1.2.69,2.93.69,2.93a12.91,12.91,0,0,0-.51-3A11.88,11.88,0,0,0,15.88,5Z"/><path class="cls-42" d="M17,5.58s.46,1.9.58,3,.14,2.67.14,2.67a12.26,12.26,0,0,0,0-2.64A17.56,17.56,0,0,0,17,5.58Z"/><path class="cls-43" d="M15.77,5.63A17.47,17.47,0,0,1,17,8.2c.36,1.06.72,2.6.72,2.6a11.31,11.31,0,0,0-.55-2.71A9.17,9.17,0,0,0,15.77,5.63Z"/><path class="cls-44" d="M15.61,6.68A14,14,0,0,1,17,8.8c.43.92.91,2.31.91,2.31a10.33,10.33,0,0,0-.78-2.47A7.53,7.53,0,0,0,15.61,6.68Z"/><path class="cls-45" d="M15.73,6.13A17.67,17.67,0,0,1,17,8.56c.37,1,.77,2.54.77,2.54a12.22,12.22,0,0,0-.64-2.67A9.08,9.08,0,0,0,15.73,6.13Z"/><path class="cls-46" d="M16.67,5.14a25.72,25.72,0,0,1,.7,3.13c.13,1.19.17,2.82.17,2.82a11.49,11.49,0,0,0,0-2.81A15.17,15.17,0,0,0,16.67,5.14Z"/><path class="cls-47" d="M15.9,4.65A22.08,22.08,0,0,1,17,7.71c.3,1.22.55,3,.55,3a13.22,13.22,0,0,0-.37-3.07A12.38,12.38,0,0,0,15.9,4.65Z"/><path class="cls-48" d="M17.2,5.72a26.94,26.94,0,0,1,.4,2.9c0,1.08,0,2.54,0,2.54a11.09,11.09,0,0,0,.15-2.5A16.45,16.45,0,0,0,17.2,5.72Z"/><path class="cls-49" d="M15.8,5.41a18.28,18.28,0,0,1,1.11,2.66c.29,1.08.54,2.65.54,2.65A10.35,10.35,0,0,0,17.09,8,9.38,9.38,0,0,0,15.8,5.41Z"/><path class="cls-11" d="M19,6.62s.85,8.7-1.71,8.7c-2.14,0-2.14-1.37-2.57-1.37l.43-3.21L19,6.62Z"/><path class="cls-30" d="M18.13,7.54c0,.46.86,5.49-1.28,6.86-.86.46-2.14-.45-2.14,0l.43-3.66Z"/><path class="cls-31" d="M17.28,8.45c0,.46.42,4.12-.86,5-.86.91-3,.67-3,.67l1.72-3.42Z"/><path class="cls-6" d="M19,6.58l-4,4.17L15,10.68l4-4.16.07.07Z"/><path class="cls-32" d="M19.62,6.09l-.25,0-.08.08a.13.13,0,0,0,0,.17c.1.11.25,0,.25,0a.83.83,0,0,1-.19.4.4.4,0,0,1-.33.12s.17-.14.05-.25-.18,0-.18,0l-.15.14-.1-.1L19.26,6l0-.25.38-.06-.07.37Z"/><path class="cls-33" d="M19,4.34l-.3.47-.38.1.25.16h-.46l-.21.15-.07-.12.21-.15.16-.46,0,.31.24-.34L19,4.34Z"/><path class="cls-34" d="M17.8,4.62s0,0,.08,0,.07,0,.07,0a.07.07,0,0,0-.07,0S17.8,4.59,17.8,4.62Zm.11.1a20.46,20.46,0,0,1-.38,2.39c0,.06.08.08.12,0A14.35,14.35,0,0,0,18,4.71c0-.17-.06-.19-.13-.18s-.14,0-.14.1S17.82,4.73,17.91,4.72Z"/><path class="cls-35" d="M17.67,5.06s0,0,.09,0,.06,0,0-.06-.05,0-.09,0S17.65,5,17.67,5.06Zm.14.08a8.85,8.85,0,0,0,.27,2.34s.12.06.12,0a7.31,7.31,0,0,1-.3-2.36c-.08-.17-.15-.17-.22-.14s-.11.08-.08.13A.18.18,0,0,0,17.81,5.14Z"/><path class="cls-36" d="M18.89,6.31a.09.09,0,1,0,.18,0,.09.09,0,0,0-.18,0Zm.13.17c-.1,1.34-.26,2.67-.47,4,0,.09.1.13.15,0a35.48,35.48,0,0,0,.44-4c0-.29-.08-.31-.17-.3a.18.18,0,0,0-.17.16.19.19,0,0,0,.22.16Z"/><path class="cls-37" d="M18.66,6.7a.09.09,0,0,0,.12,0,.08.08,0,0,0,.06-.1.11.11,0,0,0-.12,0A.1.1,0,0,0,18.66,6.7Zm.19.12a16.18,16.18,0,0,0,.42,3.72c0,.09.14.1.14,0A14.94,14.94,0,0,1,19,6.76c-.11-.27-.2-.27-.29-.24a.18.18,0,0,0-.1.21A.21.21,0,0,0,18.85,6.82Z"/><path class="cls-31" d="M12,17.61a1.25,1.25,0,0,0,1.29,0V14h-.86A3.63,3.63,0,0,1,12,17.61Z"/><path class="cls-50" d="M12.64,14A11.29,11.29,0,0,1,12,17.7c.26,0,.43-.24.62-.57A13.66,13.66,0,0,0,12.9,14Z"/><path class="cls-50" d="M12.12,14c0,1.5-.65,2.9-.53,3.21s.53-.63,1.05-.12A13.59,13.59,0,0,0,12.9,14h-.78Z"/><path class="cls-51" d="M12.18,13.81c0,1.69-.59,1.81-.59,2.26a1.63,1.63,0,0,0,.59-.23,6,6,0,0,0,.26-2Z"/><path class="cls-51" d="M11.67,13.81c0,1-.64,1.83-.52,2s.52-.34,1,0a6,6,0,0,0,.26-2Z"/><path class="cls-31" d="M14.71,17.61a1.25,1.25,0,0,1-1.29,0V14h.86a3.63,3.63,0,0,0,.43,3.66Z"/><path class="cls-50" d="M14,14a11.29,11.29,0,0,0,.62,3.67c-.26,0-.43-.24-.62-.57a13.66,13.66,0,0,1-.26-3.1Z"/><path class="cls-50" d="M14.55,14c0,1.5.65,2.9.53,3.21s-.53-.63-1.05-.12a13.59,13.59,0,0,1-.26-3.1h.78Z"/><path class="cls-51" d="M14.49,13.81c0,1.69.59,1.81.59,2.26a1.63,1.63,0,0,1-.59-.23,5.72,5.72,0,0,1-.26-2Z"/><path class="cls-51" d="M15,13.81c0,1,.64,1.83.52,2s-.52-.34-1,0a5.72,5.72,0,0,1-.26-2Z"/><path class="cls-52" d="M10.07,14.23l-.45.33.45.32.22-.16.11.16.12.33.11-.33.11-.16h6v-.33h-6l-.11-.16c0-.16,0-.32.11-.32h.45a.62.62,0,0,0-.67-.49.63.63,0,0,0-.68.49h.45c.09,0,.11.16.11.32l-.11.16-.22-.16Z"/><path class="cls-53" d="M11.38,15h3.93v.2H11.39Zm0-.2h3.93V15H11.39Zm0-.2h3.93v.2H11.39Zm0-.2h3.93v.2H11.39Zm0-.2h3.93v.2H11.39Zm0-.2h3.93v.2H11.39Zm0-.2h3.93V14H11.39Z"/><path class="cls-54" d="M11.57,13.81,13,15.21h.2l-1.43-1.4Z"/><path class="cls-54" d="M11.57,15.25,13,13.85h.2l-1.43,1.4Z"/><path class="cls-55" d="M11.61,13.81v1.4h.21v-1.4Z"/><path class="cls-54" d="M13.42,13.81l1.43,1.4h.21l-1.44-1.4Z"/><path class="cls-54" d="M13.42,15.25l1.43-1.4h.21l-1.44,1.4Z"/><path class="cls-55" d="M14.9,13.81v1.4h.2v-1.4Z"/><path class="cls-55" d="M13.46,13.81v1.4h.21v-1.4Z"/><path class="cls-55" d="M13,13.81v1.4h.21v-1.4Z"/><path class="cls-11" d="M16.24,9.83c0,2.27-1.34,4.12-3,4.12s-3-1.85-3-4.12,1.34-4.12,3-4.12,3,1.84,3,4.12Zm-.43,0c0,2-1.15,3.66-2.57,3.66s-2.56-1.64-2.56-3.66,1.15-3.66,2.56-3.66S15.81,7.81,15.81,9.83Z"/><path class="cls-11" d="M14.41,6a2.28,2.28,0,0,0-2.33,0l.17.42a2,2,0,0,1,1-.28,2,2,0,0,1,1,.28L14.41,6Z"/><path class="cls-11" d="M14.42,13.51a2.3,2.3,0,0,1-1.17.33,2.38,2.38,0,0,1-1.16-.32l.16-.43a1.9,1.9,0,0,0,1,.29,1.88,1.88,0,0,0,1-.29l.17.43Z"/><path class="cls-56" d="M15.82,9.83c0,2-1.16,3.66-2.57,3.66s-2.57-1.64-2.57-3.66,1.15-3.67,2.57-3.67S15.82,7.8,15.82,9.83Z"/><path class="cls-57" d="M15.81,9.83a5.41,5.41,0,0,1-.28,1.74c0,.07-.27-.17-.4-.29s-.19.11-.35-.08-.27.05-.39-.11-1.24-.18-1.24-.19.68,0,.59-.29-.75,0-.84-.4-1.29-.4-1.38-.5c0,.15,1,.21.94.59,0,.15-.91.19-1,.32s.7,0,.73.16-.11,0-.52.13c-.2.06.38.26.16.38s-.68.16-.67.2c.08.23,1.08.51,1,.55a8,8,0,0,0-.72.38,4.56,4.56,0,0,1-.75-2.59,3.34,3.34,0,0,1,2-.36A10.3,10.3,0,0,1,15.81,9.83Z"/><path class="cls-58" d="M15.81,9.83c-.19,0-.39.09-.6.09s-.42-.09-.64-.09-.47.11-.69.11-.42-.11-.64-.11-.45.09-.68.09-.44-.09-.65-.09-.43.09-.64.09-.4-.09-.59-.09a5,5,0,0,1,.2-1.43c.65,0,.27-.4.65-.4a.74.74,0,0,1,.33.05.8.8,0,0,1,.28.2c.06,0,.35-.29.68-.25s.2.7.64.74a1.38,1.38,0,0,0,.64.35c.43.05,1.65-.06,1.66,0A4.53,4.53,0,0,1,15.81,9.83Z"/><path class="cls-59" d="M13.63,12c0-.11.12-.19.12-.37s-.1-.19-.11-.36.09-.14.13-.15.07.15.07.19,0-.09-.07-.09-.11,0-.11.05.13.15.12.38-.11.29-.11.36a2.19,2.19,0,0,0,0,.25.71.71,0,0,1-.08-.26Z"/><path class="cls-59" d="M14,11.94c0-.11-.11-.19-.11-.37s.1-.19.1-.36-.09-.13-.13-.13-.09.16-.09.19.05-.11.08-.11.12,0,.12.05-.12.15-.11.38.1.29.1.36a1.85,1.85,0,0,1,0,.25.71.71,0,0,0,.08-.26Z"/><path class="cls-6" d="M13.88,11c0,.05,0,.1-.07.1s-.06-.05-.06-.11,0-.1.06-.1S13.88,11,13.88,11Zm.7.37h0v.81h0Zm.17-.06h0v.82h0Z"/><path class="cls-6" d="M14.69,11.72v0l.17,0v0Z"/><path class="cls-60" d="M12.31,12a3.66,3.66,0,0,1,.77.47c.13.18.08.18.08.18l1.39.06c0-.09.25-.09.31-.3a1.37,1.37,0,0,0,.05-.26l-.44.15,0-.27h-.38l-.06.27-.82,0,0-.71-.16,0,0,.67a4.14,4.14,0,0,1-.8-.26Z"/><path class="cls-61" d="M11.05,7.75a7.64,7.64,0,0,1,2.22-.27,7.54,7.54,0,0,1,2.21.33s-.25-.48-.25-.48a8.58,8.58,0,0,0-2-.29,6.42,6.42,0,0,0-1.93.23Z"/><path class="cls-62" d="M12.75,7.07h.57V7.4h-.57Zm-1.3.18-.2.33.68-.08-.06-.32-.42.08ZM12,7.13l.57,0,0,.33-.56,0Zm2,0-.56,0,0,.33.56,0Zm1.22.21.2.4-.61-.15.07-.32.33.06Zm-.5-.13-.55-.07-.05.33.57.07Z"/><path class="cls-11" d="M13.27,7.93l-.06-.35-.18.3.07-.35-.28.2L13,7.44l-.33.07.28-.2-.33-.06L13,7.18,12.68,7l.33.07-.19-.29.28.2L13,6.62l.18.29.06-.34.06.34.19-.29L13.45,7l.27-.2-.18.29L13.86,7l-.27.19.32.07-.32.06.27.2-.32-.07.18.29-.27-.2.07.35-.19-.3Z"/><path class="cls-63" d="M13.75,7a.34.34,0,0,1-.35.35A.35.35,0,0,1,13.05,7a.35.35,0,0,1,.35-.35.35.35,0,0,1,.35.35Z"/><path class="cls-6" d="M13.36,7.11s0,0-.11,0-.12,0-.12,0,0,0,.12,0S13.36,7.08,13.36,7.11Zm.25,0s0,0-.08,0-.09,0-.09,0,0,0,.09,0S13.61,7.08,13.61,7.11Z"/><path class="cls-64" d="M13.35,7.25l0,0c-.06,0,0,0,.06.06a.26.26,0,0,0,.09-.09"/><path class="cls-65" d="M13.12,7.44l0,0c-.05-.06,0,0,.08,0a.28.28,0,0,0,.25-.11"/><path class="cls-66" d="M11.73,8.12a1.26,1.26,0,0,1-.22.75c-.25.41-.21.26-.21.26s.12.23.1.23a1.94,1.94,0,0,1-.2-.21L11,9.38A2.81,2.81,0,0,0,11.16,9s-.06-.13-.06-.13l.16-.06s.23-.43.23-.41-.69.47-.69.47l.93-.78Zm.15.12a1.74,1.74,0,0,0,.2.5.9.9,0,0,1,.09.37l.33.17-.42-.64.27.1Zm0,.87a1.57,1.57,0,0,1,.25.34,1.55,1.55,0,0,1,0,.26l-.1-.21-.13.19A1.41,1.41,0,0,0,12,9.38s-.16.1-.16.1a1.89,1.89,0,0,0,.06-.18A.8.8,0,0,0,11.88,9.11Zm-1.16.58a.84.84,0,0,1,.23-.1s-.1.16-.12.16A.12.12,0,0,1,10.72,9.69Zm2.67-.91s.5.31.5.33A2.33,2.33,0,0,1,13.56,9Zm-.91-.64s.74.6.72.6-.31-.17-.31-.14v.14l-.16-.33,0,.12-.21-.39Zm.17.93.2.39.19,0A4.57,4.57,0,0,0,12.65,9.07Zm.6-.25,0,.38s.11.1.11.08A2.69,2.69,0,0,0,13.25,8.82Z"/><path class="cls-67" d="M7.61,3.73a14.65,14.65,0,0,1,1.87-.84,12.55,12.55,0,0,1,2.26-.6c.29,0,.8.74.88.74a2.8,2.8,0,0,1,.85-.21c.42,0,.67.33.76.33H15c.09,0-.25-.82,0-.78a16.13,16.13,0,0,1,2.2.51c1,.32,2.42.9,2.42.9A22.27,22.27,0,0,1,16.67,4c-.09,0,0,.54-.13.32-.19,0-.9-.16-1-.16s-.36.14-.7.23-.76.21-.76.21l.55.86-.67.33s-.42-1-.59-1-.25.7-.46.66-.3-.66-.47-.83A5.89,5.89,0,0,0,11,4.33c-.34-.08-.88-.15-1.18-.23s-.59.21-.72.21.17-.25.05-.29-.21.12-.29.12a7.64,7.64,0,0,1-1.06-.21c-.08,0,.21-.2.13-.2Z"/><path class="cls-68" d="M13.89,3.32a.41.41,0,0,1-.42.41.41.41,0,0,1-.42-.41.42.42,0,0,1,.42-.42A.42.42,0,0,1,13.89,3.32Z"/><path class="cls-69" d="M11.76,3.4a.49.49,0,0,1,.42-.23c.05,0,.05-.15.18-.15s.1.13.19.18a5.45,5.45,0,0,0,.86-.05.24.24,0,0,1,.08.16.16.16,0,0,1-.08.15s-.77-.06-.82,0a.55.55,0,0,1-.23,0c-.13,0-.17-.15-.26-.15a.46.46,0,0,0-.34.09Z"/><path class="cls-70" d="M12.74,5.35a.88.88,0,0,1-.08-.14c0-.08-.06,0-.09-.15a2.43,2.43,0,0,0,0-.27.43.43,0,0,1-.17-.2c-.1-.09,0-.25,0-.37s-.12.15-.25.22,0-.15-.06-.29-.12.1-.15.18-.08.11-.17,0,.06-.26,0-.3-.2.21-.29.23,0-.2,0-.33-.17.35-.22.35,0-.35-.06-.34a1.67,1.67,0,0,1-.17.26c-.11,0,0-.24,0-.32s-.1.19-.16.2a.47.47,0,0,1-.17.09c0-.08.21-.25.2-.29s-.26.16-.35.18-.14,0-.15,0,.22-.19.25-.26a.71.71,0,0,0-.36.22.31.31,0,0,1-.23,0c0-.1.17-.29.2-.36a.74.74,0,0,1-.24.11s-.07.07-.06,0a.62.62,0,0,1,.12-.2c-.09,0-.12.07-.21.13S9.76,4,9.7,4a.68.68,0,0,1-.32.18.25.25,0,0,0-.16.09A.55.55,0,0,1,9.38,4a.37.37,0,0,1,.17-.18s.08,0,0,0A1.35,1.35,0,0,1,9.38,4C9.33,4,9.26,4,9.23,4s.09-.12.13-.2,0,0-.07,0A1.07,1.07,0,0,1,9.08,4C9,4,9,4,8.86,4.06s0-.06,0-.09.09-.13.18-.15.05,0,0,0a2.31,2.31,0,0,1-.19.14L8.63,4c-.11,0-.1,0,0-.05s.11,0,.12-.13a1.53,1.53,0,0,1-.25.16L8.33,4c0-.05.06-.1.12-.13s0,0-.08,0H8.09l0,0s.1-.07.09-.09a2.09,2.09,0,0,1-.17.14c-.05,0-.11,0-.11,0s.11-.11.15-.18a.22.22,0,0,0,.13-.06H8.15a1.15,1.15,0,0,0,.26,0c.15,0,0,0-.09,0s0,0,.11-.07l.19-.09.15-.08-.12,0,.25,0c.08,0,.16-.07.24-.12s0,0,0,0c.08,0,.19,0,.25-.07A1,1,0,0,0,9.57,3s.09-.09.15-.13.07.07.21.07a.27.27,0,0,0,.22-.09c.08,0,.1-.07.19-.09a1.14,1.14,0,0,0,.26,0,.78.78,0,0,0,.24-.13L11,2.53a.67.67,0,0,0,.21.09c.08,0,.13-.07.2-.09a.3.3,0,0,1,.17-.11c.11-.07.1,0,.15.09s.13,0,.21.06a.42.42,0,0,0,.13.18.23.23,0,0,0,.19.09c0,.05,0,.09.07.11a.67.67,0,0,0,.11.07m1.58.33h.3c.11,0,.14,0,.24,0h.26a2.17,2.17,0,0,0,.25,0c.16,0,.1,0,.07-.13A.52.52,0,0,0,15.1,3,2.14,2.14,0,0,1,15,2.77a.45.45,0,0,1,0-.26c.05.07.06.1.17.11s.16,0,.23,0,.12,0,.22,0,.1.07.17.11a.38.38,0,0,0,.24.06,1,1,0,0,1,.23.07c0,.07.12.08.22.09l.15,0h.28c.07.09.09.13.21.13a.65.65,0,0,0,.22.11h.28c.11,0,.14.06.23.09l.24.11a1.06,1.06,0,0,0,.25,0c.07,0,.15,0,.2.09a1.49,1.49,0,0,1,.25.07c.09,0,.13,0,.22.06s0,0-.07.07-.12,0-.23-.07-.14,0-.22-.06h0c.07,0,.14.08.11.18a2.06,2.06,0,0,1-.26,0,1,1,0,0,0-.25,0,.21.21,0,0,1,.21,0c0,.11,0,.07-.13.07a.7.7,0,0,0-.24-.09H17.7c.11,0,.14.06.21.11s0,0-.06.05a.49.49,0,0,0-.23-.11,1.19,1.19,0,0,1-.26,0c-.05,0,0-.08.08,0s.1.09.09.13a1.2,1.2,0,0,1-.2-.11.65.65,0,0,0-.27,0c-.09,0,0,0,.08.07s0,.07-.08,0-.17-.07-.24-.08l-.17,0a.18.18,0,0,1,.17.13c.1.08,0,.05-.09,0s-.13-.09-.17-.16-.1-.12,0,0,0,.15,0,.16-.05-.11-.13-.11-.13-.08-.17-.14-.08,0-.15-.06.14.16.19.24.11.11.17.16.09.09,0,0a.71.71,0,0,0-.26-.18c-.07-.06-.09-.09-.17-.15s-.06-.06,0,.06.13.17.19.23a1.37,1.37,0,0,0,.17.17s.07,0,0,0-.14-.1-.21-.16a.59.59,0,0,1-.2-.15,1.77,1.77,0,0,0-.17-.2c-.11,0,0,0,.06.11s.05.14.07.22-.1,0-.13,0a.64.64,0,0,0-.25-.12l-.22,0c-.08,0,.05.06.09.16s-.09,0-.15,0A1.27,1.27,0,0,0,15,4c-.12,0,0,0,0,.09s.07.11.06.13a1.72,1.72,0,0,0-.24,0,.8.8,0,0,1-.27,0c0,.06,0,0,.06.07s.11.07.09.11h-.54c-.06,0,0,0,.06.09s-.06,0-.13,0a1.29,1.29,0,0,1-.21-.06c-.05,0-.05,0-.09,0,.15.14.07.1.16.2s.06,0,0,0Z"/><path class="cls-71" d="M13.83,4.78h0s0,0,0,0,0,0,0,.07,0,.09,0,.15a.5.5,0,0,1,0,.13s-.1.07-.1.12,0,0,0-.07a.59.59,0,0,1-.06-.14A1.39,1.39,0,0,0,13.51,5s0-.06-.07-.12,0-.06,0-.08-.05,0-.1-.06l-.1,0-.12,0s0,0,0,.07a.46.46,0,0,0,0,.1.23.23,0,0,0,0,.1.12.12,0,0,1,0,.1s0,.08,0,.12,0,.05-.07.09,0,0-.09,0-.05,0-.08,0l0,0"/><path class="cls-72" d="M12.82,5.23a.63.63,0,0,1-.15.34,2.61,2.61,0,0,1-.41.3s.37-.17.41-.14-.24.35-.24.35a2.93,2.93,0,0,1,.41-.32s.15.31.19.3S13,5.67,13,5.6a2.39,2.39,0,0,0,0-.38Zm.85,0a.71.71,0,0,1-.15.37,2.18,2.18,0,0,1-.41.32s.37-.19.41-.15-.24.37-.24.37a3.7,3.7,0,0,1,.41-.34c.05,0,.15.33.19.32s-.08-.42-.06-.49,0-.41,0-.41Zm-1.19-2a.1.1,0,0,1-.09.08.08.08,0,1,1,.09-.08Z"/></g></svg>