<svg id="Layer_1" data-name="Layer 1" xmlns="http://www.w3.org/2000/svg" xmlns:xlink="http://www.w3.org/1999/xlink" viewBox="0 0 27 20"><defs><style>.cls-1{fill:none;}.cls-2{clip-path:url(#clip-path);}.cls-3{fill:#bd3d44;}.cls-3,.cls-4,.cls-5{fill-rule:evenodd;}.cls-4{fill:#fff;}.cls-5{fill:#192f5d;}</style><clipPath id="clip-path"><rect class="cls-1" width="26.67" height="20"/></clipPath></defs><title>usa</title><g class="cls-2"><path class="cls-3" d="M0,0H38V1.54H0ZM0,3.08H38V4.62H0ZM0,6.15H38V7.7H0ZM0,9.23H38v1.54H0Zm0,3.08H38v1.54H0Zm0,3.07H38v1.54H0Zm0,3.08H38V20H0Z"/><path class="cls-4" d="M0,1.54H38V3.08H0ZM0,4.62H38V6.15H0ZM0,7.69H38V9.23H0Zm0,3.08H38v1.54H0Zm0,3.08H38v1.54H0Zm0,3.07H38v1.54H0Z"/><path class="cls-5" d="M0,0H15.2V10.77H0Z"/><path class="cls-4" d="M1.27.46l.14.43h.44l-.36.26.14.43-.36-.27-.36.26L1,1.15.68.89h.45ZM3.8.46l.14.43h.45L4,1.15l.14.43L3.8,1.31l-.36.26.13-.42L3.21.89h.45Zm2.53,0,.14.43h.44l-.36.26.14.43-.36-.27L6,1.57l.14-.42L5.74.89h.45Zm2.54,0L9,.89h.45l-.36.26.14.43-.36-.27-.37.26.14-.42L8.28.89h.45Zm2.53,0,.14.43H12l-.36.26.14.43-.36-.27L11,1.57l.14-.42L10.82.89h.44Zm2.53,0,.14.43h.45l-.36.26.14.43-.37-.27-.36.26.14-.42L13.35.89h.45ZM2.54,1.54,2.67,2h.45l-.36.27.13.42-.35-.26-.36.26.12-.42L2,2H2.4Zm2.53,0L5.21,2h.44l-.36.27.14.42-.36-.26-.37.26.14-.42L4.48,2h.45Zm2.53,0L7.74,2h.45l-.37.27L8,2.65,7.6,2.39l-.36.26.14-.42L7,2h.44Zm2.53,0,.14.42h.45l-.36.27.14.42-.37-.26-.36.26.14-.42L9.55,2H10Zm2.54,0L12.8,2h.45l-.36.27.14.42-.36-.26-.37.26.14-.42L12.08,2h.45ZM1.27,2.61l.14.44h.44l-.36.26.14.42-.36-.26-.36.26L1,3.3.68,3h.45Zm2.53,0L3.94,3h.45L4,3.3l.14.43L3.8,3.46l-.36.27.13-.43L3.21,3h.45Zm2.53,0L6.47,3h.44l-.36.26.14.43-.36-.27L6,3.73l.14-.43L5.74,3h.45Zm2.54,0L9,3h.45l-.36.26.14.43-.36-.27-.37.27.14-.43L8.28,3h.45Zm2.53,0,.14.43H12l-.36.26.14.43-.36-.27L11,3.73l.14-.43L10.82,3h.44Zm2.53,0,.14.43h.45l-.36.26.14.43-.37-.27-.36.27.14-.43L13.35,3h.45ZM2.54,3.69l.13.43h.45l-.36.26.13.43-.35-.27-.37.26.14-.42L2,4.12h.44Zm2.53,0,.14.43h.44l-.36.26.14.43-.36-.27L4.7,4.8l.14-.42-.36-.26h.45Zm2.53,0,.14.43h.45l-.37.26L8,4.81,7.6,4.54l-.36.26.14-.42L7,4.12h.44Zm2.53,0,.14.43h.45l-.36.26.14.43-.37-.27-.36.26.14-.42-.36-.26H10Zm2.54,0,.13.43h.45l-.36.26.14.43-.36-.27-.37.26.14-.42-.36-.26h.45ZM1.27,4.77l.14.43h.44l-.36.26.14.43-.36-.27-.36.26L1,5.46.68,5.2h.45Zm2.53,0,.14.43h.45L4,5.46l.14.42L3.8,5.62l-.36.26.13-.42L3.21,5.2h.45Zm2.53,0,.14.43h.44l-.36.26.14.43-.36-.27L6,5.88l.14-.42L5.74,5.2h.45Zm2.54,0L9,5.2h.45l-.36.26.14.43-.36-.27-.37.26.14-.42L8.28,5.2h.45Zm2.53,0,.14.43H12l-.36.26.14.43-.36-.27L11,5.88l.14-.42-.36-.26h.44Zm2.53,0,.14.43h.45l-.36.26.14.43-.37-.27-.36.26.14-.42-.36-.26h.45ZM2.54,5.85l.13.42h.45l-.36.27L2.89,7,2.54,6.7,2.17,7l.14-.43L2,6.27h.44Zm2.53,0,.14.42h.44l-.36.27L5.43,7,5.07,6.7,4.7,7l.14-.43-.36-.26h.45Zm2.53,0,.14.42h.45l-.37.27L8,7,7.6,6.7,7.24,7l.14-.43L7,6.27h.44Zm2.53,0,.14.42h.45l-.36.27L10.5,7l-.37-.26L9.77,7l.14-.43-.36-.26H10Zm2.54,0,.13.42h.45l-.36.27L13,7l-.36-.26L12.3,7l.14-.43-.36-.26h.45ZM1.27,6.92l.14.43h.44l-.36.26L1.63,8l-.36-.27L.91,8,1,7.61.68,7.35h.45Zm2.53,0,.14.43h.45L4,7.61,4.16,8,3.8,7.77,3.44,8l.14-.43-.37-.26h.45Zm2.53,0,.14.43h.44l-.36.26L6.69,8l-.36-.27L6,8l.14-.43-.37-.26h.45Zm2.54,0L9,7.35h.45l-.36.26L9.23,8l-.36-.27L8.5,8l.14-.43-.36-.26h.45Zm2.53,0,.14.43H12l-.36.26.14.43-.36-.27L11,8l.14-.43-.36-.26h.44Zm2.53,0,.14.43h.45l-.36.26L14.3,8l-.37-.27L13.57,8l.14-.43-.36-.26h.45ZM2.54,8l.13.43h.45l-.36.26.13.43-.35-.27-.37.26.14-.42L2,8.43h.44ZM5.07,8l.14.43h.44l-.36.26.14.43-.36-.27-.37.26.14-.42-.36-.26h.45ZM7.6,8l.14.43h.45l-.37.26L8,9.12,7.6,8.85l-.36.26.14-.42L7,8.43h.44Zm2.53,0,.14.43h.45l-.36.26.14.43-.37-.27-.36.26.14-.42-.36-.26H10Zm2.54,0,.13.43h.45l-.36.26.14.43-.36-.27-.37.26.14-.42-.36-.26h.45ZM1.27,9.08l.14.42h.44l-.36.27.14.42-.36-.26-.36.26L1,9.76.68,9.5h.45Zm2.53,0,.14.42h.45L4,9.77l.14.42L3.8,9.93l-.36.26.14-.43L3.21,9.5h.45Zm2.53,0,.14.42h.44l-.35.27.14.42-.36-.26L6,10.19l.13-.43L5.75,9.5H6.2Zm2.54,0L9,9.5h.45l-.36.27.14.42-.36-.26-.37.26.14-.43L8.28,9.5h.45Zm2.53,0,.14.42H12l-.36.27.14.42-.36-.26-.36.26.14-.43-.36-.26h.44Zm2.53,0,.14.42h.45l-.36.27.14.42-.37-.26-.36.26.14-.43-.36-.26h.45Z"/></g></svg>