<svg width="942" height="1229" viewBox="0 0 942 1229" fill="none" xmlns="http://www.w3.org/2000/svg">
<g opacity="0.3">
<path d="M835.392 689.637C835.392 718.544 811.965 741.971 783.066 741.971C754.167 741.971 730.74 718.544 730.74 689.637C730.74 660.738 754.167 637.311 783.066 637.311C811.965 637.311 835.392 660.738 835.392 689.637Z" stroke="#BEBFBE"/>
<path d="M523.359 154.762C523.359 183.662 499.932 207.088 471.033 207.088C442.133 207.088 418.707 183.662 418.707 154.762C418.707 125.863 442.133 102.437 471.033 102.437C499.932 102.437 523.359 125.863 523.359 154.762Z" stroke="#BEBFBE"/>
<path d="M686.04 154.762C686.04 183.662 662.613 207.088 633.706 207.088C604.807 207.088 581.38 183.662 581.38 154.762C581.38 125.863 604.807 102.437 633.706 102.437C662.613 102.437 686.04 125.863 686.04 154.762Z" stroke="#BEBFBE"/>
<path d="M529.102 289.218C529.102 321.036 503.306 346.824 471.496 346.824C439.677 346.824 413.882 321.036 413.882 289.218C413.882 257.392 439.677 231.612 471.496 231.612C503.306 231.612 529.102 257.392 529.102 289.218Z" stroke="#BEBFBE"/>
<path d="M689.518 289.219C689.518 319.311 665.128 343.7 635.037 343.7C604.938 343.7 580.533 319.311 580.533 289.219C580.533 259.121 604.937 234.739 635.037 234.739C665.128 234.739 689.518 259.12 689.518 289.219Z" stroke="#BEBFBE"/>
<path d="M527.785 417.21C527.785 449.029 501.99 474.824 470.179 474.824C438.361 474.824 412.565 449.028 412.565 417.21C412.565 385.384 438.361 359.604 470.179 359.604C501.99 359.604 527.785 385.384 527.785 417.21Z" stroke="#BEBFBE"/>
<path d="M688.197 417.21C688.197 447.301 663.807 471.69 633.716 471.69C603.617 471.69 579.212 447.301 579.212 417.21C579.212 387.111 603.617 362.729 633.716 362.729C663.807 362.729 688.197 387.111 688.197 417.21Z" stroke="#BEBFBE"/>
<path d="M527.785 547.743C527.785 579.561 501.99 605.349 470.179 605.349C438.361 605.349 412.565 579.561 412.565 547.743C412.565 515.917 438.361 490.137 470.179 490.137C501.99 490.137 527.785 515.917 527.785 547.743Z" stroke="#BEBFBE"/>
<path d="M688.197 547.742C688.197 577.834 663.807 602.223 633.716 602.223C603.617 602.223 579.212 577.833 579.212 547.742C579.212 517.644 603.617 493.261 633.716 493.261C663.807 493.261 688.197 517.643 688.197 547.742Z" stroke="#BEBFBE"/>
<path d="M527.785 679.91C527.785 711.736 501.99 737.516 470.179 737.516C438.361 737.516 412.565 711.736 412.565 679.91C412.565 648.092 438.361 622.304 470.179 622.304C501.99 622.304 527.785 648.092 527.785 679.91Z" stroke="#BEBFBE"/>
<path d="M688.197 679.91C688.197 710.009 663.807 734.391 633.716 734.391C603.617 734.391 579.212 710.009 579.212 679.91C579.212 649.819 603.617 625.429 633.716 625.429C663.807 625.429 688.197 649.819 688.197 679.91Z" stroke="#BEBFBE"/>
<path d="M527.785 810.943C527.785 842.762 501.99 868.557 470.179 868.557C438.361 868.557 412.565 842.762 412.565 810.943C412.565 779.117 438.361 753.337 470.179 753.337C501.99 753.337 527.785 779.117 527.785 810.943Z" stroke="#BEBFBE"/>
<path d="M688.197 810.945C688.197 841.036 663.807 865.425 633.716 865.425C603.617 865.425 579.212 841.036 579.212 810.945C579.212 780.846 603.617 756.464 633.716 756.464C663.807 756.464 688.197 780.846 688.197 810.945Z" stroke="#BEBFBE"/>
<path d="M527.785 941.969C527.785 973.795 501.99 999.575 470.179 999.575C438.361 999.575 412.565 973.795 412.565 941.969C412.565 910.151 438.361 884.363 470.179 884.363C501.99 884.363 527.785 910.151 527.785 941.969Z" stroke="#BEBFBE"/>
<path d="M686.04 941.969C686.04 970.876 662.613 994.302 633.706 994.302C604.807 994.302 581.38 970.876 581.38 941.969C581.38 913.069 604.807 889.643 633.706 889.643C662.613 889.643 686.04 913.069 686.04 941.969Z" stroke="#BEBFBE"/>
<path d="M688.197 417.21C688.197 447.301 663.807 471.69 633.716 471.69C603.617 471.69 579.212 447.301 579.212 417.21C579.212 387.111 603.617 362.729 633.716 362.729C663.807 362.729 688.197 387.111 688.197 417.21Z" stroke="#BEBFBE"/>
<path d="M688.197 547.742C688.197 577.834 663.807 602.223 633.716 602.223C603.617 602.223 579.212 577.833 579.212 547.742C579.212 517.644 603.617 493.261 633.716 493.261C663.807 493.261 688.197 517.643 688.197 547.742Z" stroke="#BEBFBE"/>
<path d="M688.197 679.91C688.197 710.009 663.807 734.391 633.716 734.391C603.617 734.391 579.212 710.009 579.212 679.91C579.212 649.819 603.617 625.429 633.716 625.429C663.807 625.429 688.197 649.819 688.197 679.91Z" stroke="#BEBFBE"/>
<path d="M686.04 810.945C686.04 839.844 662.613 863.271 633.706 863.271C604.807 863.271 581.38 839.844 581.38 810.945C581.38 782.045 604.807 758.619 633.706 758.619C662.613 758.619 686.04 782.046 686.04 810.945Z" stroke="#BEBFBE"/>
<path d="M837.55 289.219C837.55 319.311 813.16 343.7 783.069 343.7C752.97 343.7 728.58 319.311 728.58 289.219C728.58 259.121 752.97 234.739 783.069 234.739C813.16 234.739 837.55 259.12 837.55 289.219Z" stroke="#BEBFBE"/>
<path d="M837.55 417.21C837.55 447.301 813.16 471.69 783.069 471.69C752.97 471.69 728.58 447.301 728.58 417.21C728.58 387.111 752.97 362.729 783.069 362.729C813.16 362.729 837.55 387.111 837.55 417.21Z" stroke="#BEBFBE"/>
<path d="M837.55 547.742C837.55 577.834 813.16 602.223 783.069 602.223C752.97 602.223 728.58 577.834 728.58 547.742C728.58 517.643 752.97 493.261 783.069 493.261C813.16 493.261 837.55 517.643 837.55 547.742Z" stroke="#BEBFBE"/>
<path d="M811.079 154.764C811.079 170.237 798.541 182.774 783.068 182.774C767.595 182.774 755.042 170.236 755.042 154.764C755.042 139.291 767.594 126.761 783.068 126.761C798.541 126.761 811.079 139.291 811.079 154.764Z" stroke="#BEBFBE"/>
<path d="M661.726 31.1528C661.726 46.6259 649.188 59.1634 633.715 59.1634C618.242 59.1634 605.697 46.6257 605.697 31.1528C605.697 15.6799 618.242 3.14221 633.715 3.14221C649.188 3.14221 661.726 15.6797 661.726 31.1528Z" stroke="#BEBFBE"/>
<path d="M498.189 28.5106C498.189 43.9836 485.652 56.5212 470.179 56.5212C454.706 56.5212 442.161 43.9835 442.161 28.5106C442.161 13.0377 454.706 0.5 470.179 0.5C485.652 0.5 498.189 13.0375 498.189 28.5106Z" stroke="#BEBFBE"/>
<path d="M340.438 32.473C340.438 47.9461 327.901 60.4836 312.428 60.4836C296.954 60.4836 284.409 47.9459 284.409 32.473C284.409 17.0001 296.954 4.4624 312.428 4.4624C327.901 4.4624 340.438 16.9999 340.438 32.473Z" stroke="#BEBFBE"/>
<path d="M940.178 547.744C940.178 563.217 927.641 575.747 912.168 575.747C896.694 575.747 884.149 563.216 884.149 547.744C884.149 532.271 896.694 519.733 912.168 519.733C927.641 519.733 940.178 532.271 940.178 547.744Z" stroke="#BEBFBE"/>
<path d="M940.178 417.21C940.178 432.683 927.641 445.221 912.168 445.221C896.694 445.221 884.149 432.683 884.149 417.21C884.149 401.738 896.694 389.2 912.168 389.2C927.641 389.2 940.178 401.737 940.178 417.21Z" stroke="#BEBFBE"/>
<path d="M941.5 289.219C941.5 304.692 928.962 317.229 913.489 317.229C898.016 317.229 885.471 304.692 885.471 289.219C885.471 273.746 898.016 261.208 913.489 261.208C928.962 261.208 941.5 273.746 941.5 289.219Z" stroke="#BEBFBE"/>
<path d="M56.5288 547.744C56.5288 563.217 43.9915 575.747 28.5182 575.747C13.0448 575.747 0.5 563.216 0.5 547.744C0.5 532.271 13.045 519.733 28.5182 519.733C43.9913 519.733 56.5288 532.271 56.5288 547.744Z" stroke="#BEBFBE"/>
<path d="M56.5288 676.579C56.5288 692.052 43.9913 704.589 28.5182 704.589C13.045 704.589 0.5 692.052 0.5 676.579C0.5 661.106 13.045 648.568 28.5182 648.568C43.9913 648.568 56.5288 661.106 56.5288 676.579Z" stroke="#BEBFBE"/>
<path d="M56.5288 417.21C56.5288 432.683 43.9913 445.221 28.5182 445.221C13.045 445.221 0.5 432.683 0.5 417.21C0.5 401.738 13.045 389.2 28.5182 389.2C43.9913 389.2 56.5288 401.737 56.5288 417.21Z" stroke="#BEBFBE"/>
<path d="M56.5288 289.219C56.5288 304.692 43.9913 317.229 28.5182 317.229C13.045 317.229 0.5 304.692 0.5 289.219C0.5 273.746 13.045 261.208 28.5182 261.208C43.9913 261.208 56.5288 273.746 56.5288 289.219Z" stroke="#BEBFBE"/>
<path d="M190.741 154.764C190.741 170.237 178.204 182.774 162.731 182.774C147.257 182.774 134.705 170.236 134.705 154.764C134.705 139.291 147.257 126.761 162.731 126.761C178.204 126.761 190.741 139.291 190.741 154.764Z" stroke="#BEBFBE"/>
<path d="M190.741 807.697C190.741 823.17 178.204 835.7 162.731 835.7C147.257 835.7 134.705 823.17 134.705 807.697C134.705 792.225 147.257 779.694 162.731 779.694C178.204 779.694 190.741 792.224 190.741 807.697Z" stroke="#BEBFBE"/>
<path d="M190.741 941.969C190.741 957.45 178.204 969.98 162.731 969.98C147.257 969.98 134.705 957.449 134.705 941.969C134.705 926.497 147.257 913.966 162.731 913.966C178.204 913.966 190.741 926.496 190.741 941.969Z" stroke="#BEBFBE"/>
<path d="M340.438 1071.68C340.438 1087.15 327.901 1099.68 312.428 1099.68C296.954 1099.68 284.409 1087.15 284.409 1071.68C284.409 1056.21 296.954 1043.68 312.428 1043.68C327.901 1043.68 340.438 1056.21 340.438 1071.68Z" stroke="#BEBFBE"/>
<path d="M661.726 1070.36C661.726 1085.83 649.188 1098.36 633.715 1098.36C618.242 1098.36 605.697 1085.83 605.697 1070.36C605.697 1054.89 618.242 1042.36 633.715 1042.36C649.188 1042.36 661.726 1054.89 661.726 1070.36Z" stroke="#BEBFBE"/>
<path d="M499.51 1199.78C499.51 1215.25 486.973 1227.78 471.5 1227.78C456.026 1227.78 443.481 1215.25 443.481 1199.78C443.481 1184.31 456.026 1171.78 471.5 1171.78C486.973 1171.78 499.51 1184.31 499.51 1199.78Z" stroke="#BEBFBE"/>
<path d="M217.212 289.219C217.212 319.311 192.823 343.7 162.724 343.7C132.632 343.7 108.243 319.311 108.243 289.219C108.243 259.12 132.632 234.739 162.724 234.739C192.823 234.739 217.212 259.121 217.212 289.219Z" stroke="#BEBFBE"/>
<path d="M217.212 417.21C217.212 447.301 192.823 471.69 162.724 471.69C132.632 471.69 108.243 447.301 108.243 417.21C108.243 387.111 132.632 362.729 162.724 362.729C192.823 362.729 217.212 387.111 217.212 417.21Z" stroke="#BEBFBE"/>
<path d="M217.212 679.91C217.212 710.009 192.823 734.391 162.724 734.391C132.632 734.391 108.243 710.009 108.243 679.91C108.243 649.819 132.632 625.429 162.724 625.429C192.823 625.429 217.212 649.819 217.212 679.91Z" stroke="#BEBFBE"/>
<path d="M215.051 547.742C215.051 576.641 191.624 600.068 162.725 600.068C133.826 600.068 110.399 576.641 110.399 547.742C110.399 518.843 133.826 495.416 162.725 495.416C191.624 495.416 215.051 518.843 215.051 547.742Z" stroke="#BEBFBE"/>
<path d="M215.051 679.91C215.051 708.809 191.624 732.236 162.725 732.236C133.826 732.236 110.399 708.809 110.399 679.91C110.399 651.011 133.826 627.584 162.725 627.584C191.624 627.584 215.051 651.011 215.051 679.91Z" stroke="#BEBFBE"/>
<path d="M364.748 156.083C364.748 184.983 341.322 208.409 312.422 208.409C283.516 208.409 260.089 184.983 260.089 156.083C260.089 127.184 283.516 103.757 312.422 103.757C341.322 103.757 364.748 127.184 364.748 156.083Z" stroke="#BEBFBE"/>
<path d="M366.913 290.538C366.913 320.63 342.523 345.019 312.432 345.019C282.333 345.019 257.943 320.63 257.943 290.538C257.943 260.439 282.333 236.057 312.432 236.057C342.523 236.057 366.913 260.439 366.913 290.538Z" stroke="#BEBFBE"/>
<path d="M366.913 418.53C366.913 448.622 342.523 473.011 312.432 473.011C282.333 473.011 257.943 448.622 257.943 418.53C257.943 388.431 282.333 364.049 312.432 364.049C342.523 364.049 366.913 388.431 366.913 418.53Z" stroke="#BEBFBE"/>
<path d="M366.913 549.06C366.913 579.159 342.523 603.54 312.432 603.54C282.333 603.54 257.943 579.158 257.943 549.06C257.943 518.968 282.333 494.579 312.432 494.579C342.523 494.579 366.913 518.968 366.913 549.06Z" stroke="#BEBFBE"/>
<path d="M366.913 679.522C366.913 709.621 342.523 734.003 312.432 734.003C282.333 734.003 257.943 709.621 257.943 679.522C257.943 649.423 282.333 625.041 312.432 625.041C342.523 625.041 366.913 649.423 366.913 679.522Z" stroke="#BEBFBE"/>
<path d="M366.913 810.547C366.913 840.646 342.523 865.028 312.432 865.028C282.333 865.028 257.943 840.646 257.943 810.547C257.943 780.456 282.333 756.074 312.432 756.074C342.523 756.074 366.913 780.456 366.913 810.547Z" stroke="#BEBFBE"/>
<path d="M364.748 941.582C364.748 970.481 341.322 993.908 312.422 993.908C283.516 993.908 260.089 970.481 260.089 941.582C260.089 912.683 283.516 889.256 312.422 889.256C341.322 889.256 364.748 912.683 364.748 941.582Z" stroke="#BEBFBE"/>
<path d="M366.913 549.06C366.913 579.159 342.523 603.54 312.432 603.54C282.333 603.54 257.943 579.158 257.943 549.06C257.943 518.968 282.333 494.579 312.432 494.579C342.523 494.579 366.913 518.968 366.913 549.06Z" stroke="#BEBFBE"/>
<path d="M366.913 679.522C366.913 709.621 342.523 734.003 312.432 734.003C282.333 734.003 257.943 709.621 257.943 679.522C257.943 649.423 282.333 625.041 312.432 625.041C342.523 625.041 366.913 649.423 366.913 679.522Z" stroke="#BEBFBE"/>
<path d="M366.913 810.547C366.913 840.646 342.523 865.028 312.432 865.028C282.333 865.028 257.943 840.646 257.943 810.547C257.943 780.456 282.333 756.074 312.432 756.074C342.523 756.074 366.913 780.456 366.913 810.547Z" stroke="#BEBFBE"/>
<path d="M522.505 1070.36C522.505 1099.26 499.078 1122.69 470.179 1122.69C441.272 1122.69 417.845 1099.26 417.845 1070.36C417.845 1041.46 441.272 1018.03 470.179 1018.03C499.078 1018.03 522.505 1041.46 522.505 1070.36Z" stroke="#BEBFBE"/>
</g>
</svg>
