<svg width="942" height="1229" viewBox="0 0 942 1229" fill="none" xmlns="http://www.w3.org/2000/svg">
<g opacity="0.15">
<path fill-rule="evenodd" clip-rule="evenodd" d="M835.892 689.637C835.892 718.82 812.241 742.471 783.066 742.471C753.891 742.471 730.24 718.82 730.24 689.637C730.24 660.462 753.891 636.811 783.066 636.811C812.241 636.811 835.892 660.462 835.892 689.637Z" fill="#80CEEB"/>
<path fill-rule="evenodd" clip-rule="evenodd" d="M523.859 154.762C523.859 183.938 500.208 207.588 471.033 207.588C441.857 207.588 418.207 183.938 418.207 154.762C418.207 125.587 441.857 101.936 471.033 101.936C500.208 101.936 523.859 125.587 523.859 154.762Z" fill="#80CEEB"/>
<path fill-rule="evenodd" clip-rule="evenodd" d="M686.54 154.762C686.54 183.938 662.889 207.588 633.706 207.588C604.531 207.588 580.88 183.938 580.88 154.762C580.88 125.587 604.531 101.936 633.706 101.936C662.889 101.936 686.54 125.587 686.54 154.762Z" fill="#80CEEB"/>
<path fill-rule="evenodd" clip-rule="evenodd" d="M529.602 289.218C529.602 321.313 503.583 347.324 471.496 347.324C439.401 347.324 413.382 321.313 413.382 289.218C413.382 257.116 439.401 231.112 471.496 231.112C503.583 231.112 529.602 257.116 529.602 289.218Z" fill="#80CEEB"/>
<path fill-rule="evenodd" clip-rule="evenodd" d="M690.018 289.219C690.018 319.587 665.404 344.2 635.037 344.2C604.662 344.2 580.033 319.587 580.033 289.219C580.033 258.844 604.662 234.238 635.037 234.238C665.404 234.238 690.018 258.844 690.018 289.219Z" fill="#80CEEB"/>
<path fill-rule="evenodd" clip-rule="evenodd" d="M528.285 417.21C528.285 449.304 502.266 475.324 470.179 475.324C438.085 475.324 412.065 449.304 412.065 417.21C412.065 385.108 438.085 359.104 470.179 359.104C502.266 359.104 528.285 385.108 528.285 417.21Z" fill="#80CEEB"/>
<path fill-rule="evenodd" clip-rule="evenodd" d="M688.697 417.209C688.697 447.577 664.083 472.19 633.716 472.19C603.341 472.19 578.712 447.577 578.712 417.209C578.712 386.834 603.341 362.229 633.716 362.229C664.083 362.229 688.697 386.834 688.697 417.209Z" fill="#80CEEB"/>
<path fill-rule="evenodd" clip-rule="evenodd" d="M528.285 547.743C528.285 579.837 502.266 605.849 470.179 605.849C438.085 605.849 412.065 579.837 412.065 547.743C412.065 515.641 438.085 489.637 470.179 489.637C502.266 489.637 528.285 515.641 528.285 547.743Z" fill="#80CEEB"/>
<path fill-rule="evenodd" clip-rule="evenodd" d="M688.697 547.742C688.697 578.11 664.083 602.723 633.716 602.723C603.341 602.723 578.712 578.11 578.712 547.742C578.712 517.367 603.341 492.761 633.716 492.761C664.083 492.761 688.697 517.367 688.697 547.742Z" fill="#80CEEB"/>
<path fill-rule="evenodd" clip-rule="evenodd" d="M528.285 679.91C528.285 712.012 502.266 738.016 470.179 738.016C438.085 738.016 412.065 712.012 412.065 679.91C412.065 647.816 438.085 621.804 470.179 621.804C502.266 621.804 528.285 647.816 528.285 679.91Z" fill="#80CEEB"/>
<path fill-rule="evenodd" clip-rule="evenodd" d="M688.697 679.91C688.697 710.285 664.083 734.891 633.716 734.891C603.341 734.891 578.712 710.285 578.712 679.91C578.712 649.543 603.341 624.929 633.716 624.929C664.083 624.929 688.697 649.543 688.697 679.91Z" fill="#80CEEB"/>
<path fill-rule="evenodd" clip-rule="evenodd" d="M528.285 810.943C528.285 843.038 502.266 869.057 470.179 869.057C438.085 869.057 412.065 843.038 412.065 810.943C412.065 778.841 438.085 752.837 470.179 752.837C502.266 752.837 528.285 778.841 528.285 810.943Z" fill="#80CEEB"/>
<path fill-rule="evenodd" clip-rule="evenodd" d="M688.697 810.945C688.697 841.312 664.083 865.926 633.716 865.926C603.341 865.926 578.712 841.312 578.712 810.945C578.712 780.57 603.341 755.964 633.716 755.964C664.083 755.964 688.697 780.57 688.697 810.945Z" fill="#80CEEB"/>
<path fill-rule="evenodd" clip-rule="evenodd" d="M528.285 941.969C528.285 974.071 502.266 1000.07 470.179 1000.07C438.085 1000.07 412.065 974.071 412.065 941.969C412.065 909.874 438.085 883.862 470.179 883.862C502.266 883.862 528.285 909.874 528.285 941.969Z" fill="#80CEEB"/>
<path fill-rule="evenodd" clip-rule="evenodd" d="M686.54 941.969C686.54 971.152 662.889 994.802 633.706 994.802C604.531 994.802 580.88 971.152 580.88 941.969C580.88 912.793 604.531 889.143 633.706 889.143C662.889 889.143 686.54 912.793 686.54 941.969Z" fill="#80CEEB"/>
<path fill-rule="evenodd" clip-rule="evenodd" d="M688.697 417.209C688.697 447.577 664.083 472.19 633.716 472.19C603.341 472.19 578.712 447.577 578.712 417.209C578.712 386.834 603.341 362.229 633.716 362.229C664.083 362.229 688.697 386.834 688.697 417.209Z" fill="#80CEEB"/>
<path fill-rule="evenodd" clip-rule="evenodd" d="M688.697 547.742C688.697 578.11 664.083 602.723 633.716 602.723C603.341 602.723 578.712 578.11 578.712 547.742C578.712 517.367 603.341 492.761 633.716 492.761C664.083 492.761 688.697 517.367 688.697 547.742Z" fill="#80CEEB"/>
<path fill-rule="evenodd" clip-rule="evenodd" d="M688.697 679.91C688.697 710.285 664.083 734.891 633.716 734.891C603.341 734.891 578.712 710.285 578.712 679.91C578.712 649.543 603.341 624.929 633.716 624.929C664.083 624.929 688.697 649.543 688.697 679.91Z" fill="#80CEEB"/>
<path fill-rule="evenodd" clip-rule="evenodd" d="M686.54 810.945C686.54 840.12 662.889 863.771 633.706 863.771C604.531 863.771 580.88 840.12 580.88 810.945C580.88 781.769 604.531 758.119 633.706 758.119C662.889 758.119 686.54 781.769 686.54 810.945Z" fill="#80CEEB"/>
<path fill-rule="evenodd" clip-rule="evenodd" d="M838.05 289.219C838.05 319.587 813.436 344.2 783.069 344.2C752.694 344.2 728.08 319.587 728.08 289.219C728.08 258.844 752.694 234.238 783.069 234.238C813.436 234.238 838.05 258.844 838.05 289.219Z" fill="#80CEEB"/>
<path fill-rule="evenodd" clip-rule="evenodd" d="M838.05 417.209C838.05 447.577 813.436 472.19 783.069 472.19C752.694 472.19 728.08 447.577 728.08 417.209C728.08 386.834 752.694 362.229 783.069 362.229C813.436 362.229 838.05 386.834 838.05 417.209Z" fill="#80CEEB"/>
<path fill-rule="evenodd" clip-rule="evenodd" d="M838.05 547.742C838.05 578.11 813.436 602.723 783.069 602.723C752.694 602.723 728.08 578.11 728.08 547.742C728.08 517.367 752.694 492.761 783.069 492.761C813.436 492.761 838.05 517.367 838.05 547.742Z" fill="#80CEEB"/>
<path fill-rule="evenodd" clip-rule="evenodd" d="M811.579 154.764C811.579 170.513 798.817 183.274 783.068 183.274C767.319 183.274 754.542 170.513 754.542 154.764C754.542 139.014 767.319 126.261 783.068 126.261C798.817 126.261 811.579 139.014 811.579 154.764Z" fill="#80CEEB"/>
<path fill-rule="evenodd" clip-rule="evenodd" d="M662.226 31.1527C662.226 46.9019 649.464 59.6633 633.715 59.6633C617.966 59.6633 605.197 46.9019 605.197 31.1527C605.197 15.4035 617.966 2.64209 633.715 2.64209C649.464 2.64209 662.226 15.4035 662.226 31.1527Z" fill="#80CEEB"/>
<path fill-rule="evenodd" clip-rule="evenodd" d="M498.689 28.5106C498.689 44.2598 485.928 57.0212 470.179 57.0212C454.43 57.0212 441.661 44.2598 441.661 28.5106C441.661 12.7614 454.43 0 470.179 0C485.928 0 498.689 12.7614 498.689 28.5106Z" fill="#80CEEB"/>
<path fill-rule="evenodd" clip-rule="evenodd" d="M340.938 32.4727C340.938 48.222 328.177 60.9833 312.428 60.9833C296.678 60.9833 283.909 48.222 283.909 32.4727C283.909 16.7235 296.678 3.96216 312.428 3.96216C328.177 3.96216 340.938 16.7235 340.938 32.4727Z" fill="#80CEEB"/>
<path fill-rule="evenodd" clip-rule="evenodd" d="M940.678 547.744C940.678 563.493 927.917 576.246 912.168 576.246C896.418 576.246 883.649 563.493 883.649 547.744C883.649 531.994 896.418 519.233 912.168 519.233C927.917 519.233 940.678 531.994 940.678 547.744Z" fill="#80CEEB"/>
<path fill-rule="evenodd" clip-rule="evenodd" d="M940.678 417.21C940.678 432.959 927.917 445.721 912.168 445.721C896.418 445.721 883.649 432.959 883.649 417.21C883.649 401.461 896.418 388.699 912.168 388.699C927.917 388.699 940.678 401.461 940.678 417.21Z" fill="#80CEEB"/>
<path fill-rule="evenodd" clip-rule="evenodd" d="M942 289.219C942 304.968 929.238 317.729 913.489 317.729C897.74 317.729 884.971 304.968 884.971 289.219C884.971 273.469 897.74 260.708 913.489 260.708C929.238 260.708 942 273.469 942 289.219Z" fill="#80CEEB"/>
<path fill-rule="evenodd" clip-rule="evenodd" d="M57.0288 547.744C57.0288 563.493 44.2674 576.246 28.5182 576.246C12.769 576.246 0 563.493 0 547.744C0 531.994 12.769 519.233 28.5182 519.233C44.2674 519.233 57.0288 531.994 57.0288 547.744Z" fill="#80CEEB"/>
<path fill-rule="evenodd" clip-rule="evenodd" d="M57.0288 676.579C57.0288 692.328 44.2674 705.09 28.5182 705.09C12.769 705.09 0 692.328 0 676.579C0 660.83 12.769 648.068 28.5182 648.068C44.2674 648.068 57.0288 660.83 57.0288 676.579Z" fill="#80CEEB"/>
<path fill-rule="evenodd" clip-rule="evenodd" d="M57.0288 417.21C57.0288 432.959 44.2674 445.721 28.5182 445.721C12.769 445.721 0 432.959 0 417.21C0 401.461 12.769 388.699 28.5182 388.699C44.2674 388.699 57.0288 401.461 57.0288 417.21Z" fill="#80CEEB"/>
<path fill-rule="evenodd" clip-rule="evenodd" d="M57.0288 289.219C57.0288 304.968 44.2674 317.729 28.5182 317.729C12.769 317.729 0 304.968 0 289.219C0 273.469 12.769 260.708 28.5182 260.708C44.2674 260.708 57.0288 273.469 57.0288 289.219Z" fill="#80CEEB"/>
<path fill-rule="evenodd" clip-rule="evenodd" d="M191.241 154.764C191.241 170.513 178.48 183.274 162.731 183.274C146.981 183.274 134.205 170.513 134.205 154.764C134.205 139.014 146.981 126.261 162.731 126.261C178.48 126.261 191.241 139.014 191.241 154.764Z" fill="#80CEEB"/>
<path fill-rule="evenodd" clip-rule="evenodd" d="M191.241 807.697C191.241 823.447 178.48 836.2 162.731 836.2C146.981 836.2 134.205 823.447 134.205 807.697C134.205 791.948 146.981 779.194 162.731 779.194C178.48 779.194 191.241 791.948 191.241 807.697Z" fill="#80CEEB"/>
<path fill-rule="evenodd" clip-rule="evenodd" d="M191.241 941.969C191.241 957.726 178.48 970.479 162.731 970.479C146.981 970.479 134.205 957.726 134.205 941.969C134.205 926.22 146.981 913.466 162.731 913.466C178.48 913.466 191.241 926.22 191.241 941.969Z" fill="#80CEEB"/>
<path fill-rule="evenodd" clip-rule="evenodd" d="M340.938 1071.68C340.938 1087.43 328.177 1100.18 312.428 1100.18C296.678 1100.18 283.909 1087.43 283.909 1071.68C283.909 1055.93 296.678 1043.18 312.428 1043.18C328.177 1043.18 340.938 1055.93 340.938 1071.68Z" fill="#80CEEB"/>
<path fill-rule="evenodd" clip-rule="evenodd" d="M662.226 1070.36C662.226 1086.11 649.464 1098.86 633.715 1098.86C617.966 1098.86 605.197 1086.11 605.197 1070.36C605.197 1054.61 617.966 1041.86 633.715 1041.86C649.464 1041.86 662.226 1054.61 662.226 1070.36Z" fill="#80CEEB"/>
<path fill-rule="evenodd" clip-rule="evenodd" d="M500.01 1199.78C500.01 1215.53 487.249 1228.28 471.5 1228.28C455.75 1228.28 442.981 1215.53 442.981 1199.78C442.981 1184.03 455.75 1171.28 471.5 1171.28C487.249 1171.28 500.01 1184.03 500.01 1199.78Z" fill="#80CEEB"/>
<path fill-rule="evenodd" clip-rule="evenodd" d="M217.712 289.219C217.712 319.587 193.099 344.2 162.724 344.2C132.356 344.2 107.743 319.587 107.743 289.219C107.743 258.844 132.356 234.238 162.724 234.238C193.099 234.238 217.712 258.844 217.712 289.219Z" fill="#80CEEB"/>
<path fill-rule="evenodd" clip-rule="evenodd" d="M217.712 417.209C217.712 447.577 193.099 472.19 162.724 472.19C132.356 472.19 107.743 447.577 107.743 417.209C107.743 386.834 132.356 362.229 162.724 362.229C193.099 362.229 217.712 386.834 217.712 417.209Z" fill="#80CEEB"/>
<path fill-rule="evenodd" clip-rule="evenodd" d="M217.712 679.91C217.712 710.285 193.099 734.891 162.724 734.891C132.356 734.891 107.743 710.285 107.743 679.91C107.743 649.543 132.356 624.929 162.724 624.929C193.099 624.929 217.712 649.543 217.712 679.91Z" fill="#80CEEB"/>
<path fill-rule="evenodd" clip-rule="evenodd" d="M215.551 547.742C215.551 576.917 191.901 600.568 162.725 600.568C133.55 600.568 109.899 576.917 109.899 547.742C109.899 518.567 133.55 494.916 162.725 494.916C191.901 494.916 215.551 518.567 215.551 547.742Z" fill="#80CEEB"/>
<path fill-rule="evenodd" clip-rule="evenodd" d="M215.551 679.91C215.551 709.085 191.901 732.736 162.725 732.736C133.55 732.736 109.899 709.085 109.899 679.91C109.899 650.735 133.55 627.084 162.725 627.084C191.901 627.084 215.551 650.735 215.551 679.91Z" fill="#80CEEB"/>
<path fill-rule="evenodd" clip-rule="evenodd" d="M365.248 156.083C365.248 185.259 341.598 208.909 312.422 208.909C283.239 208.909 259.589 185.259 259.589 156.083C259.589 126.908 283.239 103.257 312.422 103.257C341.598 103.257 365.248 126.908 365.248 156.083Z" fill="#80CEEB"/>
<path fill-rule="evenodd" clip-rule="evenodd" d="M367.413 290.538C367.413 320.906 342.799 345.519 312.432 345.519C282.057 345.519 257.443 320.906 257.443 290.538C257.443 260.163 282.057 235.557 312.432 235.557C342.799 235.557 367.413 260.163 367.413 290.538Z" fill="#80CEEB"/>
<path fill-rule="evenodd" clip-rule="evenodd" d="M367.413 418.53C367.413 448.897 342.799 473.511 312.432 473.511C282.057 473.511 257.443 448.897 257.443 418.53C257.443 388.155 282.057 363.549 312.432 363.549C342.799 363.549 367.413 388.155 367.413 418.53Z" fill="#80CEEB"/>
<path fill-rule="evenodd" clip-rule="evenodd" d="M367.413 549.059C367.413 579.435 342.799 604.04 312.432 604.04C282.057 604.04 257.443 579.435 257.443 549.059C257.443 518.692 282.057 494.079 312.432 494.079C342.799 494.079 367.413 518.692 367.413 549.059Z" fill="#80CEEB"/>
<path fill-rule="evenodd" clip-rule="evenodd" d="M367.413 679.522C367.413 709.897 342.799 734.503 312.432 734.503C282.057 734.503 257.443 709.897 257.443 679.522C257.443 649.147 282.057 624.541 312.432 624.541C342.799 624.541 367.413 649.147 367.413 679.522Z" fill="#80CEEB"/>
<path fill-rule="evenodd" clip-rule="evenodd" d="M367.413 810.546C367.413 840.922 342.799 865.527 312.432 865.527C282.057 865.527 257.443 840.922 257.443 810.546C257.443 780.179 282.057 755.573 312.432 755.573C342.799 755.573 367.413 780.179 367.413 810.546Z" fill="#80CEEB"/>
<path fill-rule="evenodd" clip-rule="evenodd" d="M365.248 941.582C365.248 970.757 341.598 994.408 312.422 994.408C283.239 994.408 259.589 970.757 259.589 941.582C259.589 912.406 283.239 888.756 312.422 888.756C341.598 888.756 365.248 912.406 365.248 941.582Z" fill="#80CEEB"/>
<path fill-rule="evenodd" clip-rule="evenodd" d="M367.413 549.059C367.413 579.435 342.799 604.04 312.432 604.04C282.057 604.04 257.443 579.435 257.443 549.059C257.443 518.692 282.057 494.079 312.432 494.079C342.799 494.079 367.413 518.692 367.413 549.059Z" fill="#80CEEB"/>
<path fill-rule="evenodd" clip-rule="evenodd" d="M367.413 679.522C367.413 709.897 342.799 734.503 312.432 734.503C282.057 734.503 257.443 709.897 257.443 679.522C257.443 649.147 282.057 624.541 312.432 624.541C342.799 624.541 367.413 649.147 367.413 679.522Z" fill="#80CEEB"/>
<path fill-rule="evenodd" clip-rule="evenodd" d="M367.413 810.546C367.413 840.922 342.799 865.527 312.432 865.527C282.057 865.527 257.443 840.922 257.443 810.546C257.443 780.179 282.057 755.573 312.432 755.573C342.799 755.573 367.413 780.179 367.413 810.546Z" fill="#80CEEB"/>
<path fill-rule="evenodd" clip-rule="evenodd" d="M523.005 1070.36C523.005 1099.54 499.354 1123.19 470.179 1123.19C440.996 1123.19 417.345 1099.54 417.345 1070.36C417.345 1041.18 440.996 1017.53 470.179 1017.53C499.354 1017.53 523.005 1041.18 523.005 1070.36Z" fill="#80CEEB"/>
</g>
</svg>
