<svg width="32" height="32" viewBox="0 0 32 32" fill="none" xmlns="http://www.w3.org/2000/svg">
<circle cx="16" cy="16" r="15.5" stroke="white"/>
<path d="M15.9062 11.9053C15.3613 11.9053 14.8516 12.0459 14.377 12.3271C13.9199 12.5908 13.5508 12.96 13.2695 13.4346C13.0059 13.8916 12.874 14.3926 12.874 14.9375C12.874 15.4824 13.0059 15.9922 13.2695 16.4668C13.5508 16.9238 13.9199 17.293 14.377 17.5742C14.8516 17.8379 15.3613 17.9697 15.9062 17.9697C16.4512 17.9697 16.9521 17.8379 17.4092 17.5742C17.8838 17.293 18.2529 16.9238 18.5166 16.4668C18.7979 15.9922 18.9385 15.4824 18.9385 14.9375C18.9385 14.3926 18.7979 13.8916 18.5166 13.4346C18.2529 12.96 17.8838 12.5908 17.4092 12.3271C16.9521 12.0459 16.4512 11.9053 15.9062 11.9053ZM15.9062 16.915C15.3613 16.915 14.8955 16.7217 14.5088 16.335C14.1221 15.9482 13.9287 15.4824 13.9287 14.9375C13.9287 14.3926 14.1221 13.9268 14.5088 13.54C14.8955 13.1533 15.3613 12.96 15.9062 12.96C16.4512 12.96 16.917 13.1533 17.3037 13.54C17.6904 13.9268 17.8838 14.3926 17.8838 14.9375C17.8838 15.4824 17.6904 15.9482 17.3037 16.335C16.917 16.7217 16.4512 16.915 15.9062 16.915ZM19.7822 11.7734C19.7646 11.9668 19.6855 12.1338 19.5449 12.2744C19.4219 12.415 19.2637 12.4854 19.0703 12.4854C18.877 12.4854 18.71 12.415 18.5693 12.2744C18.4287 12.1338 18.3584 11.9668 18.3584 11.7734C18.3584 11.5801 18.4287 11.4131 18.5693 11.2725C18.71 11.1318 18.877 11.0615 19.0703 11.0615C19.2637 11.0615 19.4307 11.1318 19.5713 11.2725C19.7119 11.4131 19.7822 11.5801 19.7822 11.7734ZM21.7861 12.4854C21.751 11.9756 21.6719 11.5361 21.5488 11.167C21.3906 10.7275 21.1445 10.3496 20.8105 10.0332C20.4941 9.69922 20.1162 9.45312 19.6768 9.29492C19.3076 9.17188 18.8682 9.10156 18.3584 9.08398C17.8662 9.04883 17.0488 9.03125 15.9062 9.03125C14.7637 9.03125 13.9375 9.04883 13.4277 9.08398C12.9355 9.10156 12.5049 9.17188 12.1357 9.29492C11.6963 9.45312 11.3096 9.69922 10.9756 10.0332C10.6592 10.3496 10.4219 10.7275 10.2637 11.167C10.1406 11.5361 10.0615 11.9756 10.0264 12.4854C10.0088 12.9775 10 13.7949 10 14.9375C10 16.0801 10.0088 16.9062 10.0264 17.416C10.0615 17.9082 10.1406 18.3389 10.2637 18.708C10.4219 19.1475 10.6592 19.5342 10.9756 19.8682C11.3096 20.1846 11.6963 20.4131 12.1357 20.5537C12.5049 20.6943 12.9355 20.7734 13.4277 20.791C13.9375 20.8262 14.7637 20.8438 15.9062 20.8438C17.0488 20.8438 17.8662 20.8262 18.3584 20.791C18.8682 20.7734 19.3076 20.7031 19.6768 20.5801C20.1162 20.4219 20.4941 20.1846 20.8105 19.8682C21.1445 19.5342 21.3906 19.1475 21.5488 18.708C21.6719 18.3389 21.7422 17.9082 21.7598 17.416C21.7949 16.9062 21.8125 16.0801 21.8125 14.9375C21.8125 13.7949 21.8037 12.9775 21.7861 12.4854ZM20.5205 18.418C20.3096 18.9453 19.9316 19.3232 19.3867 19.5518C19.1055 19.6572 18.6309 19.7275 17.9629 19.7627C17.5938 19.7803 17.0488 19.7891 16.3281 19.7891H15.4844C14.7812 19.7891 14.2363 19.7803 13.8496 19.7627C13.1992 19.7275 12.7246 19.6572 12.4258 19.5518C11.8984 19.3408 11.5205 18.9629 11.292 18.418C11.1865 18.1191 11.1162 17.6445 11.0811 16.9941C11.0635 16.6074 11.0547 16.0625 11.0547 15.3594V14.5156C11.0547 13.8125 11.0635 13.2676 11.0811 12.8809C11.1162 12.2129 11.1865 11.7383 11.292 11.457C11.5029 10.9121 11.8809 10.5342 12.4258 10.3232C12.7246 10.2178 13.1992 10.1475 13.8496 10.1123C14.2363 10.0947 14.7812 10.0859 15.4844 10.0859H16.3281C17.0312 10.0859 17.5762 10.0947 17.9629 10.1123C18.6309 10.1475 19.1055 10.2178 19.3867 10.3232C19.9316 10.5342 20.3096 10.9121 20.5205 11.457C20.626 11.7383 20.6963 12.2129 20.7314 12.8809C20.749 13.25 20.7578 13.7949 20.7578 14.5156V15.3594C20.7578 16.0625 20.749 16.6074 20.7314 16.9941C20.6963 17.6445 20.626 18.1191 20.5205 18.418Z" fill="white"/>
</svg>
