<svg width="142" height="65" viewBox="0 0 142 65" fill="none" xmlns="http://www.w3.org/2000/svg">
<path fill-rule="evenodd" clip-rule="evenodd" d="M43.9048 36.2229C43.9048 37.7557 42.6625 38.9979 41.1301 38.9979C39.5977 38.9979 38.3555 37.7557 38.3555 36.2229C38.3555 34.6905 39.5977 33.4482 41.1301 33.4482C42.6625 33.4482 43.9048 34.6905 43.9048 36.2229Z" fill="#8CC654"/>
<path fill-rule="evenodd" clip-rule="evenodd" d="M27.5153 8.1289C27.5153 9.66132 26.273 10.9036 24.7406 10.9036C23.2082 10.9036 21.9659 9.66132 21.9659 8.1289C21.9659 6.59648 23.2082 5.35425 24.7406 5.35425C26.273 5.35425 27.5153 6.59648 27.5153 8.1289Z" fill="#00A7E0"/>
<path fill-rule="evenodd" clip-rule="evenodd" d="M36.0601 8.1289C36.0601 9.66132 34.8179 10.9036 33.285 10.9036C31.7526 10.9036 30.5104 9.66132 30.5104 8.1289C30.5104 6.59648 31.7526 5.35425 33.285 5.35425C34.8179 5.35425 36.0601 6.59648 36.0601 8.1289Z" fill="#00A7E0"/>
<path fill-rule="evenodd" clip-rule="evenodd" d="M27.817 15.1909C27.817 16.8767 26.4504 18.2429 24.765 18.2429C23.0793 18.2429 21.7126 16.8767 21.7126 15.1909C21.7126 13.5048 23.0793 12.1389 24.765 12.1389C26.4504 12.1389 27.817 13.5048 27.817 15.1909Z" fill="#00A7E0"/>
<path fill-rule="evenodd" clip-rule="evenodd" d="M36.2428 15.1911C36.2428 16.7861 34.95 18.0789 33.355 18.0789C31.7595 18.0789 30.4659 16.7861 30.4659 15.1911C30.4659 13.5956 31.7595 12.3032 33.355 12.3032C34.95 12.3032 36.2428 13.5956 36.2428 15.1911Z" fill="#00A7E0"/>
<path fill-rule="evenodd" clip-rule="evenodd" d="M27.748 21.9138C27.748 23.5996 26.3813 24.9662 24.696 24.9662C23.0102 24.9662 21.6436 23.5996 21.6436 21.9138C21.6436 20.2277 23.0102 18.8618 24.696 18.8618C26.3813 18.8618 27.748 20.2277 27.748 21.9138Z" fill="#00A7E0"/>
<path fill-rule="evenodd" clip-rule="evenodd" d="M36.1735 21.9137C36.1735 23.5088 34.8807 24.8016 33.2857 24.8016C31.6902 24.8016 30.3966 23.5088 30.3966 21.9137C30.3966 20.3183 31.6902 19.0259 33.2857 19.0259C34.8807 19.0259 36.1735 20.3183 36.1735 21.9137Z" fill="#00A7E0"/>
<path fill-rule="evenodd" clip-rule="evenodd" d="M27.748 28.7698C27.748 30.4555 26.3813 31.8218 24.696 31.8218C23.0102 31.8218 21.6436 30.4555 21.6436 28.7698C21.6436 27.0836 23.0102 25.7178 24.696 25.7178C26.3813 25.7178 27.748 27.0836 27.748 28.7698Z" fill="#00A7E0"/>
<path fill-rule="evenodd" clip-rule="evenodd" d="M36.1735 28.7699C36.1735 30.365 34.8807 31.6578 33.2857 31.6578C31.6902 31.6578 30.3966 30.365 30.3966 28.7699C30.3966 27.1745 31.6902 25.8821 33.2857 25.8821C34.8807 25.8821 36.1735 27.1745 36.1735 28.7699Z" fill="#00A7E0"/>
<path fill-rule="evenodd" clip-rule="evenodd" d="M27.748 35.7119C27.748 37.3981 26.3813 38.7639 24.696 38.7639C23.0102 38.7639 21.6436 37.3981 21.6436 35.7119C21.6436 34.0262 23.0102 32.6599 24.696 32.6599C26.3813 32.6599 27.748 34.0262 27.748 35.7119Z" fill="#00A7E0"/>
<path fill-rule="evenodd" clip-rule="evenodd" d="M36.1735 35.7118C36.1735 37.3072 34.8807 38.5997 33.2857 38.5997C31.6902 38.5997 30.3966 37.3072 30.3966 35.7118C30.3966 34.1168 31.6902 32.824 33.2857 32.824C34.8807 32.824 36.1735 34.1168 36.1735 35.7118Z" fill="#00A7E0"/>
<path fill-rule="evenodd" clip-rule="evenodd" d="M27.748 42.5942C27.748 44.28 26.3813 45.6466 24.696 45.6466C23.0102 45.6466 21.6436 44.28 21.6436 42.5942C21.6436 40.9081 23.0102 39.5422 24.696 39.5422C26.3813 39.5422 27.748 40.9081 27.748 42.5942Z" fill="#00A7E0"/>
<path fill-rule="evenodd" clip-rule="evenodd" d="M36.1735 42.5944C36.1735 44.1894 34.8807 45.4822 33.2857 45.4822C31.6902 45.4822 30.3966 44.1894 30.3966 42.5944C30.3966 40.9989 31.6902 39.7065 33.2857 39.7065C34.8807 39.7065 36.1735 40.9989 36.1735 42.5944Z" fill="#00A7E0"/>
<path fill-rule="evenodd" clip-rule="evenodd" d="M27.748 49.4763C27.748 51.1625 26.3813 52.5283 24.696 52.5283C23.0102 52.5283 21.6436 51.1625 21.6436 49.4763C21.6436 47.7906 23.0102 46.4243 24.696 46.4243C26.3813 46.4243 27.748 47.7906 27.748 49.4763Z" fill="#00A7E0"/>
<path fill-rule="evenodd" clip-rule="evenodd" d="M36.0601 49.4763C36.0601 51.0091 34.8179 52.2514 33.285 52.2514C31.7526 52.2514 30.5104 51.0091 30.5104 49.4763C30.5104 47.9439 31.7526 46.7017 33.285 46.7017C34.8179 46.7017 36.0601 47.9439 36.0601 49.4763Z" fill="#00A7E0"/>
<path fill-rule="evenodd" clip-rule="evenodd" d="M36.1735 21.9137C36.1735 23.5088 34.8807 24.8016 33.2857 24.8016C31.6902 24.8016 30.3966 23.5088 30.3966 21.9137C30.3966 20.3183 31.6902 19.0259 33.2857 19.0259C34.8807 19.0259 36.1735 20.3183 36.1735 21.9137Z" fill="#00A7E0"/>
<path fill-rule="evenodd" clip-rule="evenodd" d="M36.1735 28.7699C36.1735 30.365 34.8807 31.6578 33.2857 31.6578C31.6902 31.6578 30.3966 30.365 30.3966 28.7699C30.3966 27.1745 31.6902 25.8821 33.2857 25.8821C34.8807 25.8821 36.1735 27.1745 36.1735 28.7699Z" fill="#00A7E0"/>
<path fill-rule="evenodd" clip-rule="evenodd" d="M36.1735 35.7118C36.1735 37.3072 34.8807 38.5997 33.2857 38.5997C31.6902 38.5997 30.3966 37.3072 30.3966 35.7118C30.3966 34.1168 31.6902 32.824 33.2857 32.824C34.8807 32.824 36.1735 34.1168 36.1735 35.7118Z" fill="#00A7E0"/>
<path fill-rule="evenodd" clip-rule="evenodd" d="M36.0601 42.5945C36.0601 44.1269 34.8179 45.3691 33.285 45.3691C31.7526 45.3691 30.5104 44.1269 30.5104 42.5945C30.5104 41.0621 31.7526 39.8198 33.285 39.8198C34.8179 39.8198 36.0601 41.0621 36.0601 42.5945Z" fill="#00A7E0"/>
<path fill-rule="evenodd" clip-rule="evenodd" d="M44.0181 15.1911C44.0181 16.7861 42.7253 18.0789 41.1303 18.0789C39.5349 18.0789 38.2421 16.7861 38.2421 15.1911C38.2421 13.5956 39.5349 12.3032 41.1303 12.3032C42.7253 12.3032 44.0181 13.5956 44.0181 15.1911Z" fill="#00A7E0"/>
<path fill-rule="evenodd" clip-rule="evenodd" d="M44.0181 21.9137C44.0181 23.5088 42.7253 24.8016 41.1303 24.8016C39.5349 24.8016 38.2421 23.5088 38.2421 21.9137C38.2421 20.3183 39.5349 19.0259 41.1303 19.0259C42.7253 19.0259 44.0181 20.3183 44.0181 21.9137Z" fill="#00A7E0"/>
<path fill-rule="evenodd" clip-rule="evenodd" d="M44.0181 28.7699C44.0181 30.365 42.7253 31.6578 41.1303 31.6578C39.5349 31.6578 38.2421 30.365 38.2421 28.7699C38.2421 27.1745 39.5349 25.8821 41.1303 25.8821C42.7253 25.8821 44.0181 27.1745 44.0181 28.7699Z" fill="#00A7E0"/>
<path fill-rule="evenodd" clip-rule="evenodd" d="M42.6276 8.12894C42.6276 8.95616 41.9574 9.62644 41.1301 9.62644C40.3029 9.62644 39.6318 8.95616 39.6318 8.12894C39.6318 7.30172 40.3029 6.63184 41.1301 6.63184C41.9574 6.63184 42.6276 7.30172 42.6276 8.12894Z" fill="#00A7E0"/>
<path fill-rule="evenodd" clip-rule="evenodd" d="M34.783 1.63617C34.783 2.46339 34.1127 3.13368 33.2855 3.13368C32.4583 3.13368 31.7876 2.46339 31.7876 1.63617C31.7876 0.808956 32.4583 0.138672 33.2855 0.138672C34.1127 0.138672 34.783 0.808956 34.783 1.63617Z" fill="#00A7E0"/>
<path fill-rule="evenodd" clip-rule="evenodd" d="M26.1934 1.4975C26.1934 2.32472 25.5231 2.99501 24.6959 2.99501C23.8687 2.99501 23.198 2.32472 23.198 1.4975C23.198 0.670284 23.8687 0 24.6959 0C25.5231 0 26.1934 0.670284 26.1934 1.4975Z" fill="#00A7E0"/>
<path fill-rule="evenodd" clip-rule="evenodd" d="M17.9075 1.70551C17.9075 2.53273 17.2372 3.20301 16.41 3.20301C15.5828 3.20301 14.9121 2.53273 14.9121 1.70551C14.9121 0.878292 15.5828 0.208008 16.41 0.208008C17.2372 0.208008 17.9075 0.878292 17.9075 1.70551Z" fill="#00A7E0"/>
<path fill-rule="evenodd" clip-rule="evenodd" d="M49.4086 28.77C49.4086 29.5972 48.7383 30.2671 47.9111 30.2671C47.0839 30.2671 46.4132 29.5972 46.4132 28.77C46.4132 27.9427 47.0839 27.2725 47.9111 27.2725C48.7383 27.2725 49.4086 27.9427 49.4086 28.77Z" fill="#00A7E0"/>
<path fill-rule="evenodd" clip-rule="evenodd" d="M49.4086 21.9138C49.4086 22.741 48.7383 23.4113 47.9111 23.4113C47.0839 23.4113 46.4132 22.741 46.4132 21.9138C46.4132 21.0865 47.0839 20.4163 47.9111 20.4163C48.7383 20.4163 49.4086 21.0865 49.4086 21.9138Z" fill="#00A7E0"/>
<path fill-rule="evenodd" clip-rule="evenodd" d="M49.4779 15.1911C49.4779 16.0183 48.8077 16.6886 47.9804 16.6886C47.1532 16.6886 46.4825 16.0183 46.4825 15.1911C46.4825 14.3639 47.1532 13.6936 47.9804 13.6936C48.8077 13.6936 49.4779 14.3639 49.4779 15.1911Z" fill="#00A7E0"/>
<path fill-rule="evenodd" clip-rule="evenodd" d="M2.99541 28.77C2.99541 29.5972 2.32512 30.2671 1.4979 30.2671C0.670685 30.2671 0 29.5972 0 28.77C0 27.9427 0.670685 27.2725 1.4979 27.2725C2.32512 27.2725 2.99541 27.9427 2.99541 28.77Z" fill="#00A7E0"/>
<path fill-rule="evenodd" clip-rule="evenodd" d="M2.99541 35.5371C2.99541 36.3643 2.32512 37.0346 1.4979 37.0346C0.670685 37.0346 0 36.3643 0 35.5371C0 34.7098 0.670685 34.0396 1.4979 34.0396C2.32512 34.0396 2.99541 34.7098 2.99541 35.5371Z" fill="#00A7E0"/>
<path fill-rule="evenodd" clip-rule="evenodd" d="M2.99541 21.9138C2.99541 22.741 2.32512 23.4113 1.4979 23.4113C0.670685 23.4113 0 22.741 0 21.9138C0 21.0865 0.670685 20.4163 1.4979 20.4163C2.32512 20.4163 2.99541 21.0865 2.99541 21.9138Z" fill="#00A7E0"/>
<path fill-rule="evenodd" clip-rule="evenodd" d="M2.99541 15.1911C2.99541 16.0183 2.32512 16.6886 1.4979 16.6886C0.670685 16.6886 0 16.0183 0 15.1911C0 14.3639 0.670685 13.6936 1.4979 13.6936C2.32512 13.6936 2.99541 14.3639 2.99541 15.1911Z" fill="#00A7E0"/>
<path fill-rule="evenodd" clip-rule="evenodd" d="M10.0449 8.12894C10.0449 8.95616 9.3746 9.62644 8.54738 9.62644C7.72016 9.62644 7.04907 8.95616 7.04907 8.12894C7.04907 7.30172 7.72016 6.63184 8.54738 6.63184C9.3746 6.63184 10.0449 7.30172 10.0449 8.12894Z" fill="#00A7E0"/>
<path fill-rule="evenodd" clip-rule="evenodd" d="M10.0449 42.4239C10.0449 43.2511 9.3746 43.921 8.54738 43.921C7.72016 43.921 7.04907 43.2511 7.04907 42.4239C7.04907 41.5966 7.72016 40.9268 8.54738 40.9268C9.3746 40.9268 10.0449 41.5966 10.0449 42.4239Z" fill="#00A7E0"/>
<path fill-rule="evenodd" clip-rule="evenodd" d="M10.0449 49.4764C10.0449 50.304 9.3746 50.9739 8.54738 50.9739C7.72016 50.9739 7.04907 50.304 7.04907 49.4764C7.04907 48.6491 7.72016 47.9792 8.54738 47.9792C9.3746 47.9792 10.0449 48.6491 10.0449 49.4764Z" fill="#00A7E0"/>
<path fill-rule="evenodd" clip-rule="evenodd" d="M17.9075 56.2896C17.9075 57.1168 17.2372 57.7867 16.41 57.7867C15.5828 57.7867 14.9121 57.1168 14.9121 56.2896C14.9121 55.4624 15.5828 54.7925 16.41 54.7925C17.2372 54.7925 17.9075 55.4624 17.9075 56.2896Z" fill="#00A7E0"/>
<path fill-rule="evenodd" clip-rule="evenodd" d="M34.783 56.22C34.783 57.0472 34.1127 57.7171 33.2855 57.7171C32.4583 57.7171 31.7876 57.0472 31.7876 56.22C31.7876 55.3928 32.4583 54.7229 33.2855 54.7229C34.1127 54.7229 34.783 55.3928 34.783 56.22Z" fill="#00A7E0"/>
<path fill-rule="evenodd" clip-rule="evenodd" d="M26.2627 63.0179C26.2627 63.8451 25.5925 64.515 24.7652 64.515C23.938 64.515 23.2673 63.8451 23.2673 63.0179C23.2673 62.1906 23.938 61.5208 24.7652 61.5208C25.5925 61.5208 26.2627 62.1906 26.2627 63.0179Z" fill="#00A7E0"/>
<path fill-rule="evenodd" clip-rule="evenodd" d="M11.4353 15.1911C11.4353 16.7861 10.1425 18.0789 8.54702 18.0789C6.95199 18.0789 5.65918 16.7861 5.65918 15.1911C5.65918 13.5956 6.95199 12.3032 8.54702 12.3032C10.1425 12.3032 11.4353 13.5956 11.4353 15.1911Z" fill="#00A7E0"/>
<path fill-rule="evenodd" clip-rule="evenodd" d="M11.4353 21.9137C11.4353 23.5088 10.1425 24.8016 8.54702 24.8016C6.95199 24.8016 5.65918 23.5088 5.65918 21.9137C5.65918 20.3183 6.95199 19.0259 8.54702 19.0259C10.1425 19.0259 11.4353 20.3183 11.4353 21.9137Z" fill="#00A7E0"/>
<path fill-rule="evenodd" clip-rule="evenodd" d="M11.4353 35.7118C11.4353 37.3072 10.1425 38.5997 8.54702 38.5997C6.95199 38.5997 5.65918 37.3072 5.65918 35.7118C5.65918 34.1168 6.95199 32.824 8.54702 32.824C10.1425 32.824 11.4353 34.1168 11.4353 35.7118Z" fill="#00A7E0"/>
<path fill-rule="evenodd" clip-rule="evenodd" d="M11.3216 28.77C11.3216 30.3024 10.0794 31.5447 8.54699 31.5447C7.01457 31.5447 5.77234 30.3024 5.77234 28.77C5.77234 27.2376 7.01457 25.9954 8.54699 25.9954C10.0794 25.9954 11.3216 27.2376 11.3216 28.77Z" fill="#00A7E0"/>
<path fill-rule="evenodd" clip-rule="evenodd" d="M11.3216 35.7119C11.3216 37.2443 10.0794 38.4866 8.54699 38.4866C7.01457 38.4866 5.77234 37.2443 5.77234 35.7119C5.77234 34.1795 7.01457 32.9373 8.54699 32.9373C10.0794 32.9373 11.3216 34.1795 11.3216 35.7119Z" fill="#00A7E0"/>
<path fill-rule="evenodd" clip-rule="evenodd" d="M19.1845 8.19824C19.1845 9.73066 17.9422 10.9729 16.4098 10.9729C14.877 10.9729 13.6348 9.73066 13.6348 8.19824C13.6348 6.66582 14.877 5.42358 16.4098 5.42358C17.9422 5.42358 19.1845 6.66582 19.1845 8.19824Z" fill="#00A7E0"/>
<path fill-rule="evenodd" clip-rule="evenodd" d="M19.2981 15.2604C19.2981 16.8554 18.0052 18.1482 16.4102 18.1482C14.8148 18.1482 13.522 16.8554 13.522 15.2604C13.522 13.665 14.8148 12.3726 16.4102 12.3726C18.0052 12.3726 19.2981 13.665 19.2981 15.2604Z" fill="#00A7E0"/>
<path fill-rule="evenodd" clip-rule="evenodd" d="M19.2981 21.9831C19.2981 23.5781 18.0052 24.8709 16.4102 24.8709C14.8148 24.8709 13.522 23.5781 13.522 21.9831C13.522 20.3876 14.8148 19.0952 16.4102 19.0952C18.0052 19.0952 19.2981 20.3876 19.2981 21.9831Z" fill="#00A7E0"/>
<path fill-rule="evenodd" clip-rule="evenodd" d="M19.2981 28.839C19.2981 30.4344 18.0052 31.7269 16.4102 31.7269C14.8148 31.7269 13.522 30.4344 13.522 28.839C13.522 27.244 14.8148 25.9512 16.4102 25.9512C18.0052 25.9512 19.2981 27.244 19.2981 28.839Z" fill="#00A7E0"/>
<path fill-rule="evenodd" clip-rule="evenodd" d="M19.2981 35.6916C19.2981 37.287 18.0052 38.5794 16.4102 38.5794C14.8148 38.5794 13.522 37.287 13.522 35.6916C13.522 34.0961 14.8148 32.8037 16.4102 32.8037C18.0052 32.8037 19.2981 34.0961 19.2981 35.6916Z" fill="#00A7E0"/>
<path fill-rule="evenodd" clip-rule="evenodd" d="M19.2981 42.5737C19.2981 44.1692 18.0052 45.4616 16.4102 45.4616C14.8148 45.4616 13.522 44.1692 13.522 42.5737C13.522 40.9787 14.8148 39.6863 16.4102 39.6863C18.0052 39.6863 19.2981 40.9787 19.2981 42.5737Z" fill="#00A7E0"/>
<path fill-rule="evenodd" clip-rule="evenodd" d="M19.1845 49.4561C19.1845 50.9885 17.9422 52.2307 16.4098 52.2307C14.877 52.2307 13.6348 50.9885 13.6348 49.4561C13.6348 47.9236 14.877 46.6814 16.4098 46.6814C17.9422 46.6814 19.1845 47.9236 19.1845 49.4561Z" fill="#00A7E0"/>
<path fill-rule="evenodd" clip-rule="evenodd" d="M19.2981 28.839C19.2981 30.4344 18.0052 31.7269 16.4102 31.7269C14.8148 31.7269 13.522 30.4344 13.522 28.839C13.522 27.244 14.8148 25.9512 16.4102 25.9512C18.0052 25.9512 19.2981 27.244 19.2981 28.839Z" fill="#00A7E0"/>
<path fill-rule="evenodd" clip-rule="evenodd" d="M19.2981 35.6916C19.2981 37.287 18.0052 38.5794 16.4102 38.5794C14.8148 38.5794 13.522 37.287 13.522 35.6916C13.522 34.0961 14.8148 32.8037 16.4102 32.8037C18.0052 32.8037 19.2981 34.0961 19.2981 35.6916Z" fill="#00A7E0"/>
<path fill-rule="evenodd" clip-rule="evenodd" d="M19.2981 42.5737C19.2981 44.1692 18.0052 45.4616 16.4102 45.4616C14.8148 45.4616 13.522 44.1692 13.522 42.5737C13.522 40.9787 14.8148 39.6863 16.4102 39.6863C18.0052 39.6863 19.2981 40.9787 19.2981 42.5737Z" fill="#00A7E0"/>
<path fill-rule="evenodd" clip-rule="evenodd" d="M27.4705 56.22C27.4705 57.7524 26.2283 58.9946 24.6958 58.9946C23.163 58.9946 21.9208 57.7524 21.9208 56.22C21.9208 54.6875 23.163 53.4453 24.6958 53.4453C26.2283 53.4453 27.4705 54.6875 27.4705 56.22Z" fill="#00A7E0"/>
<path fill-rule="evenodd" clip-rule="evenodd" d="M141.614 64.0653H136.133V51.2557C136.133 48.7897 134.207 46.7828 131.838 46.7828C129.469 46.7828 127.542 48.7897 127.542 51.2557V64.0653H122.063V51.2557C122.063 45.7674 126.448 41.3018 131.838 41.3018C137.228 41.3018 141.614 45.7674 141.614 51.2557V64.0653Z" fill="#173E88"/>
<path fill-rule="evenodd" clip-rule="evenodd" d="M73.2478 65.0001C67.8574 65.0001 63.472 60.5345 63.472 55.0462V41.7292H68.9523V55.0462C68.9523 57.513 70.8797 59.5199 73.2478 59.5199C75.6158 59.5199 77.5432 57.513 77.5432 55.0462V41.7292H83.0227V55.0462C83.0227 60.5345 78.6381 65.0001 73.2478 65.0001Z" fill="#173E88"/>
<path fill-rule="evenodd" clip-rule="evenodd" d="M92.1248 64.0001H86.6442V48.1485C86.6442 44.5912 89.5288 41.7065 93.0869 41.7065H98.2509V47.1868H94.0606C92.9914 47.1868 92.1248 48.0538 92.1248 49.1226V64.0001Z" fill="#173E88"/>
<path fill-rule="evenodd" clip-rule="evenodd" d="M109.157 64.7558C106.484 64.7558 103.396 64.234 101.466 62.7225C99.8783 61.4782 99.0391 59.7042 99.0391 57.5922C99.0391 54.6606 100.461 52.97 101.656 52.0682C104.71 49.7599 109.919 50.1741 113.127 50.738V48.6116C113.127 47.8317 112.493 47.1988 111.713 47.1988H102.308V41.7185H112.018C115.656 41.7185 118.606 44.6682 118.606 48.3066V62.2729C118.606 62.8011 118.246 63.2619 117.733 63.3887L116.523 63.687C115.576 63.9201 112.472 64.7558 109.157 64.7558ZM104.519 57.1154C104.519 60.1742 108.961 60.5655 113.127 59.5786V55.2675C111.541 54.5655 104.519 53.6078 104.519 57.1154Z" fill="#173E88"/>
<path fill-rule="evenodd" clip-rule="evenodd" d="M38.609 64.0001H44.0897V41.729H38.609V64.0001Z" fill="#173E88"/>
<path fill-rule="evenodd" clip-rule="evenodd" d="M55.3033 47.2406H60.4364V41.76H55.3041C54.6704 41.76 54.0591 41.8491 53.4731 42.002V33.4753H47.9928V55.746H48.008V57.7015C48.008 61.2175 50.859 64.0692 54.3757 64.0692H60.3521V58.5877H54.8562C54.1004 58.5877 53.4887 57.9756 53.4887 57.2203V49.0552C53.4887 48.0526 54.3011 47.2406 55.3033 47.2406Z" fill="#173E88"/>
</svg>
