<svg width="142" height="65" viewBox="0 0 142 65" fill="none" xmlns="http://www.w3.org/2000/svg">
<path fill-rule="evenodd" clip-rule="evenodd" d="M43.9047 36.2229C43.9047 37.7557 42.6624 38.9979 41.13 38.9979C39.5976 38.9979 38.3553 37.7557 38.3553 36.2229C38.3553 34.6905 39.5976 33.4482 41.13 33.4482C42.6624 33.4482 43.9047 34.6905 43.9047 36.2229Z" fill="#8CC654"/>
<path fill-rule="evenodd" clip-rule="evenodd" d="M27.5152 8.12914C27.5152 9.66156 26.273 10.9038 24.7406 10.9038C23.2082 10.9038 21.9659 9.66156 21.9659 8.12914C21.9659 6.59672 23.2082 5.35449 24.7406 5.35449C26.273 5.35449 27.5152 6.59672 27.5152 8.12914Z" fill="#00A7E0"/>
<path fill-rule="evenodd" clip-rule="evenodd" d="M36.06 8.12914C36.06 9.66156 34.8177 10.9038 33.2849 10.9038C31.7525 10.9038 30.5103 9.66156 30.5103 8.12914C30.5103 6.59672 31.7525 5.35449 33.2849 5.35449C34.8177 5.35449 36.06 6.59672 36.06 8.12914Z" fill="#00A7E0"/>
<path fill-rule="evenodd" clip-rule="evenodd" d="M27.817 15.1912C27.817 16.8769 26.4504 18.2432 24.765 18.2432C23.0793 18.2432 21.7126 16.8769 21.7126 15.1912C21.7126 13.505 23.0793 12.1392 24.765 12.1392C26.4504 12.1392 27.817 13.505 27.817 15.1912Z" fill="#00A7E0"/>
<path fill-rule="evenodd" clip-rule="evenodd" d="M36.2428 15.1911C36.2428 16.7861 34.95 18.0789 33.355 18.0789C31.7595 18.0789 30.4659 16.7861 30.4659 15.1911C30.4659 13.5956 31.7595 12.3032 33.355 12.3032C34.95 12.3032 36.2428 13.5956 36.2428 15.1911Z" fill="#00A7E0"/>
<path fill-rule="evenodd" clip-rule="evenodd" d="M27.748 21.9138C27.748 23.5996 26.3813 24.9662 24.696 24.9662C23.0102 24.9662 21.6436 23.5996 21.6436 21.9138C21.6436 20.2277 23.0102 18.8618 24.696 18.8618C26.3813 18.8618 27.748 20.2277 27.748 21.9138Z" fill="#00A7E0"/>
<path fill-rule="evenodd" clip-rule="evenodd" d="M36.1735 21.9137C36.1735 23.5088 34.8807 24.8016 33.2857 24.8016C31.6902 24.8016 30.3966 23.5088 30.3966 21.9137C30.3966 20.3183 31.6902 19.0259 33.2857 19.0259C34.8807 19.0259 36.1735 20.3183 36.1735 21.9137Z" fill="#00A7E0"/>
<path fill-rule="evenodd" clip-rule="evenodd" d="M27.748 28.7698C27.748 30.4555 26.3813 31.8218 24.696 31.8218C23.0102 31.8218 21.6436 30.4555 21.6436 28.7698C21.6436 27.0836 23.0102 25.7178 24.696 25.7178C26.3813 25.7178 27.748 27.0836 27.748 28.7698Z" fill="#00A7E0"/>
<path fill-rule="evenodd" clip-rule="evenodd" d="M36.1735 28.7697C36.1735 30.3647 34.8807 31.6575 33.2857 31.6575C31.6902 31.6575 30.3966 30.3647 30.3966 28.7697C30.3966 27.1742 31.6902 25.8818 33.2857 25.8818C34.8807 25.8818 36.1735 27.1742 36.1735 28.7697Z" fill="#00A7E0"/>
<path fill-rule="evenodd" clip-rule="evenodd" d="M27.748 35.7117C27.748 37.3978 26.3813 38.7637 24.696 38.7637C23.0102 38.7637 21.6436 37.3978 21.6436 35.7117C21.6436 34.0259 23.0102 32.6597 24.696 32.6597C26.3813 32.6597 27.748 34.0259 27.748 35.7117Z" fill="#00A7E0"/>
<path fill-rule="evenodd" clip-rule="evenodd" d="M36.1735 35.7121C36.1735 37.3075 34.8807 38.5999 33.2857 38.5999C31.6902 38.5999 30.3966 37.3075 30.3966 35.7121C30.3966 34.117 31.6902 32.8242 33.2857 32.8242C34.8807 32.8242 36.1735 34.117 36.1735 35.7121Z" fill="#00A7E0"/>
<path fill-rule="evenodd" clip-rule="evenodd" d="M27.748 42.5945C27.748 44.2802 26.3813 45.6469 24.696 45.6469C23.0102 45.6469 21.6436 44.2802 21.6436 42.5945C21.6436 40.9083 23.0102 39.5425 24.696 39.5425C26.3813 39.5425 27.748 40.9083 27.748 42.5945Z" fill="#00A7E0"/>
<path fill-rule="evenodd" clip-rule="evenodd" d="M36.1735 42.5944C36.1735 44.1894 34.8807 45.4822 33.2857 45.4822C31.6902 45.4822 30.3966 44.1894 30.3966 42.5944C30.3966 40.9989 31.6902 39.7065 33.2857 39.7065C34.8807 39.7065 36.1735 40.9989 36.1735 42.5944Z" fill="#00A7E0"/>
<path fill-rule="evenodd" clip-rule="evenodd" d="M27.748 49.4763C27.748 51.1625 26.3813 52.5283 24.696 52.5283C23.0102 52.5283 21.6436 51.1625 21.6436 49.4763C21.6436 47.7906 23.0102 46.4243 24.696 46.4243C26.3813 46.4243 27.748 47.7906 27.748 49.4763Z" fill="#00A7E0"/>
<path fill-rule="evenodd" clip-rule="evenodd" d="M36.06 49.4763C36.06 51.0091 34.8177 52.2514 33.2849 52.2514C31.7525 52.2514 30.5103 51.0091 30.5103 49.4763C30.5103 47.9439 31.7525 46.7017 33.2849 46.7017C34.8177 46.7017 36.06 47.9439 36.06 49.4763Z" fill="#00A7E0"/>
<path fill-rule="evenodd" clip-rule="evenodd" d="M36.1735 21.9137C36.1735 23.5088 34.8807 24.8016 33.2857 24.8016C31.6902 24.8016 30.3966 23.5088 30.3966 21.9137C30.3966 20.3183 31.6902 19.0259 33.2857 19.0259C34.8807 19.0259 36.1735 20.3183 36.1735 21.9137Z" fill="#00A7E0"/>
<path fill-rule="evenodd" clip-rule="evenodd" d="M36.1735 28.7697C36.1735 30.3647 34.8807 31.6575 33.2857 31.6575C31.6902 31.6575 30.3966 30.3647 30.3966 28.7697C30.3966 27.1742 31.6902 25.8818 33.2857 25.8818C34.8807 25.8818 36.1735 27.1742 36.1735 28.7697Z" fill="#00A7E0"/>
<path fill-rule="evenodd" clip-rule="evenodd" d="M36.1735 35.7121C36.1735 37.3075 34.8807 38.5999 33.2857 38.5999C31.6902 38.5999 30.3966 37.3075 30.3966 35.7121C30.3966 34.117 31.6902 32.8242 33.2857 32.8242C34.8807 32.8242 36.1735 34.117 36.1735 35.7121Z" fill="#00A7E0"/>
<path fill-rule="evenodd" clip-rule="evenodd" d="M36.06 42.5945C36.06 44.1269 34.8177 45.3691 33.2849 45.3691C31.7525 45.3691 30.5103 44.1269 30.5103 42.5945C30.5103 41.0621 31.7525 39.8198 33.2849 39.8198C34.8177 39.8198 36.06 41.0621 36.06 42.5945Z" fill="#00A7E0"/>
<path fill-rule="evenodd" clip-rule="evenodd" d="M44.0181 15.1911C44.0181 16.7861 42.7253 18.0789 41.1303 18.0789C39.5349 18.0789 38.2421 16.7861 38.2421 15.1911C38.2421 13.5956 39.5349 12.3032 41.1303 12.3032C42.7253 12.3032 44.0181 13.5956 44.0181 15.1911Z" fill="#00A7E0"/>
<path fill-rule="evenodd" clip-rule="evenodd" d="M44.0181 21.9137C44.0181 23.5088 42.7253 24.8016 41.1303 24.8016C39.5349 24.8016 38.2421 23.5088 38.2421 21.9137C38.2421 20.3183 39.5349 19.0259 41.1303 19.0259C42.7253 19.0259 44.0181 20.3183 44.0181 21.9137Z" fill="#00A7E0"/>
<path fill-rule="evenodd" clip-rule="evenodd" d="M44.0181 28.7697C44.0181 30.3647 42.7253 31.6575 41.1303 31.6575C39.5349 31.6575 38.2421 30.3647 38.2421 28.7697C38.2421 27.1742 39.5349 25.8818 41.1303 25.8818C42.7253 25.8818 44.0181 27.1742 44.0181 28.7697Z" fill="#00A7E0"/>
<path fill-rule="evenodd" clip-rule="evenodd" d="M42.6276 8.12894C42.6276 8.95615 41.9574 9.62644 41.1301 9.62644C40.3029 9.62644 39.6318 8.95615 39.6318 8.12894C39.6318 7.30172 40.3029 6.63184 41.1301 6.63184C41.9574 6.63184 42.6276 7.30172 42.6276 8.12894Z" fill="#00A7E0"/>
<path fill-rule="evenodd" clip-rule="evenodd" d="M34.783 1.63617C34.783 2.46339 34.1127 3.13367 33.2855 3.13367C32.4583 3.13367 31.7876 2.46339 31.7876 1.63617C31.7876 0.808955 32.4583 0.138672 33.2855 0.138672C34.1127 0.138672 34.783 0.808955 34.783 1.63617Z" fill="#00A7E0"/>
<path fill-rule="evenodd" clip-rule="evenodd" d="M26.1934 1.4975C26.1934 2.32472 25.5231 2.995 24.6959 2.995C23.8687 2.995 23.198 2.32472 23.198 1.4975C23.198 0.670283 23.8687 0 24.6959 0C25.5231 0 26.1934 0.670283 26.1934 1.4975Z" fill="#00A7E0"/>
<path fill-rule="evenodd" clip-rule="evenodd" d="M17.9075 1.70551C17.9075 2.53273 17.2372 3.20301 16.41 3.20301C15.5828 3.20301 14.9121 2.53273 14.9121 1.70551C14.9121 0.878291 15.5828 0.208008 16.41 0.208008C17.2372 0.208008 17.9075 0.878291 17.9075 1.70551Z" fill="#00A7E0"/>
<path fill-rule="evenodd" clip-rule="evenodd" d="M49.4086 28.77C49.4086 29.5972 48.7383 30.2671 47.9111 30.2671C47.0839 30.2671 46.4132 29.5972 46.4132 28.77C46.4132 27.9427 47.0839 27.2725 47.9111 27.2725C48.7383 27.2725 49.4086 27.9427 49.4086 28.77Z" fill="#00A7E0"/>
<path fill-rule="evenodd" clip-rule="evenodd" d="M49.4086 21.9135C49.4086 22.7407 48.7383 23.411 47.9111 23.411C47.0839 23.411 46.4132 22.7407 46.4132 21.9135C46.4132 21.0863 47.0839 20.416 47.9111 20.416C48.7383 20.416 49.4086 21.0863 49.4086 21.9135Z" fill="#00A7E0"/>
<path fill-rule="evenodd" clip-rule="evenodd" d="M49.4779 15.1909C49.4779 16.0181 48.8077 16.6884 47.9804 16.6884C47.1532 16.6884 46.4825 16.0181 46.4825 15.1909C46.4825 14.3636 47.1532 13.6934 47.9804 13.6934C48.8077 13.6934 49.4779 14.3636 49.4779 15.1909Z" fill="#00A7E0"/>
<path fill-rule="evenodd" clip-rule="evenodd" d="M2.9954 28.77C2.9954 29.5972 2.32512 30.2671 1.4979 30.2671C0.670685 30.2671 0 29.5972 0 28.77C0 27.9427 0.670685 27.2725 1.4979 27.2725C2.32512 27.2725 2.9954 27.9427 2.9954 28.77Z" fill="#00A7E0"/>
<path fill-rule="evenodd" clip-rule="evenodd" d="M2.9954 35.5371C2.9954 36.3643 2.32512 37.0346 1.4979 37.0346C0.670685 37.0346 0 36.3643 0 35.5371C0 34.7098 0.670685 34.0396 1.4979 34.0396C2.32512 34.0396 2.9954 34.7098 2.9954 35.5371Z" fill="#00A7E0"/>
<path fill-rule="evenodd" clip-rule="evenodd" d="M2.9954 21.9135C2.9954 22.7407 2.32512 23.411 1.4979 23.411C0.670685 23.411 0 22.7407 0 21.9135C0 21.0863 0.670685 20.416 1.4979 20.416C2.32512 20.416 2.9954 21.0863 2.9954 21.9135Z" fill="#00A7E0"/>
<path fill-rule="evenodd" clip-rule="evenodd" d="M2.9954 15.1909C2.9954 16.0181 2.32512 16.6884 1.4979 16.6884C0.670685 16.6884 0 16.0181 0 15.1909C0 14.3636 0.670685 13.6934 1.4979 13.6934C2.32512 13.6934 2.9954 14.3636 2.9954 15.1909Z" fill="#00A7E0"/>
<path fill-rule="evenodd" clip-rule="evenodd" d="M10.0448 8.12894C10.0448 8.95615 9.37447 9.62644 8.54725 9.62644C7.72004 9.62644 7.04895 8.95615 7.04895 8.12894C7.04895 7.30172 7.72004 6.63184 8.54725 6.63184C9.37447 6.63184 10.0448 7.30172 10.0448 8.12894Z" fill="#00A7E0"/>
<path fill-rule="evenodd" clip-rule="evenodd" d="M10.0448 42.4239C10.0448 43.2511 9.37447 43.921 8.54725 43.921C7.72004 43.921 7.04895 43.2511 7.04895 42.4239C7.04895 41.5966 7.72004 40.9268 8.54725 40.9268C9.37447 40.9268 10.0448 41.5966 10.0448 42.4239Z" fill="#00A7E0"/>
<path fill-rule="evenodd" clip-rule="evenodd" d="M10.0448 49.4761C10.0448 50.3037 9.37447 50.9736 8.54725 50.9736C7.72004 50.9736 7.04895 50.3037 7.04895 49.4761C7.04895 48.6489 7.72004 47.979 8.54725 47.979C9.37447 47.979 10.0448 48.6489 10.0448 49.4761Z" fill="#00A7E0"/>
<path fill-rule="evenodd" clip-rule="evenodd" d="M17.9075 56.2896C17.9075 57.1168 17.2372 57.7867 16.41 57.7867C15.5828 57.7867 14.9121 57.1168 14.9121 56.2896C14.9121 55.4624 15.5828 54.7925 16.41 54.7925C17.2372 54.7925 17.9075 55.4624 17.9075 56.2896Z" fill="#00A7E0"/>
<path fill-rule="evenodd" clip-rule="evenodd" d="M34.783 56.2202C34.783 57.0475 34.1127 57.7173 33.2855 57.7173C32.4583 57.7173 31.7876 57.0475 31.7876 56.2202C31.7876 55.393 32.4583 54.7231 33.2855 54.7231C34.1127 54.7231 34.783 55.393 34.783 56.2202Z" fill="#00A7E0"/>
<path fill-rule="evenodd" clip-rule="evenodd" d="M26.2627 63.0176C26.2627 63.8448 25.5925 64.5147 24.7652 64.5147C23.938 64.5147 23.2673 63.8448 23.2673 63.0176C23.2673 62.1904 23.938 61.5205 24.7652 61.5205C25.5925 61.5205 26.2627 62.1904 26.2627 63.0176Z" fill="#00A7E0"/>
<path fill-rule="evenodd" clip-rule="evenodd" d="M11.4353 15.1911C11.4353 16.7861 10.1425 18.0789 8.54702 18.0789C6.95198 18.0789 5.65918 16.7861 5.65918 15.1911C5.65918 13.5956 6.95198 12.3032 8.54702 12.3032C10.1425 12.3032 11.4353 13.5956 11.4353 15.1911Z" fill="#00A7E0"/>
<path fill-rule="evenodd" clip-rule="evenodd" d="M11.4353 21.9137C11.4353 23.5088 10.1425 24.8016 8.54702 24.8016C6.95198 24.8016 5.65918 23.5088 5.65918 21.9137C5.65918 20.3183 6.95198 19.0259 8.54702 19.0259C10.1425 19.0259 11.4353 20.3183 11.4353 21.9137Z" fill="#00A7E0"/>
<path fill-rule="evenodd" clip-rule="evenodd" d="M11.4353 35.7121C11.4353 37.3075 10.1425 38.5999 8.54702 38.5999C6.95198 38.5999 5.65918 37.3075 5.65918 35.7121C5.65918 34.117 6.95198 32.8242 8.54702 32.8242C10.1425 32.8242 11.4353 34.117 11.4353 35.7121Z" fill="#00A7E0"/>
<path fill-rule="evenodd" clip-rule="evenodd" d="M11.3216 28.7698C11.3216 30.3022 10.0794 31.5444 8.54699 31.5444C7.01457 31.5444 5.77234 30.3022 5.77234 28.7698C5.77234 27.2373 7.01457 25.9951 8.54699 25.9951C10.0794 25.9951 11.3216 27.2373 11.3216 28.7698Z" fill="#00A7E0"/>
<path fill-rule="evenodd" clip-rule="evenodd" d="M11.3216 35.7122C11.3216 37.2446 10.0794 38.4868 8.54699 38.4868C7.01457 38.4868 5.77234 37.2446 5.77234 35.7122C5.77234 34.1797 7.01457 32.9375 8.54699 32.9375C10.0794 32.9375 11.3216 34.1797 11.3216 35.7122Z" fill="#00A7E0"/>
<path fill-rule="evenodd" clip-rule="evenodd" d="M19.1845 8.19848C19.1845 9.7309 17.9422 10.9731 16.4098 10.9731C14.877 10.9731 13.6348 9.7309 13.6348 8.19848C13.6348 6.66606 14.877 5.42383 16.4098 5.42383C17.9422 5.42383 19.1845 6.66606 19.1845 8.19848Z" fill="#00A7E0"/>
<path fill-rule="evenodd" clip-rule="evenodd" d="M19.2981 15.2604C19.2981 16.8554 18.0052 18.1482 16.4102 18.1482C14.8148 18.1482 13.522 16.8554 13.522 15.2604C13.522 13.665 14.8148 12.3726 16.4102 12.3726C18.0052 12.3726 19.2981 13.665 19.2981 15.2604Z" fill="#00A7E0"/>
<path fill-rule="evenodd" clip-rule="evenodd" d="M19.2981 21.9831C19.2981 23.5781 18.0052 24.8709 16.4102 24.8709C14.8148 24.8709 13.522 23.5781 13.522 21.9831C13.522 20.3876 14.8148 19.0952 16.4102 19.0952C18.0052 19.0952 19.2981 20.3876 19.2981 21.9831Z" fill="#00A7E0"/>
<path fill-rule="evenodd" clip-rule="evenodd" d="M19.2981 28.839C19.2981 30.4344 18.0052 31.7268 16.4102 31.7268C14.8148 31.7268 13.522 30.4344 13.522 28.839C13.522 27.244 14.8148 25.9512 16.4102 25.9512C18.0052 25.9512 19.2981 27.244 19.2981 28.839Z" fill="#00A7E0"/>
<path fill-rule="evenodd" clip-rule="evenodd" d="M19.2981 35.6915C19.2981 37.287 18.0052 38.5794 16.4102 38.5794C14.8148 38.5794 13.522 37.287 13.522 35.6915C13.522 34.0961 14.8148 32.8037 16.4102 32.8037C18.0052 32.8037 19.2981 34.0961 19.2981 35.6915Z" fill="#00A7E0"/>
<path fill-rule="evenodd" clip-rule="evenodd" d="M19.2981 42.5735C19.2981 44.1689 18.0052 45.4613 16.4102 45.4613C14.8148 45.4613 13.522 44.1689 13.522 42.5735C13.522 40.9784 14.8148 39.686 16.4102 39.686C18.0052 39.686 19.2981 40.9784 19.2981 42.5735Z" fill="#00A7E0"/>
<path fill-rule="evenodd" clip-rule="evenodd" d="M19.1845 49.4558C19.1845 50.9882 17.9422 52.2305 16.4098 52.2305C14.877 52.2305 13.6348 50.9882 13.6348 49.4558C13.6348 47.9234 14.877 46.6812 16.4098 46.6812C17.9422 46.6812 19.1845 47.9234 19.1845 49.4558Z" fill="#00A7E0"/>
<path fill-rule="evenodd" clip-rule="evenodd" d="M19.2981 28.839C19.2981 30.4344 18.0052 31.7268 16.4102 31.7268C14.8148 31.7268 13.522 30.4344 13.522 28.839C13.522 27.244 14.8148 25.9512 16.4102 25.9512C18.0052 25.9512 19.2981 27.244 19.2981 28.839Z" fill="#00A7E0"/>
<path fill-rule="evenodd" clip-rule="evenodd" d="M19.2981 35.6915C19.2981 37.287 18.0052 38.5794 16.4102 38.5794C14.8148 38.5794 13.522 37.287 13.522 35.6915C13.522 34.0961 14.8148 32.8037 16.4102 32.8037C18.0052 32.8037 19.2981 34.0961 19.2981 35.6915Z" fill="#00A7E0"/>
<path fill-rule="evenodd" clip-rule="evenodd" d="M19.2981 42.5735C19.2981 44.1689 18.0052 45.4613 16.4102 45.4613C14.8148 45.4613 13.522 44.1689 13.522 42.5735C13.522 40.9784 14.8148 39.686 16.4102 39.686C18.0052 39.686 19.2981 40.9784 19.2981 42.5735Z" fill="#00A7E0"/>
<path fill-rule="evenodd" clip-rule="evenodd" d="M27.4704 56.22C27.4704 57.7524 26.2281 58.9946 24.6957 58.9946C23.1629 58.9946 21.9207 57.7524 21.9207 56.22C21.9207 54.6875 23.1629 53.4453 24.6957 53.4453C26.2281 53.4453 27.4704 54.6875 27.4704 56.22Z" fill="#00A7E0"/>
<path fill-rule="evenodd" clip-rule="evenodd" d="M141.614 64.0648H136.133V51.2552C136.133 48.7892 134.207 46.7823 131.838 46.7823C129.47 46.7823 127.543 48.7892 127.543 51.2552V64.0648H122.063V51.2552C122.063 45.7669 126.448 41.3013 131.838 41.3013C137.228 41.3013 141.614 45.7669 141.614 51.2552V64.0648Z" fill="white"/>
<path fill-rule="evenodd" clip-rule="evenodd" d="M73.2477 64.9999C67.8574 64.9999 63.472 60.5343 63.472 55.046V41.729H68.9523V55.046C68.9523 57.5128 70.8797 59.5196 73.2477 59.5196C75.6158 59.5196 77.5432 57.5128 77.5432 55.046V41.729H83.0226V55.046C83.0226 60.5343 78.6381 64.9999 73.2477 64.9999Z" fill="white"/>
<path fill-rule="evenodd" clip-rule="evenodd" d="M92.125 63.9996H86.6443V48.148C86.6443 44.5907 89.5289 41.7061 93.087 41.7061H98.251V47.1863H94.0608C92.9915 47.1863 92.125 48.0533 92.125 49.1221V63.9996Z" fill="white"/>
<path fill-rule="evenodd" clip-rule="evenodd" d="M109.157 64.7555C106.484 64.7555 103.396 64.2338 101.466 62.7222C99.8784 61.478 99.0392 59.7039 99.0392 57.5919C99.0392 54.6603 100.461 52.9698 101.656 52.0679C104.71 49.7597 109.919 50.1739 113.127 50.7378V48.6113C113.127 47.8315 112.493 47.1985 111.713 47.1985H102.308V41.7183H112.018C115.657 41.7183 118.606 44.6679 118.606 48.3063V62.2727C118.606 62.8009 118.246 63.2617 117.733 63.3885L116.523 63.6867C115.576 63.9199 112.473 64.7555 109.157 64.7555ZM104.519 57.1151C104.519 60.1739 108.961 60.5653 113.127 59.5783V55.2672C111.541 54.5652 104.519 53.6076 104.519 57.1151Z" fill="white"/>
<path fill-rule="evenodd" clip-rule="evenodd" d="M38.6091 64.0001H44.0898V41.729H38.6091V64.0001Z" fill="white"/>
<path fill-rule="evenodd" clip-rule="evenodd" d="M55.3034 47.2404H60.4365V41.7597H55.3042C54.6705 41.7597 54.0592 41.8488 53.4732 42.0017V33.4751H47.9929V55.7458H48.0082V57.7012C48.0082 61.2172 50.8591 64.0689 54.3759 64.0689H60.3522V58.5874H54.8563C54.1005 58.5874 53.4888 57.9754 53.4888 57.22V49.055C53.4888 48.0524 54.3012 47.2404 55.3034 47.2404Z" fill="white"/>
</svg>
