<svg width="32" height="32" viewBox="0 0 32 32" fill="none" xmlns="http://www.w3.org/2000/svg">
<circle cx="16" cy="16" r="15.5" stroke="white"/>
<path d="M22.502 11.457C22.4141 11.1406 22.2559 10.8682 22.0273 10.6396C21.7988 10.4111 21.5264 10.2529 21.21 10.165C20.7529 10.042 19.6807 9.9541 17.9932 9.90137L15.5938 9.875L13.1943 9.90137C11.5068 9.9541 10.4346 10.042 9.97754 10.165C9.66113 10.2529 9.38867 10.4111 9.16016 10.6396C8.93164 10.8682 8.77344 11.1406 8.68555 11.457C8.5625 11.9316 8.47461 12.6523 8.42188 13.6191C8.4043 14.1113 8.39551 14.5508 8.39551 14.9375L8.42188 16.2559C8.47461 17.2402 8.5625 17.9697 8.68555 18.4443C8.77344 18.7432 8.93164 19.0068 9.16016 19.2354C9.38867 19.4639 9.66113 19.6221 9.97754 19.71C10.4346 19.833 11.5068 19.9209 13.1943 19.9736L15.5938 20L17.9932 19.9736C19.6807 19.9209 20.7529 19.833 21.21 19.71C21.5264 19.6221 21.7988 19.4639 22.0273 19.2354C22.2559 19.0068 22.4141 18.7432 22.502 18.4443C22.625 17.9697 22.7129 17.2402 22.7656 16.2559L22.792 14.9375L22.7656 13.6191C22.7129 12.6523 22.625 11.9316 22.502 11.457ZM14.1172 17.0996V12.8018L17.8877 14.9375L14.1172 17.0996Z" fill="white"/>
</svg>
